<?xml version="1.0" encoding="UTF-8"?>
<svg version="1.1" xmlns="http://www.w3.org/2000/svg" width="512" height="512">
<path d="M0 0 C4.92265695 2.2855193 7.81049249 5.71694706 11 10 C12.09416306 13.28248919 12.13016044 15.69705704 12.13803101 19.15336609 C12.14348434 20.44170853 12.14893768 21.73005096 12.15455627 23.05743408 C12.15567607 24.48840327 12.15672659 25.91937251 12.15771484 27.3503418 C12.16238337 28.85502775 12.167527 30.3597123 12.17311096 31.86439514 C12.18439281 35.10720881 12.19282668 38.35001329 12.19923019 41.59284019 C12.20991284 46.7242665 12.23015941 51.85562693 12.25234985 56.98701477 C12.31426192 71.57977269 12.36825216 86.17252709 12.40136719 100.76538086 C12.41973248 108.82306021 12.44869373 116.88062952 12.4893719 124.93822795 C12.51041254 129.20074099 12.52589496 133.46311551 12.52817917 137.72568321 C12.53033209 141.7386463 12.54626681 145.75132117 12.57256889 149.7641964 C12.57973929 151.23308725 12.58187385 152.70201311 12.57846642 154.17091751 C12.20363897 166.15965606 12.20363897 166.15965606 17.41634178 176.5427351 C22.20895463 180.76370153 26.28618707 181.35794361 32.4296875 181.27734375 C36.58524246 180.828948 38.65718505 179.54053936 42 177 C46.34983571 171.50547068 47.12361707 167.58293525 47.13130188 160.71965027 C47.13531006 159.42848801 47.13931824 158.13732574 47.14344788 156.80703735 C47.14297281 155.37811277 47.1424367 153.94918821 47.1418457 152.52026367 C47.14487818 151.01380817 47.14839988 149.50735358 47.15237427 148.00090027 C47.16025694 144.75755397 47.16540581 141.51421865 47.16866493 138.27086449 C47.17458075 133.13963337 47.19112658 128.00847139 47.21000671 122.87727356 C47.21634393 121.11970429 47.22266956 119.36213497 47.22898388 117.60456562 C47.23214969 116.72442157 47.2353155 115.84427753 47.23857725 114.93746245 C47.28063432 102.99306987 47.31362876 91.04870975 47.32592773 79.10424805 C47.3343113 71.04508399 47.35681206 62.98609146 47.3952834 54.92701322 C47.41503248 50.66394674 47.42745244 46.40113661 47.42244911 42.13802147 C47.41779842 38.12662059 47.43163062 34.11570551 47.45946121 30.10440254 C47.46636568 28.63509084 47.46650752 27.16572882 47.45926094 25.69641876 C47.42038437 16.92574256 47.44630803 10.85872397 53.6328125 4.2578125 C60.06211889 -0.62307455 64.98911314 -0.69362557 73 0 C77.92265695 2.2855193 80.81049249 5.71694706 84 10 C85.09067056 13.27201168 85.13013515 15.67076728 85.13803101 19.11540222 C85.14348434 20.39533051 85.14893768 21.67525879 85.15455627 22.99397278 C85.15567607 24.41549678 85.15672659 25.83702083 85.15771484 27.25854492 C85.1623834 28.7533788 85.16752703 30.24821126 85.17311096 31.74304199 C85.18439263 34.96457473 85.19282658 38.18609821 85.19923019 41.40764427 C85.20991312 46.50546586 85.23015978 51.60322115 85.25234985 56.70100403 C85.31426093 71.19818069 85.36825151 85.69535382 85.40136719 100.19262695 C85.41973292 108.19756901 85.44869474 116.2024003 85.4893719 124.20726091 C85.51041183 128.44182845 85.52589486 132.67625657 85.52817917 136.91087914 C85.53033221 140.89757821 85.54626814 144.8839872 85.57256889 148.87059784 C85.57973884 150.32981324 85.58187407 151.78906388 85.57846642 153.24829292 C85.47832644 165.98345689 85.47832644 165.98345689 91.4375 176.875 C96.14055982 180.77509839 99.51330502 181.39159871 105.53125 181.25 C110.25726035 180.77141667 113.03428493 179.01936591 116.25 175.625 C119.38155832 170.92766251 120.24987019 167.23873033 120.2515564 161.60612488 C120.25693924 160.31503311 120.26232208 159.02394135 120.26786804 157.69372559 C120.26385413 156.2700191 120.25968323 154.84631304 120.25537109 153.42260742 C120.25812227 151.91762604 120.26180293 150.41264612 120.26634216 148.90766907 C120.2744454 145.67032598 120.27662481 142.43305193 120.27439499 139.19569969 C120.27155839 134.07249196 120.28592724 128.94942175 120.30337524 123.82624817 C120.3503677 109.25910507 120.37433852 94.6919714 120.38085938 80.12475586 C120.3846141 72.07657354 120.40267652 64.02854695 120.43595374 55.98043138 C120.45613381 50.89203599 120.45855469 45.8040432 120.44767356 40.71562421 C120.44505942 37.54339075 120.45910465 34.37138984 120.47775459 31.19921684 C120.48305999 29.73354186 120.48160811 28.26782361 120.47271919 26.80216599 C120.3829357 10.69263999 120.3829357 10.69263999 126.51801109 4.45714092 C131.89228257 -0.20697275 135.70151257 -0.40904573 142.66015625 -0.33984375 C147.46746972 0.14932148 150.56236455 1.6301012 154 5 C158.90625305 11.16868074 159.15082278 18.00456058 159.13371277 25.58816528 C159.13597833 26.33211512 159.13824388 27.07606497 159.14057809 27.84255874 C159.1468867 30.3249054 159.14609074 32.80719702 159.14526367 35.28955078 C159.14825721 37.07389903 159.15166018 38.85824663 159.15544128 40.64259338 C159.16426777 45.48380198 159.16661889 50.32499288 159.16725707 55.16620874 C159.16796858 58.19457717 159.17010485 61.22294113 159.17275429 64.25130844 C159.18200469 74.82737258 159.18608974 85.40342413 159.18530273 95.97949219 C159.18470269 105.81894249 159.19524093 115.65833784 159.2110464 125.49777424 C159.2241511 133.95916186 159.22948537 142.42053159 159.22884732 150.88192928 C159.22859311 155.92923151 159.2314017 160.97648493 159.24202538 166.02377701 C159.25175521 170.77621648 159.25175223 175.528561 159.24450874 180.28100395 C159.24346881 182.01753186 159.24579035 183.75406584 159.2518692 185.49058342 C159.30987409 203.2204834 158.1458746 217.32898669 145.4296875 230.69140625 C139.37209728 236.44709084 132.51696241 240.40589252 125.125 244.1875 C124.50165771 244.5086377 123.87831543 244.82977539 123.23608398 245.16064453 C119.16541619 247.16822506 115.04322172 248.70204048 110.72998047 250.1184082 C109.65521454 250.47256302 108.58044861 250.82671783 107.47311401 251.19160461 C106.65698639 251.45837509 105.84085876 251.72514557 105 252 C104.99668985 253.15552557 104.99337971 254.31105114 104.98996925 255.50159264 C104.91088554 282.95528245 104.82164065 310.40892402 104.71994839 337.86253979 C104.7074301 341.24445985 104.69499723 344.62638021 104.68261719 348.00830078 C104.68015119 348.68155662 104.6776852 349.35481245 104.67514448 350.04846998 C104.6354627 360.93779797 104.60269513 371.82713629 104.57250018 382.71649425 C104.54134359 393.89691466 104.50257 405.07729445 104.45720994 416.25766718 C104.43198379 422.53458299 104.41019096 428.81146806 104.39665604 435.08842087 C104.38380055 440.9997342 104.3617084 446.91094193 104.33261681 452.82219696 C104.32356831 454.98848705 104.31785718 457.15479414 104.31578636 459.32110214 C104.31244454 462.28672729 104.29691529 465.25205651 104.2784729 468.21762085 C104.28040763 469.06784675 104.28234237 469.91807265 104.28433573 470.79406297 C104.16531725 483.66216384 101.00810569 493.45574712 92.21484375 502.953125 C83.5890321 510.92477457 73.55101643 512.57895715 62.20703125 512.3125 C52.70876876 511.8058134 44.72072744 507.07041095 38.3125 500.1875 C31.95665857 492.30625663 29.38534911 484.00907869 29.51898193 473.98983765 C29.51556423 473.03390925 29.51214653 472.07798085 29.50862527 471.09308493 C29.50208222 467.91770006 29.52396335 464.74317694 29.54589844 461.56787109 C29.54702769 459.28071106 29.54639154 456.99354957 29.54412842 454.70639038 C29.54298338 448.51696932 29.56645904 442.32785997 29.59442425 436.13851118 C29.61947275 429.66296447 29.62178263 423.18741019 29.62652588 416.71182251 C29.63753547 405.84932924 29.66250001 394.98695071 29.69824219 384.12451172 C29.73500477 372.94027269 29.76329568 361.75606467 29.78027344 350.57177734 C29.78132433 349.8814216 29.78237523 349.19106587 29.78345796 348.47979026 C29.78867843 345.01619226 29.79373318 341.55259405 29.79870558 338.0889957 C29.84011664 309.39258689 29.91081936 280.69629791 30 252 C29.25451904 251.80133835 28.50903809 251.6026767 27.7409668 251.397995 C26.75781494 251.13348038 25.77466309 250.86896576 24.76171875 250.59643555 C23.78936279 250.3358989 22.81700684 250.07536224 21.81518555 249.80693054 C18.08058608 248.73646385 14.54921004 247.38253566 11 245.8125 C10.32211426 245.51424316 9.64422852 245.21598633 8.94580078 244.90869141 C2.68924115 242.04622282 -2.65673401 238.32638146 -8 234 C-8.58007812 233.58234375 -9.16015625 233.1646875 -9.7578125 232.734375 C-17.28591878 227.137563 -22.64023823 217.97268967 -25 209 C-25.75827582 202.70371699 -25.54764581 196.31350482 -25.51757812 189.98364258 C-25.52300486 188.06250988 -25.53013061 186.14138134 -25.53881836 184.22026062 C-25.5569853 179.02622887 -25.55001258 173.83251649 -25.53730202 168.63847947 C-25.52714433 163.19384824 -25.53657497 157.74924356 -25.54284668 152.30461121 C-25.55011316 143.16632192 -25.54055964 134.02816218 -25.52148438 124.88989258 C-25.49969806 114.33104174 -25.50678387 103.77249966 -25.52879 93.21365625 C-25.54694912 84.13653575 -25.54950038 75.05950812 -25.53903532 65.98237532 C-25.53280575 60.56581827 -25.53195048 55.14940633 -25.54518127 49.73285866 C-25.55674724 44.64292645 -25.54870024 39.55339217 -25.52560425 34.46350288 C-25.52032201 32.59748749 -25.52182262 30.73143852 -25.53065491 28.86543655 C-25.54161284 26.31497726 -25.52784479 23.76578711 -25.50793457 21.21540833 C-25.51685746 20.47999355 -25.52578034 19.74457877 -25.53497362 18.98687869 C-25.44304418 12.90128701 -23.5287354 8.69812438 -19.3671875 4.2578125 C-12.93788111 -0.62307455 -8.01088686 -0.69362557 0 0 Z " fill="#000000" transform="translate(98,0)"/>
<path d="M0 0 C0.92768188 0.00451172 1.85536377 0.00902344 2.81115723 0.01367188 C5.08641208 0.02538867 7.36153092 0.04179385 9.63671875 0.0625 C9.72232882 46.03617211 9.80192954 92.00985172 9.84843445 137.98358154 C9.84912473 138.66423783 9.84981502 139.34489411 9.85052622 140.04617635 C9.8654915 154.8394282 9.87934231 169.6326809 9.8920454 184.42593487 C9.89828196 191.68076666 9.90476475 198.93559823 9.91137695 206.19042969 C9.91203075 206.91236444 9.91268454 207.6342992 9.91335815 208.37811076 C9.9346568 231.76914153 9.97220728 255.16011183 10.01820485 278.55110598 C10.06539576 302.5926642 10.09615244 326.63418896 10.1062937 350.67579271 C10.10773443 354.07315582 10.10936261 357.47051881 10.11110497 360.86788177 C10.11161064 361.87083541 10.11161064 361.87083541 10.11212653 362.89405073 C10.1176648 372.9823818 10.13760559 383.07062009 10.16536903 393.15891266 C10.1968552 404.64152687 10.21157045 416.12400456 10.20422564 427.60666242 C10.20102233 433.46533906 10.20594211 439.32371219 10.23274612 445.1823349 C10.25712144 450.54935038 10.25827817 455.91585896 10.24121322 461.28289804 C10.23910488 463.22119777 10.2454109 465.15952945 10.26113466 467.09776655 C10.36775415 481.05576299 9.09032251 492.49029074 -1.04296875 503.0859375 C-11.42072531 511.92624865 -22.26749982 513.10721274 -35.36328125 512.0625 C-45.05197781 510.31806315 -51.84276908 504.54782172 -57.9921875 497.0859375 C-65.29590811 486.49009207 -64.78348713 473.95803472 -64.70385742 461.64770508 C-64.7030099 459.8037416 -64.70348872 457.9597771 -64.70518494 456.11581421 C-64.70604145 451.13926157 -64.6884717 446.16292831 -64.66746306 441.1864264 C-64.6486386 435.97477488 -64.64694129 430.76311766 -64.64338684 425.55143738 C-64.63408328 415.6954918 -64.60949243 405.83964672 -64.57933837 395.98374528 C-64.54574168 384.75759946 -64.52929512 373.53144869 -64.51425207 362.30526507 C-64.48294132 339.22428779 -64.4302138 316.14339954 -64.36328125 293.0625 C-65.35593239 293.06583092 -65.35593239 293.06583092 -66.36863708 293.06922913 C-73.22988345 293.09127965 -80.09111982 293.10640562 -86.95239258 293.11743164 C-89.51619882 293.1224737 -92.08000216 293.12930714 -94.64379883 293.13793945 C-98.31983146 293.15001064 -101.99582623 293.15572942 -105.671875 293.16015625 C-106.82602402 293.16531754 -107.98017303 293.17047882 -109.16929626 293.17579651 C-110.76083275 293.17590981 -110.76083275 293.17590981 -112.38452148 293.17602539 C-113.32384018 293.178246 -114.26315887 293.18046661 -115.23094177 293.18275452 C-117.36328125 293.0625 -117.36328125 293.0625 -118.36328125 292.0625 C-118.5220209 290.56589273 -118.61464935 289.06218999 -118.6796875 287.55859375 C-118.72182373 286.60380127 -118.76395996 285.64900879 -118.80737305 284.6652832 C-118.84644775 283.62073975 -118.88552246 282.57619629 -118.92578125 281.5 C-118.9872937 279.86840942 -118.9872937 279.86840942 -119.05004883 278.20385742 C-121.49472976 208.05720529 -113.52641063 133.75395062 -82.36328125 70.0625 C-81.9755957 69.26263672 -81.58791016 68.46277344 -81.18847656 67.63867188 C-67.39501744 39.4643172 -48.09731476 14.5697579 -18.66796875 1.90234375 C-12.5011084 -0.17583019 -6.42882489 -0.05950761 0 0 Z " fill="#000000" transform="translate(429.36328125,-0.0625)"/>
</svg>
