<svg width="213" height="213" viewBox="0 0 213 213" fill="none" xmlns="http://www.w3.org/2000/svg">
<g clip-path="url(#clip0_22_9)">
<path d="M141.299 0H151.573C153.144 0.644181 155.275 0.801616 156.956 1.23431C159.272 1.83014 161.622 2.64725 163.813 3.59128C174.475 8.18702 182.869 16.8386 187.14 27.6349C191.372 38.4082 191.161 50.4201 186.552 61.0378C181.842 71.7966 173.032 80.2303 162.079 84.4676C151.324 88.5899 139.371 88.2652 128.856 83.5655C118.27 78.8433 109.979 70.1296 105.789 59.3226C101.704 48.4768 102.032 36.4623 106.703 25.856C112.491 12.8535 124.299 3.33986 138.328 0.805953C139.158 0.655878 140.372 0.370495 141.153 0.0597178L141.299 0Z" fill="black"/>
<path d="M34.9703 145.221C32.0659 135.674 36.6639 130.638 42.1736 123.605L50.8084 112.58L77.916 77.8422C81.9023 72.7392 87.6191 65.8762 91.298 60.7319C92.5785 64.1281 93.7878 67.2684 95.4949 70.4906C101.532 81.8969 111.186 90.9756 122.941 96.3015C125.026 97.261 127.178 98.0689 129.379 98.7192C125.554 102.246 118.983 107.07 114.685 110.416L88.9439 130.484L69.4112 145.742C66.529 147.994 61.2783 152.336 58.3743 154.032C55.8216 155.551 52.8812 156.292 49.9136 156.165C48.2304 156.099 46.604 155.723 44.9592 155.374C40.3687 159.241 33.2033 165.381 38.8172 171.603C40.1817 173.105 42.0906 174 44.1185 174.088C52.3217 174.445 55.2783 159.678 71.2699 160.215C77.0917 160.438 82.5868 162.963 86.5473 167.235C90.4002 171.4 92.4287 176.931 92.181 182.599C91.8446 191.286 88.2055 195.006 82.4608 200.712L74.7297 208.389C73.8363 209.277 70.9163 212.066 70.4115 213H70.1446C68.2931 210.914 62.3583 204.979 60.2755 203.21C63.7473 199.398 67.3744 195.922 70.9954 192.28C72.5404 190.725 76.0131 187.496 77.0912 185.78C77.8964 184.522 78.2871 183.042 78.2078 181.55C78.1042 179.469 77.1499 177.522 75.5684 176.165C73.9774 174.802 71.8574 174.259 69.792 174.443C61.7852 175.159 58.9561 189.689 42.2102 188.025C38.0507 187.634 34.101 186.016 30.8615 183.378C26.0547 179.433 23.5644 174.652 22.9641 168.492C22.3975 162.729 24.1741 156.979 27.8937 152.541C30.0245 149.972 33.0275 147.538 34.9703 145.221Z" fill="black"/>
</g>
<defs>
<clipPath id="clip0_22_9">
<rect width="213" height="213" fill="white"/>
</clipPath>
</defs>
</svg>
