<svg xmlns="http://www.w3.org/2000/svg" width="154" height="25" viewBox="0 0 154 25" fill="none">
<path d="M21.2505 5.2236L12.6426 0.353366C11.8103 -0.117789 10.786 -0.117789 9.9561 0.353366L1.34326 5.2236C0.510889 5.69475 0 6.56382 0 7.50369V17.2417C0 18.1816 0.513381 19.0507 1.34326 19.5218L9.95361 24.392C10.786 24.8632 11.8103 24.8632 12.6401 24.392L21.2505 19.5218C22.0829 19.0507 22.5938 18.1816 22.5938 17.2417V7.50369C22.5938 6.56382 22.0804 5.69475 21.2505 5.2236ZM21.091 9.8375C21.091 10.0596 20.9664 10.2672 20.767 10.3746L15.5211 13.2235C15.3217 13.3309 15.1971 13.5359 15.1971 13.7605C15.1971 14.2292 15.7105 14.5246 16.1266 14.2976L19.8773 12.2616C20.296 12.0346 20.8069 12.33 20.8069 12.7987V13.6385C20.8069 13.8606 20.6823 14.0681 20.4829 14.1755L15.5161 16.8731C15.3167 16.9805 15.1921 17.1856 15.1921 17.4102V17.5688C15.1921 18.0375 15.7055 18.3329 16.1217 18.1059L20.1539 15.9161C20.5726 15.6891 21.0835 15.9845 21.0835 16.4532V17.3638C21.0835 17.5859 20.9589 17.7934 20.7595 17.9008L14.3921 21.3576L13.1062 22.0558C12.6875 22.2828 12.1766 21.9874 12.1766 21.5187V13.0843C12.1766 12.8622 12.3012 12.6547 12.5006 12.5472L15.1896 11.0874L20.1515 8.3923C20.5701 8.16526 21.081 8.46065 21.081 8.92936V9.83994L21.091 9.8375Z" fill="#8017CF"/>
<path d="M54.5725 15.6902C54.4255 16.0296 54.3507 16.3835 54.3507 16.7497C54.3507 16.9426 54.2785 17.0378 54.1314 17.0378C53.9844 17.0378 53.9121 16.9426 53.9121 16.7497C53.9121 16.3811 53.8374 16.0271 53.6903 15.6902L49.9421 6.71875H47.0762L52.1452 18.0314H56.1127L61.1817 6.71875H58.3157L54.5676 15.6902H54.5725Z" fill="black"/>
<path d="M87.9747 7.71085C87.065 6.92966 85.7741 6.53906 84.1044 6.53906C83.3144 6.53906 82.5842 6.67821 81.9138 6.95895C81.2434 7.23969 80.6777 7.58879 80.2191 8.00868C79.7606 8.42856 79.4291 8.83625 79.2272 9.23417C79.1525 9.36599 79.0702 9.43191 78.978 9.43191H78.9232C78.831 9.41726 78.7886 9.37332 78.7986 9.30008C78.8086 9.22684 78.841 9.11699 78.8958 8.96807C79.0976 8.49692 79.1998 7.99647 79.1998 7.46428V6.71239H76.5557V18.025H79.1998V12.7446C79.1998 11.8902 79.4067 11.131 79.8204 10.4694C80.2341 9.80541 80.7674 9.2952 81.4178 8.9339C82.0708 8.5726 82.7436 8.39195 83.4439 8.39195C84.4533 8.39195 85.2483 8.64339 85.8264 9.14384C86.4046 9.64429 86.6937 10.5134 86.6937 11.7511V18.0274H89.3379V11.3092C89.3379 9.68823 88.8843 8.48715 87.9747 7.70841V7.71085Z" fill="black"/>
<path d="M114.441 11.9976C114.441 12.8521 114.234 13.6113 113.82 14.2729C113.407 14.9369 112.873 15.4471 112.223 15.8084C111.57 16.1697 110.894 16.3503 110.197 16.3503C109.187 16.3503 108.392 16.0989 107.814 15.5984C107.236 15.098 106.947 14.2289 106.947 12.9912V6.71484H104.303V13.4331C104.303 15.054 104.756 16.2551 105.666 17.0339C106.576 17.8151 107.866 18.2057 109.536 18.2057C110.675 18.2057 111.667 17.9249 112.512 17.3659C113.357 16.8068 113.99 16.1868 114.413 15.5106C114.506 15.3787 114.588 15.3128 114.663 15.3128H114.717C114.81 15.3421 114.854 15.3934 114.854 15.4666C114.854 15.5252 114.817 15.6277 114.745 15.7766C114.543 16.2478 114.441 16.7483 114.441 17.2804V18.0323H117.085V6.71729H114.441V11.9976Z" fill="black"/>
<path d="M137.329 7.61076C136.457 6.89548 135.293 6.53906 133.843 6.53906C132.978 6.53906 132.203 6.74901 131.515 7.1689C130.827 7.58879 130.299 8.182 129.93 8.94854C129.875 9.06572 129.773 9.12431 129.626 9.12431C129.479 9.12431 129.387 9.06572 129.352 8.94854C129.15 8.24059 128.719 7.66446 128.056 7.21284C127.396 6.76365 126.623 6.53906 125.741 6.53906C124.786 6.53906 123.927 6.77098 123.164 7.23481C122.401 7.69864 121.846 8.32115 121.497 9.10234C121.442 9.21952 121.367 9.27811 121.277 9.27811H121.195C121.14 9.26346 121.103 9.23661 121.086 9.19999C121.068 9.16337 121.071 9.11211 121.1 9.04619C121.128 8.98028 121.143 8.93146 121.143 8.90216C121.345 8.38706 121.447 7.90859 121.447 7.46673V6.71483H118.803V18.0274H121.447V12.105C121.447 11.3824 121.606 10.738 121.928 10.1716C122.249 9.60523 122.676 9.16581 123.209 8.85578C123.742 8.54574 124.293 8.39195 124.861 8.39195C125.743 8.39195 126.386 8.62386 126.79 9.08769C127.194 9.55153 127.396 10.2326 127.396 11.131V18.025H130.04V11.6168C130.04 10.9528 130.192 10.3791 130.493 9.8933C130.797 9.40749 131.191 9.03643 131.677 8.77766C132.163 8.51889 132.674 8.39195 133.207 8.39195C135.061 8.39195 135.991 9.21708 135.991 10.8673V18.0274H138.635V11.1334C138.635 9.49782 138.199 8.32359 137.327 7.60832L137.329 7.61076Z" fill="black"/>
<path d="M91.616 6.71875H89.8516V8.58872H94.9754L94.9729 18.0069H97.6246L97.6196 8.58872H102.639V6.71875H100.874H91.616Z" fill="black"/>
<path d="M71.5639 6.71875H62.3105V8.57408H62.318V11.4352H62.3105V13.2905H62.318V16.1614H62.3105V18.0167H71.5639V17.9899H75.1575V16.1199H64.9572V13.2905H71.5639V11.4352H64.9572V8.59605H75.1575V6.72607H71.5639V6.71875Z" fill="black"/>
<path d="M42.289 6.71875H33.0332V8.57408H33.0432V11.4352H33.0332V13.2905H33.0432V16.1614H33.0332V18.0167H42.289V17.9899H45.8802V16.1199H35.6799V13.2905H42.289V11.4352H35.6799V8.59605H45.8802V6.72607H42.289V6.71875Z" fill="black"/>
<path d="M147.395 11.2853C144.22 11.2853 141.636 8.75372 141.636 5.64361C141.636 2.5335 144.22 0.00195312 147.395 0.00195312C150.57 0.00195312 153.154 2.5335 153.154 5.64361C153.154 8.75372 150.57 11.2853 147.395 11.2853ZM147.395 0.343724C144.412 0.343724 141.985 2.72147 141.985 5.64361C141.985 8.56575 144.412 10.9435 147.395 10.9435C150.378 10.9435 152.806 8.56575 152.806 5.64361C152.806 2.72147 150.378 0.343724 147.395 0.343724Z" fill="#231F20"/>
<path d="M144.684 7.76972V4.30319H143.315V3.8418H146.545V4.30319H145.177V7.76972H144.681H144.684Z" fill="black"/>
<path d="M146.991 7.76972V3.8418H147.442L148.958 6.97144L150.463 3.8418H150.919V7.76728H150.448V4.90861L149.087 7.76972H148.823L147.462 4.90861V7.76972H146.991Z" fill="black"/>
</svg>