<svg xmlns="http://www.w3.org/2000/svg" width="82" height="30" viewBox="0 0 82 30" fill="none">
<path fill-rule="evenodd" clip-rule="evenodd" d="M79.2651 4.88717C80.6215 4.88717 81.7366 3.79513 81.7366 2.44392C81.7366 1.10243 80.6215 0 79.2651 0C77.9081 0 76.793 1.10243 76.793 2.44392C76.793 3.79496 77.9081 4.88717 79.2651 4.88717ZM77.1615 2.44375C77.1615 1.29981 78.1081 0.364128 79.2651 0.364128C80.4215 0.364128 81.3681 1.29998 81.3681 2.44375C81.3681 3.58703 80.4215 4.52288 79.2651 4.52288C78.1081 4.52288 77.1615 3.58703 77.1615 2.44375ZM78.3291 3.6704H78.8021V2.63059H79.3599L79.7697 3.6704H80.2955L79.812 2.5581C79.98 2.47473 80.2642 2.38114 80.2642 1.92393C80.2642 1.17525 79.6964 1.09205 79.2019 1.09205H78.3293L78.3291 3.6704ZM78.8021 1.53904H79.3279C79.612 1.53904 79.7695 1.65339 79.7695 1.88208C79.7695 2.11077 79.591 2.21473 79.3702 2.21473H78.8021V1.53904Z" fill="#3781C2"/>
<path d="M0.000507753 3.53936L0 3.50336V0.625H2.92457V3.50939V3.53936V21.7379L2.92576 21.8031V24.6527H0V21.7738L0.000507753 21.7379V3.53936Z" fill="#3781C2"/>
<path d="M29.7366 15.9011C29.8121 20.2678 32.5626 23.7597 35.8806 23.702C39.1985 23.6432 41.8267 20.0555 41.7521 15.6882C41.6765 11.3215 38.9254 7.82903 35.6074 7.88779C32.2896 7.94672 29.6612 11.5339 29.7366 15.9011ZM53.9497 10.6208C54.0263 10.7874 53.8453 10.3721 53.8453 10.3721L53.9497 10.6208ZM55.9431 28.6998C56.0776 28.4745 56.2637 28.1293 56.4855 27.6982L55.9431 28.6998ZM56.115 9.11444C56.1502 9.21087 56.191 9.31266 56.2374 9.4193L57.2218 11.8011L56.115 9.11444ZM43.8612 21.1074C45.6692 22.7286 47.2964 23.567 49.3775 23.567C51.508 23.5834 53.4014 22.5533 53.4014 20.5716C53.4014 18.9188 51.9183 17.9514 49.2674 16.8435C47.0215 15.8832 45.3498 15.2104 44.4758 13.8193C44.5827 14.4235 44.6384 15.0475 44.6384 15.686C44.6384 21.0496 40.702 25.396 35.846 25.396C30.9908 25.396 27.0544 21.0494 27.0544 15.686C27.0544 12.4532 28.4845 9.58923 30.6846 7.82418H24.735V21.7367L24.7355 21.7923V24.6515H22.0928V21.8848C22.0944 21.837 22.095 21.7869 22.095 21.7369V7.82434H19.7656V6.07302H22.1292C22.4348 2.5409 24.649 0.542969 27.7146 0.542969C29.7026 0.542969 30.7942 0.747717 31.4241 1.03617V3.43054C31.4153 3.60917 31.4148 3.71799 31.4148 3.71799C31.3877 3.71514 31.3223 3.71464 31.3223 3.71464C30.3659 2.84191 29.4213 2.19301 27.2169 2.19519C25.4613 2.19519 24.2993 3.60465 24.7057 6.07302H34.5961C35.0047 6.0094 35.422 5.97608 35.846 5.97608C39.3689 5.97608 42.4074 8.26414 43.8106 11.5682C43.7979 11.3848 43.7913 11.1937 43.7913 10.9933C43.7913 7.5461 47.1687 6.07938 50.677 6.08658C50.8115 6.08608 50.943 6.08708 51.0714 6.08926C52.3066 6.06967 54.0661 6.46812 55.1397 6.74686L56.115 9.11444L57.2218 11.8011L60.1977 18.9743L60.5474 20.1263L60.9355 18.9743L64.6995 9.76769C65.3935 7.23287 68.142 6.13596 71.1773 6.14199C72.6861 6.13546 73.8008 6.3146 75.1367 6.77951V9.56362C73.4914 8.38167 72.3134 7.6951 70.4461 7.6951C68.8051 7.6951 66.8324 8.41264 66.8324 10.7993C66.8009 12.5932 67.8898 12.9208 71.0853 14.4876C73.7122 15.6145 76.135 16.8586 76.1494 19.7396C76.1494 24.5436 71.3602 25.3743 69.029 25.382C66.9481 25.382 65.0404 24.8745 63.9793 24.0025V20.8318L64.15 20.9713C66.0433 22.7177 67.7164 23.6224 69.8782 23.6224C72.0083 23.6389 73.9015 22.6087 73.9015 20.6271C73.9015 18.9742 72.4186 18.0069 69.7677 16.8989C67.2339 15.8154 65.572 15.0973 64.8924 13.3025C63.8592 15.7921 59.0536 27.357 57.9224 29.8285H55.3314L55.9431 28.6995L56.4855 27.6978L56.5036 27.6652C57.1529 26.401 58.099 24.4183 58.9383 22.5205L53.9496 10.6207C53.9166 10.5477 53.8344 10.3654 53.6676 9.99086C53.2849 9.12901 52.9286 8.33312 51.8514 7.93132C51.2743 7.74013 50.6604 7.63952 49.9454 7.63952C48.3045 7.63952 46.2058 8.35706 46.2058 10.7437C46.174 12.5376 47.3892 12.8654 50.5847 14.4322C53.2116 15.5591 55.6339 16.8031 55.6488 19.6842C55.6488 24.4881 50.8591 25.3189 48.5279 25.3266C46.6769 25.3266 44.9638 24.9258 43.8607 24.2225V21.1074H43.8612Z" fill="#3781C2"/>
<path d="M8.37856 6.25174L8.41107 8.35262L8.40938 8.49426H8.43749C8.47102 8.40603 8.51742 8.33136 8.56094 8.27645C9.63475 7.1387 10.9888 6.00781 14.207 6.00781C17.2866 6.00781 19.2804 8.5937 19.3603 10.2215L19.3631 21.7358L19.3636 21.7935V24.6506H16.7235L16.724 21.2176L16.723 11.4143C16.723 9.38524 14.9205 7.91818 12.7146 7.91818C10.8803 7.91818 8.52555 9.54863 8.4485 11.1998V21.7379L8.44901 21.8163V24.6526H5.80859V21.7378V8.67138L5.8091 6.2514H6.28428H7.72218H8.37856V6.25174Z" fill="#3781C2"/>
</svg>