<svg width="252" height="43" viewBox="0 0 252 43" fill="none" xmlns="http://www.w3.org/2000/svg">
<path d="M181.723 41.4562L180.925 41.4562L180.925 3.48482e-08L181.723 0L181.723 41.4562Z" fill="white"/>
<path d="M248.955 41.6823C246.911 41.6823 245.684 39.7131 245.684 36.5928C245.684 32.3818 247.668 31.1094 249.258 31.1094C250.349 31.1094 251.424 31.6698 251.818 32.8816L250.591 33.3815C250.41 32.2 249.834 31.685 249.137 31.685C248.122 31.685 247.077 33.0331 247.032 36.2444C247.638 35.3658 248.531 35.0023 249.304 35.0023C250.773 35.0023 252 36.1989 252 38.2287C252 40.2584 250.758 41.6823 248.955 41.6823ZM247.032 36.8654C247.092 39.3496 247.744 41.1067 249.077 41.1067C250.137 41.1067 250.652 39.8949 250.652 38.5013C250.652 36.6836 249.789 35.7294 248.774 35.7294C248.183 35.7294 247.501 36.108 247.032 36.8654Z" fill="white"/>
<path d="M238.621 41.4551V40.8946L240.636 38.5165C241.666 37.2895 242.772 35.6991 242.772 33.9571C242.772 32.7756 242.181 31.9425 241.257 31.9425C240.333 31.9425 239.651 32.6999 239.394 34.0328L238.833 33.9571C238.985 32.1394 240.151 31.1094 241.605 31.1094C243.074 31.1094 244.104 32.1697 244.104 33.8662C244.104 36.0929 242.65 37.744 240.196 40.319H242.726C243.559 40.319 243.802 40.1221 244.104 38.8952H244.65L244.226 41.4551H238.621Z" fill="white"/>
<path d="M234.419 41.6823C232.253 41.6823 231.102 39.3042 231.102 36.3958C231.102 33.4724 232.253 31.1094 234.419 31.1094C236.585 31.1094 237.721 33.4875 237.721 36.3958C237.721 39.289 236.585 41.6823 234.419 41.6823ZM234.585 41.1067C235.661 41.1067 236.418 39.4859 236.418 36.9563C236.418 35.078 235.964 31.685 234.267 31.685C233.146 31.685 232.404 33.2755 232.404 35.8354C232.404 37.9106 232.859 41.1067 234.585 41.1067Z" fill="white"/>
<path d="M224.035 41.4551V40.8946L226.05 38.5165C227.08 37.2895 228.186 35.6991 228.186 33.9571C228.186 32.7756 227.595 31.9425 226.671 31.9425C225.747 31.9425 225.065 32.6999 224.808 34.0328L224.247 33.9571C224.399 32.1394 225.565 31.1094 227.019 31.1094C228.489 31.1094 229.519 32.1697 229.519 33.8662C229.519 36.0929 228.064 37.744 225.61 40.319H228.14C228.973 40.319 229.216 40.1221 229.519 38.8952H230.064L229.64 41.4551H224.035Z" fill="white"/>
<path d="M215.031 32.5037C215.031 32.0341 214.864 31.8069 214.47 31.7766L214.152 31.7615V31.201L215.728 30.7617H216.182V37.4417L218.485 35.0636C218.818 34.7001 218.591 34.4577 218.121 34.4274V33.8669H220.62V34.4274C220.06 34.5031 219.621 34.7304 219.106 35.2908L217.954 36.4723L219.757 39.9865C220.136 40.7287 220.514 40.8196 221.15 40.8954V41.4558H218.954C218.939 41.0771 218.833 40.7742 218.666 40.4409L217.121 37.3357L216.182 38.29V40.0774C216.182 40.547 216.334 40.7893 217.061 40.8954V41.4558H214.152V40.8954C214.895 40.7893 215.031 40.547 215.031 40.0774V32.5037Z" fill="white"/>
<path d="M210.881 41.6839C209.079 41.6839 208.109 40.0026 208.109 37.8668C208.109 35.3826 209.306 33.6406 211.048 33.6406C212.699 33.6406 213.426 35.2614 213.381 37.2003H209.261C209.261 37.2457 209.261 37.276 209.261 37.3215C209.261 39.2452 209.882 40.7751 211.245 40.7751C212.139 40.7751 212.669 40.154 213.047 39.2149L213.456 39.3361C213.093 40.7448 212.184 41.6839 210.881 41.6839ZM209.291 36.5944H212.184C212.169 35.1554 211.821 34.2162 210.881 34.2162C210.018 34.2162 209.442 35.1705 209.291 36.5944Z" fill="white"/>
<path d="M204.639 41.6839C202.837 41.6839 201.867 40.0026 201.867 37.8668C201.867 35.3826 203.064 33.6406 204.806 33.6406C206.457 33.6406 207.184 35.2614 207.139 37.2003H203.018C203.018 37.2457 203.018 37.276 203.018 37.3215C203.018 39.2452 203.639 40.7751 205.003 40.7751C205.896 40.7751 206.427 40.154 206.805 39.2149L207.214 39.3361C206.851 40.7448 205.942 41.6839 204.639 41.6839ZM203.049 36.5944H205.942C205.927 35.1554 205.578 34.2162 204.639 34.2162C203.776 34.2162 203.2 35.1705 203.049 36.5944Z" fill="white"/>
<path d="M197.982 41.6856L195.967 34.9601L193.998 41.6856H193.468L190.863 33.0818C190.62 32.3093 190.378 31.9912 189.727 31.9003V31.3398H192.786V31.9003C192.074 31.9912 191.893 32.2487 192.135 33.0818L194.028 39.5498L195.649 33.9149L195.407 33.1121C195.165 32.279 194.937 31.976 194.301 31.9003V31.3398H197.391V31.9003C196.634 31.976 196.407 32.2335 196.664 33.0818L198.558 39.5346L200.451 33.0818C200.724 32.2184 200.587 31.976 199.8 31.9003V31.3398H202.163V31.9003C201.511 31.9912 201.314 32.3396 201.072 33.1121L198.497 41.6856H197.982Z" fill="white"/>
<path d="M245.992 20.2493C245.992 19.7343 245.81 19.5374 245.416 19.5071L245.113 19.4919V18.9315L246.673 18.4922H247.143V20.2644C247.431 19.1738 248.173 18.4922 249.097 18.4922C250.612 18.4922 251.581 20.2039 251.581 22.2639C251.581 25.051 250.309 26.5355 248.734 26.5355C248.143 26.5355 247.567 26.278 247.143 25.869V27.9139C247.143 28.535 247.582 28.641 248.34 28.7319V29.2923H245.113V28.7319C245.84 28.6258 245.992 28.3835 245.992 27.9139V20.2493ZM247.143 23.8392C247.143 24.839 247.613 25.8993 248.658 25.8993C249.627 25.8993 250.354 24.7481 250.354 22.7941C250.354 20.8097 249.718 19.3556 248.612 19.3556C247.916 19.3556 247.385 20.1281 247.143 20.9915V23.8392Z" fill="white"/>
<path d="M241.656 26.3084V25.7479C242.398 25.6419 242.535 25.3995 242.535 24.9148V20.2343C242.535 19.7495 242.338 19.5375 241.974 19.5072L241.656 19.492V18.9316L243.232 18.4923H243.686V24.9148C243.686 25.3995 243.837 25.6419 244.565 25.7479V26.3084H241.656ZM243.11 17.3411C242.58 17.3411 242.186 16.9624 242.186 16.4625C242.186 15.9627 242.58 15.584 243.11 15.584C243.656 15.584 244.034 15.9627 244.034 16.4625C244.034 16.9624 243.656 17.3411 243.11 17.3411Z" fill="white"/>
<path d="M238.959 20.8563C238.959 19.8868 238.595 19.3415 237.868 19.3415C237.187 19.3415 236.626 19.902 236.096 20.826V24.9309C236.096 25.4005 236.248 25.6429 236.929 25.7489V26.3093H234.066V25.7489C234.809 25.6429 234.945 25.4005 234.945 24.9309V17.3572C234.945 16.8725 234.778 16.6604 234.369 16.6301L234.066 16.615V16.0545L235.642 15.6152H236.096V20.1292C236.672 19.0083 237.444 18.4933 238.353 18.4933C239.489 18.4933 240.11 19.387 240.11 20.7805V24.9309C240.11 25.4005 240.262 25.6429 240.989 25.7489V26.3093H238.141V25.7489C238.823 25.6429 238.959 25.4005 238.959 24.9309V20.8563Z" fill="white"/>
<path d="M231.078 26.5355C229.79 26.5355 228.897 25.8084 228.594 24.7329L229.715 24.2331C229.851 25.2328 230.305 25.9447 231.108 25.9447C231.866 25.9447 232.381 25.3994 232.365 24.6269C232.35 22.5669 228.76 23.2333 228.76 20.5522C228.76 19.3404 229.7 18.4922 231.017 18.4922C232.169 18.4922 232.956 19.0375 233.274 20.0069L232.153 20.5068C231.972 19.5525 231.548 19.0678 230.881 19.0678C230.215 19.0678 229.73 19.5222 229.73 20.219C229.73 22.1427 233.335 21.4308 233.335 24.324C233.335 25.6266 232.35 26.5355 231.078 26.5355Z" fill="white"/>
<path d="M225.819 24.9147C225.819 25.5055 226.061 25.6569 227.015 25.7478V26.3083H223.789V25.7478C224.531 25.6418 224.668 25.4146 224.668 24.9147V20.2341C224.668 19.7646 224.501 19.5374 224.107 19.5071L223.789 19.4919V18.9315L225.349 18.4922H225.819V20.4917C226.198 19.2344 226.864 18.4922 227.621 18.4922C227.833 18.4922 227.985 18.5376 228.136 18.6134L228.076 19.7949C227.879 19.6434 227.652 19.598 227.394 19.598C226.788 19.598 226.198 20.2947 225.819 21.3096V24.9147Z" fill="white"/>
<path d="M220.377 26.5355C218.575 26.5355 217.605 24.8541 217.605 22.7183C217.605 20.2341 218.802 18.4922 220.544 18.4922C222.195 18.4922 222.922 20.113 222.877 22.0518H218.757C218.757 22.0973 218.757 22.1276 218.757 22.173C218.757 24.0967 219.378 25.6266 220.741 25.6266C221.635 25.6266 222.165 25.0056 222.544 24.0665L222.953 24.1876C222.589 25.5963 221.68 26.5355 220.377 26.5355ZM218.787 21.4459H221.68C221.665 20.0069 221.317 19.0678 220.377 19.0678C219.514 19.0678 218.938 20.0221 218.787 21.4459Z" fill="white"/>
<path d="M212.918 26.5366C211.404 26.5366 210.449 24.8097 210.449 22.7648C210.449 19.9474 211.722 18.4933 213.282 18.4933C213.888 18.4933 214.463 18.7356 214.887 19.1597V17.3572C214.887 16.8725 214.691 16.6604 214.312 16.6301L214.009 16.615V16.0545L215.569 15.6152H216.039V24.8855C216.039 25.3702 216.22 25.5974 216.599 25.6277L216.917 25.6429V26.1882L215.387 26.5366H214.887V24.7492C214.6 25.8246 213.857 26.5366 212.918 26.5366ZM214.887 23.9615V21.1895C214.887 20.1898 214.403 19.1143 213.373 19.1143C212.403 19.1143 211.676 20.3109 211.676 22.2347C211.676 24.1887 212.297 25.658 213.403 25.658C214.115 25.658 214.675 24.8249 214.887 23.9615Z" fill="white"/>
<path d="M205.86 26.5355C204.785 26.5355 204.027 25.763 204.027 24.6421C204.027 23.2636 204.997 22.476 206.784 22.0215L207.754 21.7792V21.0976C207.754 19.8555 207.329 19.0678 206.39 19.0678C205.391 19.0678 204.921 20.0372 205.345 21.249L204.224 21.6429C203.603 20.0524 204.739 18.4922 206.557 18.4922C208.102 18.4922 208.905 19.5525 208.905 21.1127V24.8844C208.905 25.3691 209.087 25.5963 209.465 25.6266L209.768 25.6418V26.1871L208.253 26.5355H207.754V24.8844C207.496 25.9296 206.814 26.5355 205.86 26.5355ZM206.315 25.7024C207.042 25.7024 207.542 25.0359 207.754 24.1119V22.3699L206.966 22.582C205.83 22.9001 205.239 23.4757 205.239 24.3997C205.239 25.1874 205.694 25.7024 206.315 25.7024Z" fill="white"/>
<path d="M200.483 26.5355C198.68 26.5355 197.711 24.8541 197.711 22.7183C197.711 20.2341 198.908 18.4922 200.65 18.4922C202.301 18.4922 203.028 20.113 202.982 22.0518H198.862C198.862 22.0973 198.862 22.1276 198.862 22.173C198.862 24.0967 199.483 25.6266 200.846 25.6266C201.74 25.6266 202.27 25.0056 202.649 24.0665L203.058 24.1876C202.694 25.5963 201.786 26.5355 200.483 26.5355ZM198.892 21.4459H201.786C201.77 20.0069 201.422 19.0678 200.483 19.0678C199.62 19.0678 199.044 20.0221 198.892 21.4459Z" fill="white"/>
<path d="M190.164 26.308V25.7475C190.952 25.6566 191.255 25.3991 191.255 24.7023V17.7951C191.255 17.0983 190.952 16.8256 190.164 16.7499V16.1895H193.557V16.7499C192.769 16.8256 192.466 17.0983 192.466 17.7951V24.7023C192.466 25.384 192.618 25.7021 193.3 25.7021H194.966C195.875 25.7021 196.208 25.0659 196.602 23.5208H197.162L196.708 26.308H190.164Z" fill="white"/>
<path d="M225.647 5.71066C225.647 4.74122 225.283 4.19591 224.556 4.19591C223.874 4.19591 223.314 4.75637 222.784 5.68037V9.78533C222.784 10.2549 222.935 10.4973 223.617 10.6033V11.1637H220.754V10.6033C221.496 10.4973 221.632 10.2549 221.632 9.78533V5.08961C221.632 4.6049 221.451 4.39283 221.072 4.36254L220.754 4.34739V3.78693L222.329 3.34766H222.784V4.98358C223.359 3.86267 224.132 3.34766 225.041 3.34766C226.177 3.34766 226.798 4.24136 226.798 5.63492V9.78533C226.798 10.2549 226.949 10.4973 227.676 10.6033V11.1637H224.829V10.6033C225.51 10.4973 225.647 10.2549 225.647 9.78533V5.71066Z" fill="white"/>
<path d="M216.982 14.3736C215.331 14.3736 214.18 13.6465 214.18 12.4347C214.18 11.5259 214.801 10.9351 215.346 10.6473C214.922 10.3444 214.77 9.90507 214.77 9.52639C214.77 8.93564 215.134 8.36003 215.588 7.9662C214.998 7.52692 214.649 6.79984 214.649 5.93644C214.649 4.3914 215.694 3.34622 217.149 3.34622C217.558 3.34622 217.951 3.43711 218.285 3.60373L220.178 3.30078V4.16419H218.997C219.375 4.61861 219.602 5.22451 219.602 5.93644C219.602 7.43604 218.572 8.48121 217.149 8.48121C216.709 8.48121 216.315 8.39033 215.967 8.20856C215.77 8.45092 215.634 8.75387 215.634 9.05682C215.634 9.51124 215.922 9.81419 216.649 9.85963L218.254 9.99596C219.496 10.0868 220.148 10.8442 220.148 11.9045C220.148 13.4041 218.845 14.3736 216.982 14.3736ZM215.861 10.9048C215.588 11.1775 215.24 11.5713 215.24 12.162C215.24 13.2224 216.013 13.7677 217.239 13.7677C218.436 13.7677 219.269 13.2224 219.269 12.3287C219.269 11.6925 218.981 11.2683 217.906 11.1623L216.497 11.026C216.255 11.0108 216.043 10.9654 215.861 10.9048ZM217.224 7.89046C217.936 7.89046 218.421 7.22397 218.421 6.22424C218.421 4.78523 217.83 3.93697 217.012 3.93697C216.315 3.93697 215.831 4.60346 215.831 5.63349C215.831 7.05735 216.422 7.89046 217.224 7.89046Z" fill="white"/>
<path d="M210.922 11.1619V10.6014C211.664 10.4954 211.8 10.2531 211.8 9.76833V5.08777C211.8 4.60305 211.604 4.39099 211.24 4.36069L210.922 4.34554V3.78509L212.497 3.34581H212.952V9.76833C212.952 10.2531 213.103 10.4954 213.83 10.6014V11.1619H210.922ZM212.376 2.1946C211.846 2.1946 211.452 1.81592 211.452 1.31605C211.452 0.816186 211.846 0.4375 212.376 0.4375C212.921 0.4375 213.3 0.816186 213.3 1.31605C213.3 1.81592 212.921 2.1946 212.376 2.1946Z" fill="white"/>
<path d="M207.797 11.391C206.509 11.391 205.615 10.6639 205.312 9.58841L206.433 9.08854C206.57 10.0883 207.024 10.8002 207.827 10.8002C208.584 10.8002 209.099 10.2549 209.084 9.48238C209.069 7.42232 205.479 8.08881 205.479 5.40771C205.479 4.19591 206.418 3.34766 207.736 3.34766C208.887 3.34766 209.675 3.89297 209.993 4.8624L208.872 5.36227C208.69 4.40798 208.266 3.92326 207.6 3.92326C206.933 3.92326 206.449 4.37768 206.449 5.07447C206.449 6.99819 210.054 6.28626 210.054 9.17943C210.054 10.4821 209.069 11.391 207.797 11.391Z" fill="white"/>
<path d="M201.932 11.391C200.13 11.391 199.16 9.70959 199.16 7.5738C199.16 5.08961 200.357 3.34766 202.099 3.34766C203.75 3.34766 204.477 4.96843 204.431 6.90731H200.311C200.311 6.95275 200.311 6.98305 200.311 7.02849C200.311 8.95222 200.932 10.4821 202.296 10.4821C203.189 10.4821 203.72 9.86106 204.098 8.92192L204.507 9.0431C204.144 10.4518 203.235 11.391 201.932 11.391ZM200.342 6.30141H203.235C203.22 4.8624 202.871 3.92326 201.932 3.92326C201.069 3.92326 200.493 4.87755 200.342 6.30141Z" fill="white"/>
<path d="M193.709 1.04297C196.526 1.04297 198.192 3.11817 198.192 5.75383C198.192 8.99539 196.268 11.1615 193.815 11.1615H190.164V10.601C190.952 10.5101 191.255 10.2526 191.255 9.55584V2.6486C191.255 1.95182 190.952 1.67916 190.164 1.60342V1.04297H193.709ZM193.815 10.5556C195.572 10.5556 196.844 8.87421 196.844 6.05678C196.844 3.42112 195.451 1.64887 193.542 1.64887H192.466V9.66187C192.466 10.3284 192.769 10.5556 193.815 10.5556Z" fill="white"/>
<path d="M14.3792 12.8332V0H0V13.4388L0.00380123 15.4344C0.0323982 17.5827 0.733871 19.6773 2.02352 21.4655C3.31317 23.2537 5.13585 24.6589 7.27148 25.5115L14.3792 12.8332Z" fill="#FA4848"/>
<path d="M22.3171 0.18661C21.8733 0.461852 21.5264 0.954737 21.5264 0.954737L14.3789 12.6175V25.5115C17.0593 25.0173 19.4717 23.7086 21.2151 21.8029C22.9584 19.8972 23.9275 17.5094 23.9613 15.0367H23.9651V0.0219501C23.9651 0.0219501 22.7612 -0.0886316 22.3171 0.18661Z" fill="#FA4848"/>
<path d="M31.1406 0V16.0148C31.1406 17.2997 31.3376 18.5262 31.7314 19.6943C32.1516 20.8391 32.7949 21.8436 33.6615 22.708C34.5542 23.5724 35.6834 24.2616 37.0488 24.7756C38.4405 25.2662 40.108 25.5115 42.0511 25.5115C44.0205 25.5115 45.6879 25.2662 47.0534 24.7756C48.4451 24.2616 49.5742 23.5724 50.4407 22.708C51.3335 21.8436 51.9769 20.8391 52.3707 19.6943C52.7909 18.5262 53.0009 17.2997 53.0009 16.0148V0H50.3226V15.4891C50.3226 16.9376 50.1388 18.1758 49.7711 19.2037C49.4035 20.2083 48.8652 21.0377 48.1562 21.6918C47.4472 22.3226 46.5807 22.7898 45.5566 23.0935C44.5325 23.3739 43.364 23.514 42.0511 23.514C40.7644 23.514 39.609 23.3739 38.585 23.0935C37.5609 22.7898 36.6943 22.3226 35.9853 21.6918C35.2764 21.0377 34.7381 20.2083 34.3704 19.2037C34.0028 18.1758 33.819 16.9376 33.819 15.4891V0H31.1406Z" fill="white"/>
<path d="M55.2685 0L64.8004 12.125L54.7171 25.0209H57.7106L66.3759 13.9823L74.9231 25.0209H78.1529L67.9908 12.1951L77.6015 0H74.608L66.3759 10.4779L58.4196 0H55.2685Z" fill="white"/>
<path d="M80.4067 0V25.0209H83.085V0H80.4067Z" fill="white"/>
<path d="M88.508 0V25.0209H91.1864V3.85476H91.2651L107.651 25.0209H110.644V0H107.966V21.1661H107.887L91.5015 0H88.508Z" fill="white"/>
<path d="M115.887 0V25.0209H125.615C129.896 24.9275 133.112 23.8645 135.265 21.832C137.445 19.7761 138.535 16.6689 138.535 12.5105C138.535 8.35198 137.445 5.25649 135.265 3.22398C133.112 1.16811 129.896 0.0934489 125.615 0H115.887ZM118.565 22.9884V2.03251H124.276C126.298 2.03251 128.031 2.23109 129.475 2.62825C130.946 3.00204 132.154 3.60946 133.099 4.4505C134.044 5.29154 134.74 6.37788 135.187 7.70952C135.633 9.04117 135.856 10.6415 135.856 12.5105C135.856 14.3794 135.633 15.9797 135.187 17.3114C134.74 18.643 134.044 19.7294 133.099 20.5704C132.154 21.4114 130.946 22.0305 129.475 22.4277C128.031 22.8015 126.298 22.9884 124.276 22.9884H118.565Z" fill="white"/>
<path d="M142.654 0V25.0209H145.332V0H142.654Z" fill="white"/>
<path d="M154.772 15.2088L160.405 2.38294L165.84 15.2088H154.772ZM159.026 0L147.722 25.0209H150.558L153.945 17.2413H166.746L170.173 25.0209H173.048L162.02 0H159.026Z" fill="white"/>
<path d="M169.185 40.1247C168.698 40.1247 168.269 40.0281 167.9 39.8349C167.538 39.6417 167.257 39.3435 167.055 38.9403C166.862 38.5371 166.766 38.0331 166.766 37.4283V33.623H167.824V37.3149C167.824 37.9449 167.963 38.4195 168.24 38.7387C168.517 39.0579 168.908 39.2175 169.412 39.2175C169.764 39.2175 170.084 39.1335 170.369 38.9655C170.655 38.7891 170.877 38.5413 171.037 38.2221C171.205 37.8945 171.289 37.4955 171.289 37.0251V33.623H172.347V39.9735H171.39L171.327 38.8647C171.134 39.2595 170.848 39.5703 170.47 39.7971C170.092 40.0155 169.664 40.1247 169.185 40.1247Z" fill="white"/>
<path d="M162.211 39.9724V33.6219H163.169L163.244 34.8315C163.387 34.5459 163.568 34.3023 163.786 34.1007C164.013 33.8991 164.282 33.7437 164.592 33.6345C164.912 33.5253 165.273 33.4707 165.676 33.4707V34.5795H165.285C165.017 34.5795 164.76 34.6173 164.517 34.6929C164.273 34.7601 164.055 34.8735 163.862 35.0331C163.677 35.1927 163.53 35.4111 163.421 35.6883C163.32 35.9571 163.269 36.2931 163.269 36.6963V39.9724H162.211Z" fill="white"/>
<path d="M157.294 40.1247C156.807 40.1247 156.379 40.0281 156.009 39.8349C155.648 39.6417 155.366 39.3435 155.165 38.9403C154.972 38.5371 154.875 38.0331 154.875 37.4283V33.623H155.933V37.3149C155.933 37.9449 156.072 38.4195 156.349 38.7387C156.626 39.0579 157.017 39.2175 157.521 39.2175C157.874 39.2175 158.193 39.1335 158.479 38.9655C158.764 38.7891 158.987 38.5413 159.146 38.2221C159.314 37.8945 159.398 37.4955 159.398 37.0251V33.623H160.457V39.9735H159.499L159.436 38.8647C159.243 39.2595 158.957 39.5703 158.579 39.7971C158.201 40.0155 157.773 40.1247 157.294 40.1247Z" fill="white"/>
<path d="M152.184 39.9725V30.9004H153.242V39.9725H152.184Z" fill="white"/>
<path d="M147.396 40.1236C146.883 40.1236 146.455 40.0354 146.11 39.859C145.766 39.6742 145.51 39.4348 145.342 39.1408C145.174 38.8384 145.09 38.5108 145.09 38.158C145.09 37.7295 145.199 37.3683 145.417 37.0743C145.644 36.7719 145.959 36.5451 146.362 36.3939C146.774 36.2343 147.257 36.1545 147.811 36.1545H149.487C149.487 35.7597 149.424 35.4321 149.298 35.1717C149.181 34.9029 149.004 34.7013 148.769 34.5669C148.542 34.4325 148.257 34.3653 147.912 34.3653C147.509 34.3653 147.16 34.4661 146.866 34.6677C146.572 34.8693 146.392 35.1675 146.325 35.5623H145.241C145.291 35.1087 145.443 34.7307 145.695 34.4283C145.955 34.1175 146.283 33.8823 146.677 33.7227C147.072 33.5547 147.484 33.4707 147.912 33.4707C148.5 33.4707 148.987 33.5799 149.374 33.7983C149.769 34.0083 150.063 34.3065 150.256 34.6929C150.449 35.0709 150.546 35.5203 150.546 36.0411V39.9724H149.601L149.538 38.851C149.454 39.0274 149.344 39.1954 149.21 39.355C149.084 39.5062 148.933 39.6406 148.756 39.7582C148.58 39.8674 148.378 39.9556 148.152 40.0228C147.933 40.09 147.681 40.1236 147.396 40.1236ZM147.559 39.229C147.853 39.229 148.118 39.1702 148.353 39.0526C148.597 38.9266 148.803 38.7586 148.971 38.5486C149.139 38.3302 149.265 38.0908 149.349 37.8303C149.441 37.5699 149.487 37.2969 149.487 37.0113V36.9735H147.9C147.488 36.9735 147.156 37.0239 146.904 37.1247C146.652 37.2171 146.472 37.3515 146.362 37.5279C146.253 37.6959 146.199 37.8892 146.199 38.1076C146.199 38.3344 146.249 38.5318 146.35 38.6998C146.459 38.8678 146.614 38.998 146.816 39.0904C147.026 39.1828 147.274 39.229 147.559 39.229Z" fill="white"/>
<path d="M140.813 42.8956C140.242 42.8956 139.734 42.82 139.288 42.6688C138.852 42.526 138.511 42.3034 138.268 42.001C138.024 41.6986 137.902 41.3248 137.902 40.8796C137.902 40.6864 137.94 40.4806 138.016 40.2622C138.1 40.0438 138.238 39.8296 138.432 39.6196C138.633 39.4096 138.915 39.2206 139.276 39.0526L140.007 39.481C139.561 39.6658 139.272 39.8758 139.137 40.111C139.003 40.3546 138.936 40.5772 138.936 40.7788C138.936 41.056 139.015 41.287 139.175 41.4718C139.335 41.6566 139.557 41.7952 139.843 41.8876C140.128 41.98 140.452 42.0262 140.813 42.0262C141.174 42.0262 141.485 41.9758 141.745 41.875C142.006 41.7742 142.207 41.6314 142.35 41.4466C142.493 41.2618 142.564 41.0434 142.564 40.7914C142.564 40.4974 142.455 40.2496 142.237 40.048C142.018 39.8548 141.603 39.7414 140.989 39.7078C140.494 39.6742 140.078 39.628 139.742 39.5692C139.406 39.5104 139.129 39.4432 138.91 39.3676C138.692 39.2836 138.507 39.1912 138.356 39.0904C138.213 38.9896 138.083 38.8846 137.965 38.7754V38.4856L139.188 37.2759L140.107 37.6035L138.847 38.7376L139.011 38.2966C139.104 38.3638 139.192 38.4268 139.276 38.4856C139.36 38.5444 139.473 38.5948 139.616 38.6368C139.759 38.6788 139.956 38.7166 140.208 38.7502C140.469 38.7838 140.809 38.8174 141.229 38.851C141.808 38.893 142.27 38.9938 142.615 39.1534C142.968 39.313 143.22 39.5272 143.371 39.796C143.53 40.0648 143.61 40.384 143.61 40.7536C143.61 41.1148 143.509 41.455 143.308 41.7742C143.115 42.1018 142.812 42.3706 142.401 42.5806C141.989 42.7906 141.46 42.8956 140.813 42.8956ZM140.8 37.9816C140.271 37.9816 139.818 37.8808 139.44 37.6791C139.07 37.4775 138.789 37.2087 138.595 36.8727C138.402 36.5283 138.306 36.1461 138.306 35.7261C138.306 35.3061 138.402 34.9281 138.595 34.5921C138.797 34.2561 139.083 33.9873 139.452 33.7857C139.822 33.5757 140.271 33.4707 140.8 33.4707C141.33 33.4707 141.779 33.5757 142.149 33.7857C142.518 33.9873 142.8 34.2561 142.993 34.5921C143.186 34.9281 143.283 35.3061 143.283 35.7261C143.283 36.1461 143.186 36.5283 142.993 36.8727C142.8 37.2087 142.518 37.4775 142.149 37.6791C141.779 37.8808 141.33 37.9816 140.8 37.9816ZM140.8 37.1121C141.254 37.1121 141.611 36.9945 141.871 36.7593C142.132 36.5241 142.262 36.1797 142.262 35.7261C142.262 35.2809 142.132 34.9407 141.871 34.7055C141.611 34.4703 141.254 34.3527 140.8 34.3527C140.355 34.3527 139.994 34.4703 139.717 34.7055C139.448 34.9407 139.314 35.2809 139.314 35.7261C139.314 36.1797 139.448 36.5241 139.717 36.7593C139.986 36.9945 140.347 37.1121 140.8 37.1121ZM141.834 34.5165L141.519 33.6219H144.114V34.4157L141.834 34.5165Z" fill="white"/>
<path d="M131.07 39.9724V33.6219H132.028L132.078 34.7307C132.28 34.3359 132.566 34.0293 132.935 33.8109C133.313 33.5841 133.742 33.4707 134.22 33.4707C134.716 33.4707 135.144 33.5715 135.506 33.7731C135.867 33.9663 136.148 34.2645 136.35 34.6677C136.551 35.0625 136.652 35.5665 136.652 36.1797V39.9724H135.594V36.2931C135.594 35.6547 135.451 35.1759 135.165 34.8567C134.888 34.5375 134.493 34.3779 133.981 34.3779C133.628 34.3779 133.313 34.4661 133.036 34.6425C132.759 34.8105 132.536 35.0583 132.368 35.3859C132.209 35.7051 132.129 36.1041 132.129 36.5829V39.9724H131.07Z" fill="white"/>
<path d="M126.694 40.1236C126.097 40.1236 125.568 39.985 125.106 39.7078C124.653 39.4306 124.296 39.0442 124.035 38.5486C123.775 38.0446 123.645 37.4607 123.645 36.7971C123.645 36.1251 123.771 35.5413 124.023 35.0457C124.283 34.5501 124.644 34.1637 125.106 33.8865C125.577 33.6093 126.114 33.4707 126.719 33.4707C127.341 33.4707 127.866 33.6093 128.294 33.8865C128.731 34.1637 129.063 34.5291 129.289 34.9827C129.525 35.4279 129.642 35.9193 129.642 36.4569C129.642 36.5409 129.642 36.6291 129.642 36.7215C129.642 36.8139 129.638 36.9189 129.63 37.0365H124.438V36.2175H128.609C128.584 35.6379 128.391 35.1843 128.029 34.8567C127.677 34.5291 127.231 34.3653 126.694 34.3653C126.333 34.3653 125.997 34.4493 125.686 34.6173C125.383 34.7769 125.14 35.0163 124.955 35.3355C124.77 35.6463 124.678 36.0369 124.678 36.5073V36.8601C124.678 37.3809 124.77 37.8177 124.955 38.1706C125.148 38.5234 125.396 38.788 125.698 38.9644C126.009 39.1408 126.341 39.229 126.694 39.229C127.139 39.229 127.504 39.1324 127.79 38.9392C128.084 38.7376 128.294 38.4688 128.42 38.1328H129.466C129.365 38.5108 129.189 38.851 128.937 39.1534C128.685 39.4558 128.37 39.6952 127.992 39.8716C127.622 40.0396 127.189 40.1236 126.694 40.1236Z" fill="white"/>
<path d="M116.379 39.9724V31.1523H119.479C120.1 31.1523 120.613 31.2531 121.016 31.4547C121.427 31.6479 121.734 31.9168 121.936 32.2612C122.137 32.5972 122.238 32.9752 122.238 33.3952C122.238 33.8488 122.137 34.2268 121.936 34.5292C121.742 34.8316 121.486 35.0626 121.167 35.2222C120.856 35.3818 120.524 35.4784 120.172 35.512L120.348 35.386C120.726 35.3944 121.075 35.4952 121.394 35.6884C121.713 35.8816 121.965 36.142 122.15 36.4696C122.343 36.7972 122.44 37.1626 122.44 37.5658C122.44 38.011 122.33 38.4184 122.112 38.788C121.894 39.1492 121.57 39.439 121.142 39.6574C120.722 39.8674 120.201 39.9724 119.579 39.9724H116.379ZM117.437 39.0904H119.466C120.062 39.0904 120.524 38.9518 120.852 38.6746C121.188 38.389 121.356 37.9942 121.356 37.4902C121.356 36.9946 121.184 36.5998 120.839 36.3058C120.503 36.0034 120.037 35.8522 119.441 35.8522H117.437V39.0904ZM117.437 35.008H119.403C119.974 35.008 120.407 34.8736 120.701 34.6048C121.003 34.336 121.154 33.9706 121.154 33.5086C121.154 33.0634 121.003 32.7064 120.701 32.4376C120.407 32.1688 119.962 32.0344 119.365 32.0344H117.437V35.008Z" fill="white"/>
<path d="M110.082 41.2325V30.9004H111.14V41.2325H110.082Z" fill="white"/>
<path d="M102.008 39.9724V33.6219H102.965L103.041 34.8315C103.184 34.5459 103.364 34.3023 103.583 34.1007C103.81 33.8991 104.078 33.7437 104.389 33.6345C104.708 33.5253 105.07 33.4707 105.473 33.4707V34.5795H105.082C104.813 34.5795 104.557 34.6173 104.314 34.6929C104.07 34.7601 103.852 34.8735 103.658 35.0331C103.474 35.1927 103.327 35.4111 103.217 35.6883C103.117 35.9571 103.066 36.2931 103.066 36.6963V39.9724H102.008Z" fill="white"/>
<path d="M97.6313 40.1236C97.0349 40.1236 96.5057 39.985 96.0436 39.7078C95.59 39.4306 95.233 39.0442 94.9726 38.5486C94.7122 38.0446 94.582 37.4607 94.582 36.7971C94.582 36.1251 94.708 35.5413 94.96 35.0457C95.2204 34.5501 95.5816 34.1637 96.0436 33.8865C96.5141 33.6093 97.0517 33.4707 97.6565 33.4707C98.2781 33.4707 98.8031 33.6093 99.2315 33.8865C99.6683 34.1637 100 34.5291 100.227 34.9827C100.462 35.4279 100.58 35.9193 100.58 36.4569C100.58 36.5409 100.58 36.6291 100.58 36.7215C100.58 36.8139 100.575 36.9189 100.567 37.0365H95.3758V36.2175H99.5465C99.5213 35.6379 99.3281 35.1843 98.9669 34.8567C98.6141 34.5291 98.1689 34.3653 97.6313 34.3653C97.2701 34.3653 96.9341 34.4493 96.6233 34.6173C96.3208 34.7769 96.0772 35.0163 95.8924 35.3355C95.7076 35.6463 95.6152 36.0369 95.6152 36.5073V36.8601C95.6152 37.3809 95.7076 37.8177 95.8924 38.1706C96.0856 38.5234 96.3334 38.788 96.6358 38.9644C96.9467 39.1408 97.2785 39.229 97.6313 39.229C98.0765 39.229 98.4419 39.1324 98.7275 38.9392C99.0215 38.7376 99.2315 38.4688 99.3575 38.1328H100.403C100.302 38.5108 100.126 38.851 99.8741 39.1534C99.6221 39.4558 99.3071 39.6952 98.9291 39.8716C98.5595 40.0396 98.1269 40.1236 97.6313 40.1236Z" fill="white"/>
<path d="M90.2835 40.1237C89.9223 40.1237 89.5947 40.0733 89.3007 39.9725C89.0151 39.8633 88.7631 39.7205 88.5447 39.5441C88.3262 39.3677 88.1456 39.1619 88.0028 38.9267L87.9146 39.9725H86.957V30.9004H88.0154V34.6678C88.217 34.3402 88.5068 34.0588 88.8849 33.8236C89.2629 33.5884 89.7291 33.4708 90.2835 33.4708C90.8967 33.4708 91.4343 33.6178 91.8963 33.9118C92.3583 34.1974 92.7153 34.5922 92.9673 35.0962C93.2277 35.5918 93.3579 36.1588 93.3579 36.7973C93.3579 37.4357 93.2277 38.0069 92.9673 38.5109C92.7153 39.0149 92.3583 39.4097 91.8963 39.6953C91.4343 39.9809 90.8967 40.1237 90.2835 40.1237ZM90.1575 39.2039C90.5691 39.2039 90.9345 39.1031 91.2537 38.9015C91.5729 38.6999 91.8207 38.4227 91.9971 38.0699C92.1819 37.7087 92.2743 37.2845 92.2743 36.7973C92.2743 36.3184 92.1819 35.8984 91.9971 35.5372C91.8207 35.176 91.5729 34.8946 91.2537 34.693C90.9345 34.4914 90.5691 34.3906 90.1575 34.3906C89.7375 34.3906 89.3679 34.4914 89.0487 34.693C88.7294 34.8946 88.4816 35.176 88.3052 35.5372C88.1288 35.8984 88.0406 36.3184 88.0406 36.7973C88.0406 37.2845 88.1288 37.7087 88.3052 38.0699C88.4816 38.4227 88.7294 38.6999 89.0487 38.9015C89.3679 39.1031 89.7375 39.2039 90.1575 39.2039Z" fill="white"/>
<path d="M75.7344 39.9724V33.6219H76.692L76.755 34.5291C76.9566 34.2015 77.2254 33.9453 77.5614 33.7605C77.9058 33.5673 78.2796 33.4707 78.6828 33.4707C79.0104 33.4707 79.3044 33.5169 79.5648 33.6093C79.8336 33.6933 80.0688 33.8277 80.2704 34.0125C80.472 34.1889 80.6358 34.4157 80.7618 34.6929C80.9802 34.3065 81.2784 34.0083 81.6564 33.7983C82.0428 33.5799 82.4544 33.4707 82.8913 33.4707C83.3785 33.4707 83.8027 33.5715 84.1639 33.7731C84.5335 33.9663 84.8149 34.2645 85.0081 34.6677C85.2097 35.0625 85.3105 35.5665 85.3105 36.1797V39.9724H84.2647V36.2931C84.2647 35.6547 84.1345 35.1759 83.8741 34.8567C83.6137 34.5375 83.2483 34.3779 82.7778 34.3779C82.4502 34.3779 82.1562 34.4661 81.8958 34.6425C81.6354 34.8105 81.4296 35.0583 81.2784 35.3859C81.1272 35.7135 81.0516 36.1167 81.0516 36.5955V39.9724H79.9932V36.2931C79.9932 35.6547 79.863 35.1759 79.6026 34.8567C79.3422 34.5375 78.9726 34.3779 78.4938 34.3779C78.1746 34.3779 77.8848 34.4661 77.6244 34.6425C77.3724 34.8105 77.1708 35.0583 77.0196 35.3859C76.8684 35.7135 76.7928 36.1167 76.7928 36.5955V39.9724H75.7344Z" fill="white"/>
<path d="M71.3578 40.1236C70.7614 40.1236 70.2322 39.985 69.7702 39.7078C69.3166 39.4306 68.9596 39.0442 68.6992 38.5486C68.4388 38.0446 68.3086 37.4607 68.3086 36.7971C68.3086 36.1251 68.4346 35.5413 68.6866 35.0457C68.947 34.5501 69.3082 34.1637 69.7702 33.8865C70.2406 33.6093 70.7782 33.4707 71.383 33.4707C72.0046 33.4707 72.5296 33.6093 72.958 33.8865C73.3948 34.1637 73.7266 34.5291 73.9534 34.9827C74.1887 35.4279 74.3063 35.9193 74.3063 36.4569C74.3063 36.5409 74.3063 36.6291 74.3063 36.7215C74.3063 36.8139 74.3021 36.9189 74.2937 37.0365H69.1024V36.2175H73.273C73.2478 35.6379 73.0546 35.1843 72.6934 34.8567C72.3406 34.5291 71.8954 34.3653 71.3578 34.3653C70.9966 34.3653 70.6606 34.4493 70.3498 34.6173C70.0474 34.7769 69.8038 35.0163 69.619 35.3355C69.4342 35.6463 69.3418 36.0369 69.3418 36.5073V36.8601C69.3418 37.3809 69.4342 37.8177 69.619 38.1706C69.8122 38.5234 70.06 38.788 70.3624 38.9644C70.6732 39.1408 71.005 39.229 71.3578 39.229C71.803 39.229 72.1684 39.1324 72.454 38.9392C72.748 38.7376 72.958 38.4688 73.084 38.1328H74.1299C74.0291 38.5108 73.8526 38.851 73.6006 39.1534C73.3486 39.4558 73.0336 39.6952 72.6556 39.8716C72.286 40.0396 71.8534 40.1236 71.3578 40.1236Z" fill="white"/>
<path d="M66.3078 39.9736C65.9298 39.9736 65.6022 39.9148 65.325 39.7972C65.0478 39.6796 64.8336 39.4822 64.6824 39.205C64.5396 38.9194 64.4682 38.5372 64.4682 38.0584V34.5178H63.3594V33.6232H64.4682L64.6068 32.0859H65.5266V33.6232H67.3662V34.5178H65.5266V38.0584C65.5266 38.4532 65.6064 38.722 65.766 38.8648C65.9256 38.9992 66.207 39.0664 66.6102 39.0664H67.2906V39.9736H66.3078Z" fill="white"/>
<path d="M56.1719 42.7444V33.6219H57.1295L57.2177 34.6551C57.3521 34.4535 57.5243 34.2645 57.7343 34.0881C57.9443 33.9033 58.1963 33.7563 58.4903 33.6471C58.7843 33.5295 59.1203 33.4707 59.4983 33.4707C60.1199 33.4707 60.6575 33.6177 61.1111 33.9117C61.5731 34.2057 61.9301 34.6047 62.1821 35.1087C62.4425 35.6043 62.5727 36.1713 62.5727 36.8097C62.5727 37.4481 62.4425 38.0194 62.1821 38.5234C61.9301 39.019 61.5731 39.4096 61.1111 39.6952C60.6491 39.9808 60.1073 40.1236 59.4857 40.1236C58.9733 40.1236 58.5197 40.0186 58.1249 39.8086C57.7385 39.5986 57.4403 39.3046 57.2303 38.9266V42.7444H56.1719ZM59.3723 39.2038C59.7839 39.2038 60.1493 39.103 60.4685 38.9014C60.7877 38.6998 61.0355 38.4226 61.2119 38.0698C61.3967 37.7085 61.4891 37.2843 61.4891 36.7971C61.4891 36.3183 61.3967 35.8983 61.2119 35.5371C61.0355 35.1759 60.7877 34.8945 60.4685 34.6929C60.1493 34.4913 59.7839 34.3905 59.3723 34.3905C58.9523 34.3905 58.5827 34.4913 58.2635 34.6929C57.9443 34.8945 57.6965 35.1759 57.5201 35.5371C57.3437 35.8983 57.2555 36.3183 57.2555 36.7971C57.2555 37.2843 57.3437 37.7085 57.5201 38.0698C57.6965 38.4226 57.9443 38.6998 58.2635 38.9014C58.5827 39.103 58.9523 39.2038 59.3723 39.2038Z" fill="white"/>
<path d="M51.7914 40.1236C51.195 40.1236 50.6658 39.985 50.2038 39.7078C49.7502 39.4306 49.3932 39.0442 49.1328 38.5486C48.8724 38.0446 48.7422 37.4607 48.7422 36.7971C48.7422 36.1251 48.8682 35.5413 49.1202 35.0457C49.3806 34.5501 49.7418 34.1637 50.2038 33.8865C50.6742 33.6093 51.2118 33.4707 51.8166 33.4707C52.4382 33.4707 52.9632 33.6093 53.3916 33.8865C53.8284 34.1637 54.1602 34.5291 54.387 34.9827C54.6222 35.4279 54.7399 35.9193 54.7399 36.4569C54.7399 36.5409 54.7399 36.6291 54.7399 36.7215C54.7399 36.8139 54.7357 36.9189 54.7273 37.0365H49.536V36.2175H53.7066C53.6814 35.6379 53.4882 35.1843 53.127 34.8567C52.7742 34.5291 52.329 34.3653 51.7914 34.3653C51.4302 34.3653 51.0942 34.4493 50.7834 34.6173C50.481 34.7769 50.2374 35.0163 50.0526 35.3355C49.8678 35.6463 49.7754 36.0369 49.7754 36.5073V36.8601C49.7754 37.3809 49.8678 37.8177 50.0526 38.1706C50.2458 38.5234 50.4936 38.788 50.796 38.9644C51.1068 39.1408 51.4386 39.229 51.7914 39.229C52.2366 39.229 52.602 39.1324 52.8876 38.9392C53.1816 38.7376 53.3916 38.4688 53.5176 38.1328H54.5635C54.4626 38.5108 54.2862 38.851 54.0342 39.1534C53.7822 39.4558 53.4672 39.6952 53.0892 39.8716C52.7196 40.0396 52.287 40.1236 51.7914 40.1236Z" fill="white"/>
<path d="M44.5746 40.1245C43.9277 40.1245 43.3649 40.0068 42.8861 39.7716C42.4073 39.5364 42.0377 39.2088 41.7773 38.7888C41.5169 38.3688 41.3867 37.8816 41.3867 37.3272H42.4955C42.4955 37.6716 42.5753 37.9908 42.7349 38.2848C42.8945 38.5704 43.1255 38.8014 43.4279 38.9778C43.7387 39.1458 44.1209 39.2298 44.5746 39.2298C44.9694 39.2298 45.3054 39.1668 45.5826 39.0408C45.8682 38.9064 46.0824 38.7258 46.2252 38.499C46.3764 38.2722 46.452 38.016 46.452 37.7304C46.452 37.386 46.3764 37.1088 46.2252 36.8988C46.0824 36.6804 45.885 36.504 45.633 36.3696C45.381 36.2352 45.087 36.1176 44.751 36.0168C44.4233 35.9076 44.0789 35.7942 43.7177 35.6766C43.0205 35.4414 42.5081 35.1474 42.1805 34.7946C41.8529 34.4418 41.6891 33.984 41.6891 33.4212C41.6891 32.9424 41.7983 32.5224 42.0167 32.1612C42.2435 31.8 42.5627 31.5186 42.9743 31.317C43.3943 31.107 43.8899 31.002 44.4611 31.002C45.024 31.002 45.5112 31.107 45.9228 31.317C46.3428 31.527 46.6704 31.8168 46.9056 32.1864C47.1408 32.5476 47.2584 32.9676 47.2584 33.4464H46.1496C46.1496 33.2028 46.0866 32.9634 45.9606 32.7282C45.8346 32.493 45.6414 32.2998 45.381 32.1486C45.129 31.989 44.8098 31.9092 44.4234 31.9092C44.1041 31.9008 43.8185 31.9554 43.5665 32.073C43.3229 32.1822 43.1297 32.3418 42.9869 32.5518C42.8525 32.7618 42.7853 33.018 42.7853 33.3204C42.7853 33.606 42.8441 33.837 42.9617 34.0134C43.0877 34.1898 43.2641 34.341 43.4909 34.467C43.7261 34.5846 43.9991 34.6938 44.3099 34.7946C44.6208 34.8954 44.9652 35.0088 45.3432 35.1348C45.7716 35.2776 46.1496 35.454 46.4772 35.664C46.8132 35.8656 47.0736 36.126 47.2584 36.4452C47.4516 36.7644 47.5482 37.1718 47.5482 37.6674C47.5482 38.0874 47.4348 38.4864 47.208 38.8644C46.9896 39.234 46.662 39.5364 46.2252 39.7716C45.7884 40.0068 45.2382 40.1245 44.5746 40.1245Z" fill="white"/>
<path d="M32.4806 39.9724L35.9205 32.0596H31.082V31.1523H37.0041V31.9462L33.6021 39.9724H32.4806Z" fill="white"/>
<path d="M24.4961 39.9732V39.2298C25.0925 38.7594 25.6595 38.2848 26.1971 37.806C26.7431 37.3272 27.2261 36.8526 27.6461 36.3822C28.0661 35.9034 28.3937 35.4372 28.6289 34.9836C28.8725 34.53 28.9943 34.0932 28.9943 33.6732C28.9943 33.3624 28.9397 33.0768 28.8305 32.8164C28.7213 32.5476 28.5449 32.3292 28.3013 32.1612C28.0661 31.9932 27.7469 31.9092 27.3437 31.9092C26.9489 31.9092 26.6213 31.9974 26.3609 32.1738C26.1005 32.3418 25.9031 32.5686 25.7687 32.8542C25.6427 33.1314 25.5797 33.438 25.5797 33.774H24.5591C24.5675 33.1944 24.6893 32.6988 24.9245 32.2872C25.1681 31.8672 25.4999 31.548 25.9199 31.3296C26.3399 31.1112 26.8187 31.002 27.3563 31.002C27.8855 31.002 28.3517 31.1028 28.7549 31.3044C29.1581 31.4976 29.4731 31.7874 29.6999 32.1738C29.9352 32.5602 30.0528 33.0474 30.0528 33.6354C30.0528 34.047 29.9646 34.4586 29.7882 34.8702C29.6202 35.2818 29.3933 35.685 29.1077 36.0798C28.8221 36.4662 28.5029 36.84 28.1501 37.2012C27.8057 37.5624 27.4487 37.9026 27.0791 38.2218C26.7179 38.541 26.3777 38.8308 26.0585 39.0912H30.3552V39.9732H24.4961Z" fill="white"/>
<path d="M17.7812 36.6954V35.8008H22.7709V36.6954H17.7812Z" fill="white"/>
<path d="M13.1195 40.1245C12.5567 40.1245 12.0443 40.0237 11.5823 39.822C11.1287 39.612 10.7675 39.3012 10.4987 38.8896C10.2299 38.478 10.0871 37.9656 10.0703 37.3524H11.1413C11.1497 37.6884 11.2295 37.9992 11.3807 38.2848C11.5403 38.562 11.7671 38.7846 12.0611 38.9526C12.3551 39.1206 12.7079 39.2046 13.1195 39.2046C13.5311 39.2046 13.8756 39.1248 14.1528 38.9652C14.43 38.8056 14.64 38.5956 14.7828 38.3352C14.9256 38.0664 14.997 37.7682 14.997 37.4406C14.997 37.029 14.8962 36.6972 14.6946 36.4452C14.5014 36.1848 14.2368 35.9958 13.9008 35.8782C13.5732 35.7522 13.2119 35.6892 12.8171 35.6892H12.1619V34.7946H12.8171C13.3967 34.7946 13.8504 34.6602 14.178 34.3914C14.5056 34.1226 14.6694 33.753 14.6694 33.2826C14.6694 32.8962 14.5392 32.5728 14.2788 32.3124C14.0268 32.052 13.6404 31.9218 13.1195 31.9218C12.6239 31.9218 12.2291 32.0646 11.9351 32.3502C11.6411 32.6358 11.4731 33.0012 11.4311 33.4464H10.3601C10.3853 32.9676 10.5155 32.5434 10.7507 32.1738C10.9859 31.8042 11.3051 31.5186 11.7083 31.317C12.1115 31.107 12.5861 31.002 13.1321 31.002C13.7034 31.002 14.1822 31.1028 14.5686 31.3044C14.955 31.506 15.2448 31.7748 15.438 32.1108C15.6396 32.4468 15.7404 32.8164 15.7404 33.2196C15.7404 33.522 15.6858 33.8076 15.5766 34.0764C15.4674 34.3368 15.3036 34.5678 15.0852 34.7694C14.8668 34.971 14.5896 35.1138 14.2536 35.1978C14.598 35.265 14.9046 35.3952 15.1734 35.5884C15.4506 35.7816 15.669 36.0336 15.8286 36.3444C15.9882 36.6552 16.068 37.0206 16.068 37.4406C16.068 37.9194 15.9546 38.3646 15.7278 38.7762C15.5094 39.1794 15.1818 39.507 14.745 39.759C14.3082 40.0026 13.7664 40.1245 13.1195 40.1245Z" fill="white"/>
<path d="M2.97656 39.9732V39.2298C3.57297 38.7594 4.13998 38.2848 4.67758 37.806C5.22359 37.3272 5.70659 36.8526 6.1266 36.3822C6.5466 35.9034 6.8742 35.4372 7.10941 34.9836C7.35301 34.53 7.47481 34.0932 7.47481 33.6732C7.47481 33.3624 7.42021 33.0768 7.31101 32.8164C7.20181 32.5476 7.02541 32.3292 6.7818 32.1612C6.5466 31.9932 6.2274 31.9092 5.82419 31.9092C5.42939 31.9092 5.10179 31.9974 4.84138 32.1738C4.58098 32.3418 4.38358 32.5686 4.24918 32.8542C4.12317 33.1314 4.06017 33.438 4.06017 33.774H3.03956C3.04796 33.1944 3.16976 32.6988 3.40497 32.2872C3.64857 31.8672 3.98037 31.548 4.40038 31.3296C4.82038 31.1112 5.29919 31.002 5.83679 31.002C6.366 31.002 6.8322 31.1028 7.23541 31.3044C7.63861 31.4976 7.95362 31.7874 8.18042 32.1738C8.41562 32.5602 8.53322 33.0474 8.53322 33.6354C8.53322 34.047 8.44502 34.4586 8.26862 34.8702C8.10062 35.2818 7.87381 35.685 7.58821 36.0798C7.30261 36.4662 6.98341 36.84 6.6306 37.2012C6.2862 37.5624 5.92919 37.9026 5.55959 38.2218C5.19839 38.541 4.85818 38.8308 4.53898 39.0912H8.83563V39.9732H2.97656Z" fill="white"/>
</svg>
