<svg xmlns="http://www.w3.org/2000/svg" width="87" height="46" viewBox="0 0 87 46" fill="none">
<path d="M67.1818 14.3027C66.2633 15.0003 65.0823 15.4124 63.8029 15.4124C60.8506 15.4124 58.4559 13.1613 58.4559 10.4029C58.4559 7.64453 60.8834 5.39343 63.8357 5.39343C65.1151 5.39343 66.2961 5.8056 67.2146 6.50313L68.3627 5.39343C67.149 4.41055 65.5744 3.83984 63.8685 3.83984C60.0305 3.83984 56.9141 6.78848 56.9141 10.4029C56.9141 14.0174 60.0305 16.966 63.8685 16.966C65.5744 16.966 67.149 16.3636 68.3627 15.4124L67.1818 14.3027Z" fill="black"/>
<path d="M46.6458 25.9619C47.2035 25.9619 47.6628 25.518 47.6628 24.979C47.6628 24.44 47.2035 23.9961 46.6458 23.9961C46.0882 23.9961 45.6289 24.44 45.6289 24.979C45.6289 25.518 46.0882 25.9619 46.6458 25.9619Z" fill="#FE414D"/>
<path d="M47.4668 27.8359H45.8594V40.9304H47.4668V27.8359Z" fill="#FE414D"/>
<path d="M13.1217 10.3712C13.1217 6.78848 10.1693 3.83984 6.56083 3.83984C4.62539 3.83984 2.82116 4.66419 1.6074 6.09095V3.83984H0V21.6585H1.6074V14.6515C2.85396 16.11 4.62539 16.9343 6.56083 16.9343C10.1693 16.9343 13.1217 13.9857 13.1217 10.3712ZM6.56083 15.3807C3.87089 15.3807 1.70582 13.2565 1.6074 10.5615V10.3712C1.6074 7.61283 3.80528 5.39343 6.56083 5.39343C9.31638 5.39343 11.5143 7.61283 11.5143 10.3712C11.5143 13.1296 9.28358 15.3807 6.56083 15.3807Z" fill="black"/>
<path d="M19.0569 40.9343C20.9924 40.9343 22.7638 40.11 24.0104 38.6515V40.9343H25.6178V27.8398H24.0104V30.091C22.7638 28.6642 20.9924 27.8398 19.0569 27.8398C15.4485 27.8398 12.4961 30.7568 12.4961 34.3712C12.5289 37.9857 15.4485 40.9343 19.0569 40.9343ZM14.1035 34.3395C14.1035 31.5811 16.3342 29.3617 19.0569 29.3617C21.7797 29.3617 24.0104 31.5811 24.0104 34.3395V34.5298C23.9119 37.2247 21.7141 39.349 19.0569 39.349C16.3342 39.3807 14.1035 37.1296 14.1035 34.3395Z" fill="#FE414D"/>
<path d="M42.9068 34.34C42.9068 30.7572 39.9544 27.8086 36.346 27.8086C34.4105 27.8086 32.6063 28.6329 31.3926 30.0597V27.8086H29.7852V45.6589H31.3926V38.652C32.6391 40.1104 34.4105 40.9348 36.346 40.9348C39.9873 40.9348 42.9068 37.9861 42.9068 34.34ZM36.3788 39.3812C33.6889 39.3812 31.5238 37.2569 31.4254 34.5619V34.3717C31.4254 31.6133 33.656 29.3939 36.3788 29.3939C39.1015 29.3939 41.3322 31.6133 41.3322 34.3717C41.3322 37.1301 39.1015 39.3812 36.3788 39.3812Z" fill="#FE414D"/>
<path d="M25.0585 3.83984V11.576C25.0585 13.7003 23.3199 15.4124 21.0892 15.4124C18.8913 15.3807 17.1527 13.7003 17.1527 11.576V3.83984H15.5781V11.576C15.5781 14.5247 18.0384 16.9343 21.0892 16.9343C24.1728 16.9343 26.6659 14.5247 26.6659 11.576V3.83984H25.0585Z" fill="black"/>
<path d="M36.3772 3.8364C34.4418 3.8364 32.6704 4.66074 31.4238 6.11921V0H29.8164V16.9626H31.4238V14.7115C32.6704 16.1382 34.4418 16.9626 36.3772 16.9626C39.9857 16.9626 42.9381 14.0456 42.9381 10.4312C42.9053 6.78503 39.9857 3.8364 36.3772 3.8364ZM41.3307 10.3995C41.3307 13.1579 39.1 15.3773 36.3772 15.3773C33.6545 15.3773 31.4238 13.1579 31.4238 10.3995V10.2093C31.5222 7.51426 33.7201 5.38998 36.3772 5.38998C39.1 5.38998 41.3307 7.64109 41.3307 10.3995Z" fill="black"/>
<path d="M52.9115 1.96576C53.4691 1.96576 53.9284 1.52188 53.9284 0.982878C53.9284 0.44388 53.4691 0 52.9115 0C52.3538 0 51.8945 0.44388 51.8945 0.982878C51.8945 1.52188 52.3538 1.96576 52.9115 1.96576Z" fill="black"/>
<path d="M53.7324 3.83984H52.125V16.9343H53.7324V3.83984Z" fill="black"/>
<path d="M72.8897 1.96576C73.4473 1.96576 73.9066 1.52188 73.9066 0.982878C73.9066 0.44388 73.4473 0 72.8897 0C72.332 0 71.8727 0.44388 71.8727 0.982878C71.8399 1.52188 72.2992 1.96576 72.8897 1.96576Z" fill="black"/>
<path d="M73.6777 3.83984H72.0703V16.9343H73.6777V3.83984Z" fill="black"/>
<path d="M72.7611 27.8398C71.2521 27.8398 69.8087 28.4423 68.7918 29.4885V27.8398H67.25V40.9343H68.7918V33.1664C68.8574 31.0421 70.6288 29.33 72.7611 29.33C74.959 29.33 76.7304 31.0421 76.7304 33.1664V40.9343H78.305V33.1664C78.2722 30.2178 75.7791 27.8398 72.7611 27.8398Z" fill="#FE414D"/>
<path d="M86.5064 39.4372L86.3424 39.4689C86.1784 39.5006 85.9488 39.564 85.5551 39.564C84.899 39.564 84.6366 39.1835 84.6366 38.2641V29.3231H86.5064V27.8329H84.6366V23.4258H82.9964V27.8329H81.0938V29.3231H82.9964V38.2958C82.9964 39.2787 83.1932 39.9128 83.5541 40.3249C83.9149 40.7371 84.4726 40.9274 85.1615 40.9274C85.6863 40.9274 86.1456 40.8639 86.4408 40.7371L86.5392 40.7054L86.5064 39.4372Z" fill="#FE414D"/>
<path d="M61.6035 37.1613C60.7178 38.5564 59.1432 39.4124 57.4374 39.4124C54.8131 39.4124 52.6152 37.3833 52.4184 34.7517H63.1781C63.6046 34.7517 63.9654 34.4346 63.9654 34.0542V33.9273C63.6702 30.4714 60.8818 27.8398 57.4374 27.8398C53.7961 27.8398 50.8438 30.7885 50.8438 34.4029C50.8438 37.9857 53.7961 40.9343 57.4374 40.9343C59.6681 40.9343 61.7019 39.8246 62.9157 37.9857L61.6035 37.1613ZM57.4374 29.3617C59.7665 29.3617 61.7675 31.0104 62.2596 33.2615H52.5496C53.0744 30.947 55.0755 29.3617 57.4374 29.3617Z" fill="#FE414D"/>
<path d="M8.85481 34.6266C8.85481 34.6266 8.42836 34.3095 8.00191 34.1193C7.54265 33.929 6.91937 33.7388 5.5744 33.4218C5.37757 33.39 5.21355 33.3583 5.04953 33.2949C4.16382 33.073 3.47493 32.7876 2.95006 32.4389C2.458 32.0267 2.29398 31.6779 2.29398 31.2341C2.32679 30.7585 2.62202 30.2829 3.14689 29.9024C3.73736 29.4585 4.62308 29.2683 5.6072 29.3C6.72254 29.3317 7.57545 29.9024 8.49397 30.5365L8.59238 30.5999L9.74053 29.5537C9.60931 29.4268 9.57651 29.3951 9.18286 29.1415C8.26434 28.5391 7.149 27.905 5.64001 27.8415C4.32784 27.7781 3.17969 28.0318 2.26118 28.6025C1.27705 29.2366 0.653773 30.1561 0.653773 31.1389C0.653773 31.8682 0.78499 32.5657 1.57229 33.2632C2.49081 34.1193 3.90139 34.5632 5.18075 34.7851C6.29609 35.007 7.31302 35.3875 7.83789 35.7997C8.46116 36.3387 8.65799 36.7509 8.65799 37.3216C8.62519 37.8606 8.26434 38.3678 7.64106 38.7483C7.01778 39.1922 6.09927 39.4458 5.18075 39.4141C3.93419 39.3507 2.65483 38.8434 1.37546 37.8606L1.27705 37.7971L0.128906 38.8117L0.227319 38.9068C1.73631 40.1434 3.34371 40.8409 5.08234 40.936C6.3617 40.9994 7.47704 40.6824 8.52677 40.0165C9.57651 39.319 10.167 38.3996 10.2326 37.385C10.331 36.3387 9.77333 35.2607 8.85481 34.6266Z" fill="#FE414D"/>
<path d="M85.5189 10.6227C85.5189 10.6227 85.0924 10.3056 84.666 10.1154C84.2067 9.92514 83.5834 9.73491 82.2385 9.41785C82.0416 9.38614 81.8776 9.35444 81.7136 9.29102C80.8279 9.06908 80.139 8.78373 79.6141 8.43497C79.1221 8.02279 78.9252 7.67403 78.958 7.23015C78.9908 6.75456 79.2861 6.27898 79.811 5.89851C80.4014 5.45463 81.2871 5.2644 82.2713 5.2961C83.3866 5.32781 84.2395 5.89851 85.158 6.53262L85.2564 6.59604L86.4046 5.54975C86.2734 5.42292 86.2406 5.39122 85.8469 5.13757C84.9284 4.53516 83.8131 3.90105 82.3041 3.83764C80.9919 3.77423 79.8438 4.02787 78.9252 4.59857C77.9411 5.23269 77.3178 6.15216 77.3178 7.13503C77.3178 7.86427 77.4491 8.56179 78.2363 9.25932C79.1549 10.1154 80.5654 10.5593 81.8448 10.7812C82.9601 11.0031 83.9771 11.3836 84.5019 11.7958C85.1252 12.3348 85.3221 12.747 85.3221 13.3177C85.2892 13.8567 84.9284 14.3639 84.3051 14.7444C83.6818 15.1883 82.7633 15.4419 81.8448 15.4102C80.5982 15.3468 79.3189 14.8395 78.0395 13.8567L77.9411 13.7932L76.793 14.8078L76.8914 14.9029C78.4004 16.1395 80.0078 16.837 81.7464 16.9321C83.0258 16.9955 84.1411 16.6785 85.1908 16.0126C86.2406 15.3151 86.831 14.3956 86.8966 13.3811C86.9951 12.3348 86.4702 11.2568 85.5189 10.6227Z" fill="black"/>
<path d="M47.4707 0H45.8633V16.9309H47.4707V0Z" fill="black"/>
</svg>