<svg xmlns="http://www.w3.org/2000/svg" width="83" height="22" viewBox="0 0 83 22" fill="none">
<g clip-path="url(#clip0_15609_115213)">
<mask id="mask0_15609_115213" style="mask-type:luminance" maskUnits="userSpaceOnUse" x="0" y="0" width="83" height="22">
<path d="M82.7715 0H0V22H82.7715V0Z" fill="white"/>
</mask>
<g mask="url(#mask0_15609_115213)">
<mask id="mask1_15609_115213" style="mask-type:luminance" maskUnits="userSpaceOnUse" x="0" y="0" width="83" height="22">
<path d="M82.7715 0H0V21.97H82.7715V0Z" fill="white"/>
</mask>
<g mask="url(#mask1_15609_115213)">
<path d="M69.5451 1.96471V3.31367C69.5451 3.38983 69.4802 3.45281 69.4011 3.45281H69.015C68.9359 3.45281 68.871 3.38983 68.871 3.31367V2.07163C68.871 1.70107 68.6649 1.45794 68.3118 1.45794C67.9588 1.45794 67.7527 1.70107 67.7527 2.07163V3.31367C67.7527 3.38983 67.689 3.45281 67.6087 3.45281H67.2221C67.1435 3.45281 67.0781 3.38983 67.0781 3.31367V1.06248C67.0781 0.986312 67.1435 0.923332 67.2221 0.923332H67.6087C67.6873 0.923332 67.7527 0.984848 67.7527 1.06248V1.26899C67.8996 1.0449 68.1604 0.875 68.5527 0.875C69.0907 0.875 69.5439 1.19576 69.5439 1.96471H69.5451Z" fill="url(#paint0_linear_15609_115213)"/>
<path d="M71.3146 3.03531V3.29016C71.3146 3.34435 71.2827 3.39268 71.2326 3.41612C71.1283 3.46299 70.9843 3.48203 70.8569 3.48203C70.4144 3.48203 70.0916 3.27258 70.0916 2.75263V1.44468H69.8628C69.7841 1.44468 69.7188 1.38316 69.7188 1.30554V1.0624C69.7188 0.986239 69.7825 0.923259 69.8628 0.923259H70.0916V0.416487C70.0916 0.340324 70.1566 0.277344 70.2357 0.277344H70.628C70.707 0.277344 70.772 0.340324 70.772 0.416487V0.924723H71.166C71.2446 0.924723 71.31 0.986239 71.31 1.06387V1.307C71.31 1.38316 71.2463 1.44615 71.166 1.44615H70.772V2.64717C70.772 2.77899 70.8478 2.90495 71.0692 2.90495C71.0977 2.90495 71.1267 2.90349 71.1552 2.89909C71.2343 2.8903 71.3055 2.94596 71.3146 3.02212C71.3146 3.02652 71.3146 3.03238 71.3146 3.03677V3.03531Z" fill="url(#paint1_linear_15609_115213)"/>
<path d="M73.2558 1.01414V1.36273C73.2558 1.4389 73.1921 1.50188 73.1135 1.50188H73.0862C72.5784 1.50188 72.2601 1.84168 72.2601 2.34845V3.31367C72.2601 3.38983 72.1964 3.45281 72.1161 3.45281H71.73C71.6509 3.45281 71.5859 3.39129 71.5859 3.31367V1.06248C71.5859 0.986312 71.6497 0.923332 71.73 0.923332H72.1161C72.1951 0.923332 72.2601 0.984848 72.2601 1.06248V1.58097C72.3512 1.19137 72.6073 0.875 73.08 0.875H73.118C73.195 0.877928 73.2558 0.939444 73.2542 1.01414H73.2558Z" fill="url(#paint2_linear_15609_115213)"/>
<path d="M73.3047 2.1888C73.3047 1.33198 73.9987 0.875 74.6837 0.875C75.3686 0.875 76.0626 1.33198 76.0626 2.1888C76.0626 3.04563 75.3624 3.50261 74.6837 3.50261C74.0049 3.50261 73.3047 3.04563 73.3047 2.1888ZM75.393 2.1888C75.393 1.73622 75.0611 1.4638 74.6837 1.4638C74.3062 1.4638 73.9685 1.73622 73.9685 2.1888C73.9685 2.64138 74.3062 2.91381 74.6837 2.91381C75.0611 2.91381 75.393 2.64138 75.393 2.1888Z" fill="url(#paint3_linear_15609_115213)"/>
<path d="M79.0441 2.1888C79.0441 3.06467 78.3956 3.50261 77.7864 3.50261C77.3179 3.50261 77.0166 3.25508 76.9512 3.11301H76.9363V4.23932C76.9363 4.31548 76.8709 4.37848 76.7923 4.37848H76.4057C76.3271 4.37848 76.2617 4.31696 76.2617 4.23932V1.06248C76.2617 0.986312 76.3255 0.923332 76.4057 0.923332H76.7923C76.8709 0.923332 76.9363 0.984848 76.9363 1.06248V1.2646H76.9512C77.0166 1.12253 77.3195 0.875 77.7864 0.875C78.3956 0.875 79.0441 1.31293 79.0441 2.1888ZM78.3745 2.1888C78.3745 1.71718 78.021 1.4594 77.6498 1.4594C77.2786 1.4594 76.9193 1.71279 76.9193 2.1888C76.9193 2.66482 77.2666 2.91821 77.6498 2.91821C78.0334 2.91821 78.3745 2.66042 78.3745 2.1888Z" fill="url(#paint4_linear_15609_115213)"/>
<path d="M79.4409 0H79.827C79.9061 0 79.971 0.061516 79.971 0.139143V0.435004C79.971 0.511168 79.9073 0.574148 79.827 0.574148H79.4409C79.3618 0.574148 79.2969 0.511168 79.2969 0.435004V0.139143C79.2969 0.0629804 79.3606 0 79.4409 0ZM79.4409 0.925668H79.827C79.9061 0.925668 79.971 0.987184 79.971 1.06481V3.316C79.971 3.39216 79.9073 3.45514 79.827 3.45514H79.4409C79.3618 3.45514 79.2969 3.39216 79.2969 3.316V1.06335C79.2969 0.987184 79.3606 0.924204 79.4409 0.924204V0.925668Z" fill="url(#paint5_linear_15609_115213)"/>
<path d="M81.3492 2.48114L81.0218 2.8312V3.31454C81.0218 3.3907 80.9585 3.45368 80.8782 3.45368H80.4917C80.4126 3.45368 80.3477 3.3907 80.3477 3.31454V0.139143C80.3477 0.0629804 80.4126 0 80.4917 0H80.8782C80.9569 0 81.0218 0.061516 81.0218 0.139143V1.99927L81.96 0.971072C81.9874 0.940316 82.0267 0.924204 82.0676 0.924204H82.4844C82.563 0.924204 82.6284 0.987184 82.6284 1.06335C82.6284 1.09704 82.6148 1.13072 82.592 1.15562L81.7676 2.03735L82.7406 3.22812C82.789 3.28817 82.7782 3.37605 82.7162 3.42292C82.6905 3.44196 82.6603 3.45222 82.6268 3.45222H82.2373C82.1935 3.45222 82.1525 3.43318 82.1252 3.40095L81.3492 2.47968V2.48114Z" fill="url(#paint6_linear_15609_115213)"/>
<path d="M66.7737 2.74685C66.6057 2.88306 66.3917 2.95629 66.172 2.95629C65.8934 2.95629 65.7329 2.90942 65.5752 2.76149C65.5326 2.72195 65.5313 2.65603 65.5719 2.61503C65.5719 2.61503 65.5735 2.61356 65.5752 2.61209L66.71 1.56633C66.7754 1.50627 66.7799 1.40814 66.7207 1.34369C66.4873 1.08738 66.16 0.886719 65.7056 0.886719C64.9705 0.886719 64.375 1.4638 64.375 2.17416C64.375 2.25911 64.3841 2.34406 64.4007 2.42901L64.6006 3.33711C64.613 3.39276 64.6688 3.42791 64.7264 3.4162C64.7446 3.4118 64.7628 3.40301 64.7764 3.3913L64.9523 3.23458C65.5582 3.63589 66.3859 3.48797 66.8027 2.9021C66.8221 2.87427 66.8403 2.84498 66.8586 2.81568C66.8739 2.78932 66.8648 2.7571 66.8375 2.74099C66.8176 2.72927 66.7919 2.7322 66.7737 2.74685ZM65.216 2.27962C65.0355 2.07017 65.0645 1.75966 65.2797 1.58537C65.4084 1.48137 65.5826 1.44476 65.7449 1.4887C65.7813 1.49895 65.8024 1.53557 65.7916 1.57072C65.7904 1.57658 65.7871 1.58243 65.7825 1.58829L65.3252 2.27229C65.3037 2.30305 65.2615 2.31184 65.2296 2.2928C65.2234 2.28987 65.2189 2.28401 65.2143 2.27962H65.216Z" fill="url(#paint7_linear_15609_115213)"/>
<path fill-rule="evenodd" clip-rule="evenodd" d="M19.6594 21.7302C19.5427 21.8811 19.3563 21.9719 19.1608 21.9719L8.99089 21.8928C3.94309 21.2689 0 17.0492 0 12.0312C0 9.29231 1.13201 6.73939 3.18842 4.83971C3.61273 4.44863 4.07039 4.09127 4.55682 3.77343C5.42518 3.20807 6.38289 2.7716 7.38761 2.48746C8.48325 2.17841 9.63192 2.04952 10.773 2.10078C15.9421 2.33366 20.1413 6.26631 20.5383 11.2476C20.7126 13.4358 20.1625 15.5538 18.9471 17.3831H21.7658C22.0022 17.3831 22.2143 17.5105 22.3204 17.7141C22.4265 17.9177 22.4053 18.1579 22.2643 18.341L19.6594 21.7302ZM18.3637 20.5087C18.7047 20.4472 18.985 20.1836 19.0562 19.854H19.0547C19.1744 19.3018 18.7411 18.8156 18.191 18.8156C17.8833 18.8156 17.612 18.9679 17.4544 19.1978C17.4211 19.2447 17.3696 19.2769 17.3105 19.2769H13.869H10.3002H10.2835C10.1366 19.2769 9.99259 19.2711 9.84861 19.2638C9.85014 19.2623 9.85168 19.2594 9.85168 19.2594C5.9192 19.0426 2.78986 15.8833 2.78986 12.0298C2.78986 7.85399 6.46475 4.49259 10.8518 4.80751C14.5388 5.07115 17.506 7.96091 17.759 11.5244C17.8818 13.2601 17.3666 14.8771 16.4179 16.1806C16.38 16.2319 16.3164 16.2582 16.2512 16.2538C16.1633 16.248 16.0724 16.2538 15.9785 16.2817C15.4875 16.4238 15.1859 16.9393 15.3647 17.4036C15.5072 17.7756 15.9133 18.0261 16.3634 17.9441C16.6998 17.884 16.9756 17.6277 17.0529 17.307C17.0938 17.1385 17.0817 16.9774 17.0302 16.8324C17.035 16.8016 17.0399 16.7738 17.0449 16.746C17.049 16.7222 17.0532 16.6984 17.0574 16.6728C17.0761 16.6484 17.0935 16.6236 17.1109 16.5988C17.1218 16.5834 17.1327 16.5679 17.1438 16.5526C17.1529 16.5402 17.1616 16.5277 17.1703 16.5153C17.179 16.5028 17.1878 16.4904 17.1968 16.478C17.2324 16.4289 17.2658 16.3777 17.2989 16.3271C17.3053 16.3173 17.3117 16.3075 17.3181 16.2978C17.3229 16.2904 17.3279 16.2828 17.3329 16.2752C17.3467 16.2543 17.3608 16.2328 17.3742 16.2114C17.4105 16.1528 17.4469 16.0942 17.4817 16.0356C17.5014 16.0034 17.5211 15.9698 17.5407 15.9362C17.5741 15.8805 17.606 15.8247 17.6363 15.7676C17.6575 15.7296 17.6788 15.6914 17.6985 15.6534C17.7257 15.6006 17.753 15.5464 17.7803 15.4922C17.8015 15.4498 17.8227 15.4058 17.8439 15.3619C17.852 15.3441 17.8603 15.3262 17.8687 15.3082C17.8837 15.2756 17.899 15.2426 17.9136 15.2096C17.9363 15.1612 17.9575 15.1115 17.9787 15.0618C17.9921 15.0321 18.0044 15.0018 18.0166 14.9717C18.0236 14.9542 18.0307 14.9368 18.0379 14.9196C18.0606 14.8639 18.0819 14.8082 18.103 14.7526C18.1106 14.7313 18.1186 14.7097 18.1266 14.6881C18.1345 14.6665 18.1424 14.6449 18.15 14.6237C18.1652 14.5817 18.179 14.5397 18.1928 14.4978C18.1997 14.4768 18.2066 14.4558 18.2137 14.4348L18.25 14.3205C18.2728 14.2502 18.2925 14.1799 18.3122 14.1081C18.3213 14.0774 18.3304 14.0452 18.3394 14.0129C18.3607 13.9338 18.3804 13.8533 18.3985 13.7727C18.4024 13.7518 18.4073 13.7319 18.4123 13.7114C18.4133 13.7074 18.4143 13.7035 18.4152 13.6995C18.4349 13.6087 18.4531 13.5149 18.4698 13.4226C18.4711 13.4101 18.4735 13.3987 18.4761 13.3864C18.4765 13.3844 18.4769 13.3823 18.4773 13.3802C18.5546 12.9422 18.5956 12.4911 18.5956 12.0312C18.5956 7.39703 14.5161 3.66798 9.64706 4.02095C5.58426 4.31535 2.30342 7.48635 1.99882 11.4131C1.63361 16.1206 5.49334 20.0634 10.2866 20.0634C10.3123 20.0634 10.3381 20.0631 10.3639 20.0627C10.3896 20.0624 10.4154 20.062 10.4412 20.062H17.306C17.3635 20.062 17.4211 20.0884 17.453 20.1352C17.6378 20.412 17.9848 20.5776 18.3637 20.5087ZM6.38442 15.7998C7.56946 16.9466 9.21065 17.5062 10.8852 17.3333C13.4447 17.0711 15.4996 15.085 15.7708 12.6112C15.9481 10.9928 15.3693 9.40655 14.1842 8.26119C13.1386 7.25055 11.7414 6.69691 10.2775 6.69691C10.0805 6.69691 9.88197 6.70715 9.68344 6.72767C7.12394 6.98983 5.06905 8.97591 4.79777 11.4498C4.62047 13.0682 5.19938 14.6544 6.38442 15.7998ZM55.3928 4.71371H52.9589V17.1458H55.3928V4.71371ZM33.6648 9.77123H34.812H34.8135V14.2575C34.8135 16.3915 36.047 17.1473 37.8897 17.1473H39.4188V15.1641H38.2883C37.523 15.1641 37.2624 14.8961 37.2624 14.2736V9.77123H39.4173V7.83931H37.2624V5.53687H34.812V7.83931H33.6648V9.77123ZM29.5959 9.16631C29.0231 8.39447 27.9623 7.68847 26.4151 7.68847L26.4136 7.68703C23.9631 7.68703 22.0159 9.55155 22.0159 12.4589C22.0159 15.3663 23.9631 17.2982 26.3969 17.2982C27.9274 17.2982 29.0216 16.5936 29.5959 15.7866V17.1473H32.0463V7.83935H29.5959V9.16631ZM24.5026 12.4604C24.5026 10.6954 25.7377 9.75511 27.0409 9.75511C28.379 9.75511 29.5959 10.7291 29.5959 12.494C29.5959 14.259 28.3457 15.233 27.0409 15.233C25.7362 15.233 24.5026 14.2253 24.5026 12.4604ZM44.9454 7.68847C46.4928 7.68847 47.5535 8.39447 48.1263 9.16631V7.83935H50.5767V17.1473H48.1263V15.7866C47.5518 16.5936 46.458 17.2982 44.9272 17.2982C42.4937 17.2982 40.5462 15.3663 40.5462 12.4589C40.5462 9.55155 42.4937 7.68703 44.9441 7.68703L44.9454 7.68847ZM45.5715 9.75511C44.2679 9.75511 43.0329 10.6954 43.0329 12.4604C43.0329 14.2253 44.2666 15.233 45.5715 15.233C46.876 15.233 48.1263 14.259 48.1263 12.494C48.1263 10.7291 46.9095 9.75511 45.5715 9.75511ZM64.4153 7.83931H67.0052L61.0436 21.5486H58.4537L60.5403 16.9114L56.6807 7.83931H59.4101L61.8953 14.341L64.4153 7.83931ZM67.787 14.2062C67.8917 15.9373 69.5782 17.2979 71.993 17.2982C74.34 17.2979 75.7823 16.0882 75.7823 14.4919C75.7426 12.4944 73.8943 12.03 72.3705 11.647C71.2928 11.3762 70.3769 11.146 70.3769 10.4435C70.3769 9.90599 70.8466 9.55299 71.7501 9.55299C72.7061 9.55299 73.2971 10.0408 73.367 10.7628H75.6962C75.5568 8.91439 74.2005 7.68847 71.8196 7.68847C69.4391 7.68847 68.013 8.93199 68.013 10.4772C68.013 12.4846 69.8985 12.9432 71.4496 13.3204C72.5331 13.5838 73.4531 13.8076 73.4531 14.4919C73.4531 15.0294 72.9486 15.4498 71.9756 15.4498C71.0027 15.4498 70.3239 14.9122 70.2374 14.2062H67.787ZM78.1649 9.77123H77.0177V7.83931H78.1649V5.53687H80.6149V7.83931H82.7699V9.77123H80.6149V14.2736C80.6149 14.8961 80.8757 15.1641 81.6409 15.1641H82.7715V17.1473H81.2423C79.3998 17.1473 78.1661 16.3915 78.1661 14.2575V9.77123H78.1649Z" fill="url(#paint8_linear_15609_115213)"/>
</g>
</g>
</g>
<defs>
<linearGradient id="paint0_linear_15609_115213" x1="64.3988" y1="2.99437" x2="82.3498" y2="-0.969666" gradientUnits="userSpaceOnUse">
<stop stop-color="#64D89F"/>
<stop offset="1" stop-color="#00B2E2"/>
</linearGradient>
<linearGradient id="paint1_linear_15609_115213" x1="64.4317" y1="3.15248" x2="82.3822" y2="-0.81306" gradientUnits="userSpaceOnUse">
<stop stop-color="#64D89F"/>
<stop offset="1" stop-color="#00B2E2"/>
</linearGradient>
<linearGradient id="paint2_linear_15609_115213" x1="64.5529" y1="3.70766" x2="82.5038" y2="-0.256348" gradientUnits="userSpaceOnUse">
<stop stop-color="#64D89F"/>
<stop offset="1" stop-color="#00B2E2"/>
</linearGradient>
<linearGradient id="paint3_linear_15609_115213" x1="64.6758" y1="4.25252" x2="82.6267" y2="0.286912" gradientUnits="userSpaceOnUse">
<stop stop-color="#64D89F"/>
<stop offset="1" stop-color="#00B2E2"/>
</linearGradient>
<linearGradient id="paint4_linear_15609_115213" x1="64.8554" y1="5.07272" x2="82.8063" y2="1.10713" gradientUnits="userSpaceOnUse">
<stop stop-color="#64D89F"/>
<stop offset="1" stop-color="#00B2E2"/>
</linearGradient>
<linearGradient id="paint5_linear_15609_115213" x1="64.7928" y1="4.78944" x2="82.7438" y2="0.823963" gradientUnits="userSpaceOnUse">
<stop stop-color="#64D89F"/>
<stop offset="1" stop-color="#00B2E2"/>
</linearGradient>
<linearGradient id="paint6_linear_15609_115213" x1="64.8768" y1="5.1688" x2="82.8278" y2="1.20322" gradientUnits="userSpaceOnUse">
<stop stop-color="#64D89F"/>
<stop offset="1" stop-color="#00B2E2"/>
</linearGradient>
<linearGradient id="paint7_linear_15609_115213" x1="64.4474" y1="2.43194" x2="81.7382" y2="-1.38825" gradientUnits="userSpaceOnUse">
<stop stop-color="#64D89F"/>
<stop offset="1" stop-color="#00B2E2"/>
</linearGradient>
<linearGradient id="paint8_linear_15609_115213" x1="0" y1="12.0019" x2="82.7715" y2="12.0019" gradientUnits="userSpaceOnUse">
<stop stop-color="#009688"/>
<stop offset="1" stop-color="#00E3CC"/>
</linearGradient>
<clipPath id="clip0_15609_115213">
<rect width="82.7715" height="22" fill="white"/>
</clipPath>
</defs>
</svg>