<svg xmlns="http://www.w3.org/2000/svg" width="123" height="40" viewBox="0 0 123 40" fill="none">
<path d="M16.0002 0C26.8861 0 35.7427 8.85661 35.7427 19.7425C35.7427 30.6284 26.8861 39.485 16.0002 39.485V35.7314C24.8166 35.7314 31.9874 28.5589 31.9874 19.7425C31.9874 10.9261 24.8166 3.75362 16.0002 3.75362V0ZM15.9889 7.50054C9.23832 7.50054 3.74781 12.9934 3.74781 19.7418C3.74781 26.4923 9.23921 31.983 15.9889 31.983V35.7306C7.17341 35.7306 0 28.5589 0 19.7418C0 10.9261 7.17252 3.75288 15.9889 3.75288V7.50054ZM15.992 7.49905C22.7418 7.49905 28.2331 12.9905 28.2331 19.7418C28.2331 26.4916 22.7418 31.983 15.992 31.983V28.2331C20.6738 28.2331 24.4832 24.4235 24.4832 19.7418C24.4832 15.0585 20.6738 11.2491 15.992 11.2489V7.49905ZM15.992 15.007C13.382 15.007 11.2588 17.131 11.2588 19.7418C11.2588 22.3503 13.382 24.475 15.992 24.475V28.2331C11.3102 28.2331 7.50069 24.4235 7.50069 19.7418C7.50069 15.0585 11.3095 11.2489 15.992 11.2489V15.007Z" fill="#C23286"/>
<path d="M109.445 16.258C110.31 16.258 111.062 16.4801 111.698 16.9244C112.336 17.3688 112.827 17.9711 113.171 18.7308C113.516 19.4912 113.689 20.3389 113.689 21.2736C113.689 22.2204 113.516 23.0719 113.171 23.8256C112.827 24.5793 112.335 25.1785 111.698 25.6229C111.062 26.0679 110.311 26.2895 109.445 26.2895C108.709 26.2895 108.062 26.0881 107.507 25.6847C106.951 25.2814 106.557 24.718 106.323 23.9926V30.8147H103.359V16.381H106.323V18.5556C106.557 17.831 106.951 17.2665 107.507 16.8632C108.062 16.4598 108.709 16.258 109.445 16.258ZM78.8199 23.0108C78.8199 23.256 78.8989 23.4402 79.0562 23.5632C79.2143 23.6862 79.3984 23.7472 79.6086 23.7472C79.7488 23.7472 79.883 23.724 80.0119 23.6772L80.4853 25.9749C80.0172 26.1851 79.4856 26.2902 78.8892 26.2902C78.4098 26.2902 77.9335 26.1911 77.4601 25.992C76.9867 25.7937 76.6004 25.4605 76.3022 24.9923C76.0047 24.5241 75.8557 23.9046 75.8557 23.133V13.1895H78.8199V23.0108ZM46.8658 14.2242C46.8658 14.3994 46.8219 14.5835 46.7346 14.7765C46.6467 14.9696 46.5214 15.1388 46.3574 15.2849C46.1941 15.431 45.9891 15.5274 45.7439 15.5743H48.7954V17.9941H46.8487V22.8699C46.8487 23.15 46.9396 23.3701 47.1208 23.5274C47.302 23.6854 47.5211 23.7637 47.7783 23.7637C47.8946 23.7637 48.0035 23.7496 48.1026 23.7205C48.2018 23.6914 48.2981 23.6474 48.392 23.5893L49.1292 25.7639C48.8489 25.9152 48.5529 26.0412 48.2437 26.1404C47.9336 26.2395 47.5921 26.2895 47.2179 26.2895C46.1421 26.2895 45.3176 25.9943 44.745 25.4038C44.1717 24.8134 43.8853 23.9508 43.8853 22.8169V17.9941H42.3242V15.5743H43.0958C43.353 15.5743 43.5634 15.4929 43.7274 15.3289C43.8905 15.1656 43.9725 14.9548 43.9725 14.6976V13.1895H46.8658V14.2242ZM65.825 16.258C66.3862 16.258 66.9297 16.334 67.456 16.4861C67.9823 16.6382 68.4529 16.8603 68.8681 17.1526C69.2825 17.4448 69.6075 17.79 69.8416 18.1872C70.0757 18.5845 70.1921 19.029 70.1921 19.5203C70.1921 20.1286 70.019 20.64 69.6746 21.0545C69.3294 21.4698 68.8732 21.7971 68.3066 22.0364C67.7393 22.2764 67.1198 22.4425 66.4473 22.5357C65.775 22.6297 65.1115 22.6706 64.457 22.6587C64.363 22.6587 64.2639 22.6559 64.1588 22.6499C64.0536 22.644 63.9537 22.6416 63.8605 22.6416C63.7666 22.6416 63.6965 22.6358 63.6503 22.6246C63.7204 22.8818 63.8723 23.1217 64.1064 23.3431C64.3405 23.5653 64.6298 23.7376 64.9749 23.8606C65.3194 23.9836 65.6796 24.0446 66.0538 24.0446C66.4281 24.0446 66.7844 23.9836 67.1236 23.8606C67.4628 23.7384 67.7751 23.5773 68.0621 23.3783C68.3484 23.18 68.5914 22.9578 68.7897 22.7118L70.684 24.2028C70.3336 24.6822 69.9065 25.0743 69.404 25.3777C68.9009 25.6819 68.3604 25.91 67.7819 26.0621C67.2012 26.2135 66.6137 26.2895 66.0173 26.2895C65.3039 26.2895 64.626 26.1784 63.9827 25.9562C63.3393 25.7341 62.7669 25.4128 62.2644 24.9916C61.7619 24.5711 61.3667 24.0537 61.0804 23.4394C60.7934 22.8259 60.651 22.1266 60.651 21.3438C60.651 20.5953 60.7852 19.9117 61.0543 19.2914C61.3234 18.6719 61.6971 18.1335 62.1772 17.678C62.6566 17.2217 63.2088 16.8714 63.8343 16.6262C64.4598 16.381 65.1234 16.258 65.825 16.258ZM86.409 16.258C87.3789 16.258 88.2474 16.46 89.013 16.8632C89.7787 17.2665 90.3842 17.8428 90.8285 18.5905C91.2728 19.339 91.495 20.233 91.495 21.2736C91.495 22.3024 91.2697 23.191 90.8194 23.9395C90.3691 24.688 89.7557 25.2667 88.9782 25.6759C88.2006 26.0852 87.3269 26.2895 86.3562 26.2895C85.4094 26.2895 84.5558 26.0852 83.7961 25.6759C83.0357 25.2667 82.4369 24.688 81.9986 23.9395C81.5602 23.191 81.3412 22.3024 81.3412 21.2736C81.3412 20.233 81.5633 19.339 82.0077 18.5905C82.452 17.8422 83.0594 17.2665 83.831 16.8632C84.6026 16.4598 85.4622 16.258 86.409 16.258ZM97.4179 16.258C98.3878 16.258 99.2563 16.46 100.022 16.8632C100.788 17.2665 101.393 17.8428 101.837 18.5905C102.282 19.339 102.504 20.233 102.504 21.2736C102.504 22.3024 102.279 23.191 101.828 23.9395C101.378 24.688 100.765 25.2667 99.987 25.6759C99.2102 26.0852 98.3365 26.2895 97.3658 26.2895C96.4191 26.2895 95.5654 26.0852 94.805 25.6759C94.0446 25.2667 93.4458 24.688 93.0075 23.9395C92.5691 23.191 92.3501 22.3024 92.3501 21.2736C92.3501 20.233 92.5722 19.339 93.0166 18.5905C93.4609 17.8422 94.0683 17.2665 94.8399 16.8632C95.6115 16.4598 96.4711 16.258 97.4179 16.258ZM118.612 16.258C119.337 16.258 119.972 16.369 120.515 16.5912C121.059 16.8134 121.509 17.1235 121.865 17.5208C122.222 17.9188 122.475 18.3804 122.627 18.9066L120.015 19.5902C119.945 19.2398 119.787 18.9618 119.541 18.7575C119.296 18.5534 118.968 18.4505 118.558 18.4505C118.196 18.4505 117.919 18.5236 117.726 18.6697C117.533 18.8158 117.437 19.0059 117.437 19.2392C117.437 19.5084 117.565 19.7126 117.823 19.8528C118.08 19.9929 118.414 20.11 118.822 20.2032C119.232 20.2971 119.665 20.4045 120.121 20.5275C120.577 20.6505 121.013 20.8167 121.427 21.0277C121.842 21.2379 122.176 21.527 122.428 21.8953C122.678 22.2636 122.805 22.7573 122.805 23.3775C122.805 23.927 122.641 24.4242 122.313 24.8686C121.986 25.3129 121.527 25.661 120.937 25.9123C120.346 26.1642 119.648 26.2895 118.842 26.2895C118.127 26.2895 117.476 26.1812 116.885 25.965C116.295 25.7489 115.801 25.4357 115.403 25.0264C115.007 24.6172 114.72 24.1497 114.545 23.6234L117.281 23.01C117.363 23.3492 117.54 23.6146 117.816 23.8077C118.09 24.0006 118.426 24.097 118.824 24.097C119.21 24.097 119.508 24.0187 119.718 23.8606C119.929 23.7033 120.034 23.5132 120.034 23.2911C120.034 23.0219 119.903 22.8206 119.639 22.6857C119.377 22.5515 119.04 22.4375 118.631 22.3443C118.221 22.2511 117.792 22.1512 117.342 22.0461C116.891 21.9409 116.459 21.7859 116.045 21.5816C115.629 21.3773 115.293 21.0933 115.035 20.731C114.779 20.3687 114.649 19.8945 114.649 19.3101C114.649 18.7487 114.804 18.2403 115.114 17.784C115.423 17.3285 115.876 16.9602 116.472 16.6792C117.069 16.3989 117.782 16.258 118.612 16.258ZM53.044 18.4676C53.1842 18.0121 53.4092 17.6198 53.7193 17.2926C54.0287 16.9653 54.3917 16.7112 54.807 16.5301C55.2222 16.3489 55.6578 16.258 56.1133 16.258C56.8617 16.258 57.5103 16.4279 58.0598 16.7664C58.6091 17.1056 59.0356 17.585 59.3397 18.2043C59.6438 18.8238 59.7959 19.5665 59.7959 20.432V26.1665H56.8318V20.9054C56.8318 20.239 56.6627 19.7155 56.3235 19.336C55.9843 18.9558 55.5279 18.7658 54.9553 18.7658C54.558 18.7658 54.2158 18.8657 53.9295 19.064C53.6426 19.2631 53.4233 19.5374 53.272 19.8884C53.1199 20.2388 53.044 20.6371 53.044 21.0812V26.1672H50.0799V13.1895H53.044V18.4676ZM86.409 18.8367C86.0467 18.8367 85.7106 18.9239 85.4005 19.0989C85.0903 19.2741 84.8391 19.5412 84.646 19.8968C84.4529 20.2539 84.3568 20.7071 84.3568 21.2557C84.3568 21.8059 84.447 22.2645 84.6281 22.6328C84.8093 23.0009 85.0553 23.273 85.3645 23.4482C85.6754 23.6242 86.0118 23.7115 86.3741 23.7115C86.7364 23.7115 87.0786 23.6242 87.3999 23.4482C87.7212 23.273 87.9813 23.0009 88.1803 22.6328C88.3794 22.2645 88.4785 21.8059 88.4785 21.2557C88.4785 20.7064 88.3794 20.2539 88.1803 19.8968C87.9813 19.5404 87.7272 19.2741 87.4178 19.0989C87.1077 18.9237 86.7713 18.8367 86.409 18.8367ZM97.4186 18.8367C97.0563 18.8367 96.7201 18.9239 96.41 19.0989C96.0998 19.2741 95.8487 19.5412 95.6556 19.8968C95.4626 20.2539 95.3664 20.7071 95.3662 21.2557C95.3662 21.8059 95.4566 22.2645 95.6378 22.6328C95.8189 23.0009 96.0648 23.273 96.3742 23.4482C96.685 23.6242 97.0214 23.7115 97.3837 23.7115C97.7461 23.7115 98.0882 23.6242 98.4096 23.4482C98.7309 23.273 98.991 23.0011 99.1901 22.6328C99.3891 22.2645 99.4883 21.8059 99.4883 21.2557C99.4883 20.7064 99.3891 20.2539 99.1901 19.8968C98.991 19.5404 98.7368 19.2741 98.4274 19.0989C98.1173 18.9237 97.7809 18.8367 97.4186 18.8367ZM108.481 18.8367C108.094 18.8367 107.738 18.9328 107.411 19.1259C107.084 19.319 106.82 19.5993 106.621 19.9676C106.422 20.3359 106.323 20.7713 106.323 21.2736C106.323 21.788 106.422 22.2235 106.621 22.5806C106.82 22.9377 107.086 23.2119 107.419 23.405C107.753 23.5973 108.112 23.6944 108.498 23.6944C108.896 23.6944 109.255 23.5981 109.577 23.405C109.898 23.2119 110.159 22.9377 110.358 22.5806C110.556 22.2242 110.656 21.788 110.656 21.2736C110.656 20.7713 110.556 20.3359 110.358 19.9676C110.159 19.5993 109.895 19.319 109.568 19.1259C109.241 18.9328 108.878 18.8367 108.481 18.8367ZM65.8421 18.504C65.3747 18.504 64.9652 18.6152 64.6141 18.8374C64.2639 19.0596 63.9946 19.3369 63.8075 19.6701C63.6203 20.0032 63.5152 20.3395 63.4921 20.6779C63.6092 20.6898 63.7554 20.6989 63.9306 20.7049C64.1057 20.7101 64.2868 20.7131 64.474 20.7131C64.8012 20.7131 65.1316 20.6982 65.4649 20.6691C65.798 20.64 66.1074 20.5788 66.3944 20.4848C66.6807 20.3916 66.9147 20.2658 67.0959 20.1077C67.2771 19.9504 67.368 19.7483 67.368 19.503C67.368 19.3041 67.295 19.1289 67.1488 18.9768C67.0029 18.8247 66.8157 18.7077 66.5876 18.6264C66.3595 18.5444 66.1112 18.504 65.8421 18.504Z" fill="#C23286"/>
</svg>