<svg width="673" height="116" viewBox="0 0 673 116" fill="none" xmlns="http://www.w3.org/2000/svg">
<line x1="502.5" y1="1" x2="502.5" y2="115" stroke="#8C8C8C"/>
<path d="M665.819 115.365C664.14 115.365 662.786 114.99 661.759 114.238C660.731 113.461 659.98 112.358 659.503 110.929C659.027 109.476 658.789 107.772 658.789 105.817V93.6742C658.789 91.7945 659.015 90.1529 659.466 88.7495C659.917 87.3209 660.656 86.2182 661.684 85.4413C662.711 84.6393 664.077 84.2383 665.781 84.2383C667.31 84.2383 668.576 84.5014 669.578 85.0277C670.581 85.554 671.333 86.3435 671.834 87.3961C672.36 88.4237 672.623 89.7144 672.623 91.2682C672.623 91.3183 672.623 91.4311 672.623 91.6065C672.648 91.7569 672.661 91.8572 672.661 91.9073H669.917C669.917 89.9524 669.603 88.5615 668.977 87.7344C668.375 86.9074 667.348 86.4939 665.894 86.4939C665.042 86.4939 664.29 86.7069 663.639 87.133C662.987 87.534 662.473 88.2106 662.097 89.163C661.721 90.1154 661.533 91.406 661.533 93.0351V98.7868C661.984 98.3608 662.636 97.9598 663.488 97.5839C664.365 97.2079 665.343 97.02 666.42 97.02C668.1 97.02 669.415 97.3332 670.368 97.9598C671.32 98.5863 671.997 99.5638 672.398 100.892C672.799 102.22 672.999 103.95 672.999 106.08C672.999 107.935 672.761 109.564 672.285 110.967C671.809 112.371 671.044 113.461 669.992 114.238C668.964 114.99 667.573 115.365 665.819 115.365ZM665.819 113.072C666.821 113.072 667.636 112.859 668.263 112.433C668.914 111.982 669.403 111.28 669.729 110.328C670.054 109.376 670.217 108.135 670.217 106.606C670.217 104.952 670.117 103.574 669.917 102.471C669.741 101.368 669.34 100.541 668.714 99.9898C668.112 99.4385 667.147 99.1628 665.819 99.1628C665.217 99.1628 664.641 99.263 664.09 99.4635C663.538 99.639 663.037 99.8645 662.586 100.14C662.135 100.391 661.784 100.641 661.533 100.892V106.155C661.533 107.784 661.684 109.112 661.984 110.14C662.285 111.142 662.749 111.882 663.375 112.358C664.027 112.834 664.842 113.072 665.819 113.072Z" fill="black"/>
<path d="M639.898 114.99V112.959L648.094 100.403C648.695 99.4761 649.259 98.5863 649.785 97.7342C650.312 96.8571 650.738 95.9423 651.064 94.9899C651.414 94.0376 651.59 92.9599 651.59 91.7569C651.59 90.1279 651.252 88.8497 650.575 87.9224C649.923 86.9951 648.908 86.5315 647.53 86.5315C646.302 86.5315 645.349 86.8072 644.673 87.3585C643.996 87.9099 643.52 88.6743 643.244 89.6517C642.994 90.6041 642.868 91.6817 642.868 92.8847V93.5614H640.124V92.8095C640.124 90.9299 640.375 89.3635 640.876 88.1104C641.377 86.8322 642.154 85.8673 643.207 85.2157C644.284 84.5641 645.688 84.2383 647.417 84.2383C649.723 84.2383 651.452 84.9275 652.605 86.3059C653.758 87.6593 654.334 89.5515 654.334 91.9825C654.334 93.2105 654.159 94.3383 653.808 95.3659C653.457 96.3934 653.006 97.3834 652.455 98.3357C651.903 99.263 651.327 100.203 650.725 101.155L643.131 112.659H653.695V114.99H639.898Z" fill="black"/>
<path d="M628.335 115.365C626.531 115.365 625.102 114.977 624.049 114.2C622.997 113.423 622.245 112.358 621.794 111.005C621.343 109.651 621.117 108.11 621.117 106.381V93.1479C621.117 91.3935 621.343 89.8522 621.794 88.5239C622.27 87.1705 623.034 86.1179 624.087 85.3661C625.165 84.6142 626.581 84.2383 628.335 84.2383C630.14 84.2383 631.568 84.6142 632.621 85.3661C633.698 86.1179 634.463 87.1705 634.914 88.5239C635.39 89.8522 635.628 91.3935 635.628 93.1479V106.381C635.628 108.135 635.39 109.689 634.914 111.042C634.463 112.396 633.711 113.461 632.658 114.238C631.606 114.99 630.165 115.365 628.335 115.365ZM628.335 113.185C629.513 113.185 630.415 112.884 631.042 112.283C631.693 111.681 632.145 110.892 632.395 109.914C632.671 108.912 632.809 107.809 632.809 106.606V92.9599C632.809 91.7319 632.671 90.6291 632.395 89.6517C632.145 88.6492 631.706 87.8598 631.079 87.2833C630.453 86.7069 629.538 86.4187 628.335 86.4187C627.182 86.4187 626.28 86.7069 625.628 87.2833C625.002 87.8598 624.551 88.6492 624.275 89.6517C624.024 90.6291 623.899 91.7319 623.899 92.9599V106.606C623.899 107.809 624.024 108.912 624.275 109.914C624.551 110.892 625.014 111.681 625.666 112.283C626.318 112.884 627.207 113.185 628.335 113.185Z" fill="black"/>
<path d="M602.234 114.99V112.959L610.43 100.403C611.031 99.4761 611.595 98.5863 612.121 97.7342C612.648 96.8571 613.074 95.9423 613.4 94.9899C613.75 94.0376 613.926 92.9599 613.926 91.7569C613.926 90.1279 613.588 88.8497 612.911 87.9224C612.259 86.9951 611.244 86.5315 609.866 86.5315C608.638 86.5315 607.685 86.8072 607.009 87.3585C606.332 87.9099 605.856 88.6743 605.58 89.6517C605.33 90.6041 605.204 91.6817 605.204 92.8847V93.5614H602.46V92.8095C602.46 90.9299 602.711 89.3635 603.212 88.1104C603.713 86.8322 604.49 85.8673 605.543 85.2157C606.62 84.5641 608.024 84.2383 609.753 84.2383C612.059 84.2383 613.788 84.9275 614.941 86.3059C616.094 87.6593 616.67 89.5515 616.67 91.9825C616.67 93.2105 616.495 94.3383 616.144 95.3659C615.793 96.3934 615.342 97.3834 614.791 98.3357C614.239 99.263 613.663 100.203 613.061 101.155L605.467 112.659H616.031V114.99H602.234Z" fill="black"/>
<path d="M579.812 114.99V84.5391H582.557V103.862L589.812 93.2607H592.707L587.218 101.644L592.481 114.99H589.7L585.113 103.185L582.557 106.757V114.99H579.812Z" fill="black"/>
<path d="M570.396 115.327C569.042 115.327 567.927 115.064 567.05 114.538C566.198 113.987 565.559 113.084 565.133 111.831C564.732 110.578 564.531 108.912 564.531 106.831V101.343C564.531 99.1874 564.744 97.5082 565.17 96.3053C565.596 95.0772 566.248 94.2126 567.125 93.7113C568.002 93.185 569.105 92.9219 570.433 92.9219C571.962 92.9219 573.128 93.2477 573.93 93.8993C574.732 94.5509 575.283 95.5409 575.584 96.8692C575.909 98.1724 576.072 99.8516 576.072 101.907V103.861H567.276V107.658C567.276 109.062 567.376 110.177 567.576 111.004C567.802 111.806 568.14 112.383 568.591 112.733C569.067 113.084 569.669 113.26 570.396 113.26C570.947 113.26 571.448 113.16 571.9 112.959C572.351 112.733 572.702 112.32 572.952 111.718C573.228 111.092 573.366 110.215 573.366 109.087V107.583H576.035V108.786C576.035 110.766 575.621 112.358 574.794 113.561C573.992 114.738 572.526 115.327 570.396 115.327ZM567.276 102.283H573.366V100.478C573.366 99.3252 573.303 98.3478 573.178 97.5458C573.052 96.7188 572.777 96.0922 572.351 95.6662C571.95 95.2151 571.298 94.9895 570.396 94.9895C569.644 94.9895 569.03 95.1524 568.554 95.4782C568.103 95.804 567.777 96.393 567.576 97.2451C567.376 98.0721 567.276 99.2626 567.276 100.816V102.283Z" fill="black"/>
<path d="M555.56 115.327C554.206 115.327 553.091 115.064 552.214 114.538C551.362 113.987 550.723 113.084 550.297 111.831C549.896 110.578 549.695 108.912 549.695 106.831V101.343C549.695 99.1874 549.908 97.5082 550.334 96.3053C550.76 95.0772 551.412 94.2126 552.289 93.7113C553.166 93.185 554.269 92.9219 555.597 92.9219C557.126 92.9219 558.292 93.2477 559.094 93.8993C559.896 94.5509 560.447 95.5409 560.748 96.8692C561.074 98.1724 561.236 99.8516 561.236 101.907V103.861H552.44V107.658C552.44 109.062 552.54 110.177 552.74 111.004C552.966 111.806 553.304 112.383 553.755 112.733C554.232 113.084 554.833 113.26 555.56 113.26C556.111 113.26 556.612 113.16 557.064 112.959C557.515 112.733 557.866 112.32 558.116 111.718C558.392 111.092 558.53 110.215 558.53 109.087V107.583H561.199V108.786C561.199 110.766 560.785 112.358 559.958 113.561C559.156 114.738 557.69 115.327 555.56 115.327ZM552.44 102.283H558.53V100.478C558.53 99.3252 558.467 98.3478 558.342 97.5458C558.216 96.7188 557.941 96.0922 557.515 95.6662C557.114 95.2151 556.462 94.9895 555.56 94.9895C554.808 94.9895 554.194 95.1524 553.718 95.4782C553.267 95.804 552.941 96.393 552.74 97.2451C552.54 98.0721 552.44 99.2626 552.44 100.816V102.283Z" fill="black"/>
<path d="M528.478 114.99L523.328 84.5391H525.772L529.794 109.275L534.381 84.9902H536.749L541.448 109.313L545.17 84.5391H547.576L542.651 114.99H540.433L535.584 89.8773L530.809 114.99H528.478Z" fill="black"/>
<path d="M646 80.1161V51.2446H648.744V53.0491C649.195 52.4977 649.759 52.009 650.436 51.5829C651.113 51.1318 651.94 50.9062 652.917 50.9062C653.97 50.9062 654.809 51.1569 655.436 51.6581C656.088 52.1343 656.589 52.7859 656.94 53.613C657.29 54.44 657.529 55.3673 657.654 56.3949C657.779 57.4224 657.842 58.475 657.842 59.5527V64.1391C657.842 65.9936 657.691 67.6101 657.391 68.9886C657.09 70.3419 656.551 71.4071 655.774 72.184C655.022 72.9359 653.97 73.3118 652.616 73.3118C651.739 73.3118 650.975 73.0862 650.323 72.6351C649.697 72.184 649.17 71.7203 648.744 71.2442V80.1161H646ZM652.203 71.1314C653.03 71.1314 653.644 70.8682 654.045 70.3419C654.471 69.8156 654.747 69.0387 654.872 68.0111C655.022 66.9585 655.098 65.6929 655.098 64.2142V59.5527C655.098 58.1492 655.022 56.9713 654.872 56.0189C654.747 55.0415 654.471 54.3022 654.045 53.8009C653.619 53.2997 652.98 53.0491 652.128 53.0491C651.426 53.0491 650.774 53.237 650.173 53.613C649.596 53.9889 649.12 54.3648 648.744 54.7408V69.5525C649.145 69.9785 649.634 70.3545 650.21 70.6803C650.812 70.981 651.476 71.1314 652.203 71.1314Z" fill="black"/>
<path d="M638.633 72.9737V51.2448H641.377V72.9737H638.633ZM638.633 48.2374V44.5156H641.377V48.2374H638.633Z" fill="black"/>
<path d="M622.875 72.9739V42.5234H625.619V53.5382C626.346 52.7613 627.148 52.1348 628.025 51.6586C628.902 51.1573 629.867 50.9067 630.92 50.9067C631.647 50.9067 632.248 51.0947 632.724 51.4706C633.226 51.8215 633.602 52.3478 633.852 53.0495C634.128 53.7262 634.266 54.5533 634.266 55.5307V72.9739H631.484V56.1322C631.484 55.0044 631.308 54.2149 630.958 53.7638C630.632 53.2876 630.118 53.0495 629.416 53.0495C628.79 53.0495 628.138 53.25 627.461 53.651C626.81 54.0269 626.196 54.5157 625.619 55.1172V72.9739H622.875Z" fill="black"/>
<path d="M614.144 73.3118C612.415 73.3118 611.037 72.7604 610.009 71.6577C608.982 70.5299 608.393 69.0262 608.242 67.1465L610.535 66.4322C610.686 68.1114 611.074 69.3394 611.701 70.1164C612.327 70.8682 613.204 71.2442 614.332 71.2442C615.285 71.2442 616.011 70.981 616.513 70.4547C617.039 69.9033 617.302 69.1389 617.302 68.1615C617.302 67.4598 617.089 66.758 616.663 66.0563C616.237 65.3295 615.573 64.5776 614.671 63.8007L611.701 61.2444C610.723 60.4173 609.984 59.5903 609.483 58.7632C608.982 57.9362 608.731 56.9462 608.731 55.7934C608.731 54.7408 608.944 53.8636 609.37 53.1618C609.821 52.435 610.435 51.8837 611.212 51.5077C611.989 51.1067 612.891 50.9062 613.919 50.9062C615.598 50.9062 616.864 51.4451 617.716 52.5228C618.593 53.5754 619.069 54.9413 619.144 56.6204L617.189 57.2595C617.114 56.2821 616.951 55.4801 616.701 54.8535C616.45 54.2019 616.099 53.7257 615.648 53.425C615.197 53.1242 614.658 52.9739 614.032 52.9739C613.204 52.9739 612.528 53.212 612.002 53.6881C611.5 54.1393 611.25 54.7783 611.25 55.6054C611.25 56.257 611.375 56.8334 611.626 57.3347C611.876 57.8359 612.34 58.3998 613.017 59.0264L616.099 61.7707C616.701 62.297 617.277 62.8609 617.828 63.4624C618.38 64.0639 618.831 64.7405 619.182 65.4924C619.533 66.2192 619.708 67.0839 619.708 68.0863C619.708 69.2141 619.47 70.1665 618.994 70.9434C618.543 71.6953 617.904 72.2842 617.077 72.7103C616.25 73.1113 615.272 73.3118 614.144 73.3118Z" fill="black"/>
<path d="M598.172 72.974V51.2451H600.954V54.215C601.656 53.0621 602.457 52.2476 603.36 51.7714C604.262 51.2702 605.127 51.0195 605.954 51.0195C606.029 51.0195 606.104 51.0195 606.179 51.0195C606.254 51.0195 606.342 51.0321 606.442 51.0571V53.9894C606.267 53.9142 606.054 53.8641 605.803 53.839C605.553 53.7889 605.315 53.7638 605.089 53.7638C604.237 53.7638 603.46 53.9643 602.758 54.3653C602.082 54.7663 601.48 55.4054 600.954 56.2826V72.974H598.172Z" fill="black"/>
<path d="M588.599 73.3118C587.246 73.3118 586.13 73.0486 585.253 72.5223C584.401 71.971 583.762 71.0687 583.336 69.8156C582.935 68.5625 582.734 66.8959 582.734 64.8157V59.3271C582.734 57.1718 582.947 55.4926 583.373 54.2896C583.8 53.0616 584.451 52.1969 585.328 51.6957C586.205 51.1694 587.308 50.9062 588.637 50.9062C590.165 50.9062 591.331 51.2321 592.133 51.8837C592.935 52.5353 593.486 53.5252 593.787 54.8535C594.113 56.1568 594.275 57.8359 594.275 59.891V61.8459H585.479V65.6428C585.479 67.0463 585.579 68.1615 585.779 68.9886C586.005 69.7906 586.343 70.367 586.794 70.7179C587.271 71.0687 587.872 71.2442 588.599 71.2442C589.15 71.2442 589.652 71.1439 590.103 70.9434C590.554 70.7179 590.905 70.3043 591.155 69.7028C591.431 69.0763 591.569 68.1991 591.569 67.0713V65.5676H594.238V66.7706C594.238 68.7505 593.824 70.3419 592.997 71.5449C592.195 72.7228 590.729 73.3118 588.599 73.3118ZM585.479 60.267H591.569V58.4625C591.569 57.3096 591.506 56.3322 591.381 55.5302C591.255 54.7032 590.98 54.0766 590.554 53.6506C590.153 53.1994 589.501 52.9739 588.599 52.9739C587.847 52.9739 587.233 53.1368 586.757 53.4626C586.306 53.7884 585.98 54.3774 585.779 55.2295C585.579 56.0565 585.479 57.247 585.479 58.8008V60.267Z" fill="black"/>
<path d="M572.436 73.3123C570.582 73.3123 569.241 72.6105 568.414 71.207C567.612 69.8036 567.211 67.4728 567.211 64.2147V60.1922C567.211 58.2875 567.349 56.6459 567.624 55.2675C567.9 53.8891 568.401 52.824 569.128 52.0721C569.88 51.2952 570.945 50.9067 572.324 50.9067C573.176 50.9067 573.915 51.1072 574.542 51.5082C575.193 51.8841 575.732 52.3102 576.158 52.7864V42.5234H578.902V72.9739H576.158V71.4326C575.732 71.9088 575.206 72.3474 574.579 72.7484C573.978 73.1243 573.263 73.3123 572.436 73.3123ZM573 71.1318C573.602 71.1318 574.166 70.994 574.692 70.7183C575.243 70.4426 575.732 70.1043 576.158 69.7033V54.5908C575.782 54.24 575.319 53.9016 574.767 53.5758C574.216 53.225 573.602 53.0495 572.925 53.0495C571.722 53.0495 570.92 53.5884 570.519 54.666C570.143 55.7186 569.955 57.26 569.955 59.29V64.4403C569.955 65.8939 570.03 67.1219 570.181 68.1244C570.356 69.1269 570.657 69.8787 571.083 70.38C571.534 70.8812 572.173 71.1318 573 71.1318Z" fill="black"/>
<path d="M556.462 73.3118C555.61 73.3118 554.858 73.0988 554.207 72.6727C553.555 72.2216 553.041 71.6326 552.665 70.9058C552.29 70.154 552.102 69.3394 552.102 68.4623C552.102 67.3595 552.264 66.4197 552.59 65.6428C552.916 64.8659 553.417 64.1766 554.094 63.5752C554.771 62.9486 555.673 62.3471 556.801 61.7707C557.929 61.1692 559.282 60.505 560.861 59.7782V58.2369C560.861 56.9086 560.786 55.8685 560.635 55.1167C560.485 54.3398 560.209 53.7884 559.808 53.4626C559.432 53.1368 558.881 52.9739 558.154 52.9739C557.603 52.9739 557.089 53.0867 556.613 53.3122C556.162 53.5378 555.798 53.9262 555.523 54.4776C555.272 55.0039 555.147 55.7432 555.147 56.6956V57.4475L552.44 57.4099C552.465 55.2044 552.929 53.5754 553.831 52.5228C554.758 51.4451 556.249 50.9062 558.304 50.9062C560.259 50.9062 561.625 51.4952 562.402 52.6731C563.204 53.826 563.605 55.6305 563.605 58.0865V68.6502C563.605 69.0262 563.618 69.5149 563.643 70.1164C563.668 70.6928 563.693 71.2442 563.718 71.7705C563.768 72.2968 563.806 72.6978 563.831 72.9734H561.387C561.312 72.4973 561.224 71.971 561.124 71.3945C561.049 70.793 560.999 70.3169 560.974 69.966C560.673 70.8432 560.134 71.6201 559.357 72.2968C558.58 72.9734 557.615 73.3118 556.462 73.3118ZM557.365 70.981C557.916 70.981 558.405 70.8432 558.831 70.5675C559.282 70.2918 559.683 69.966 560.034 69.5901C560.385 69.1891 560.66 68.7881 560.861 68.3871V61.6203C559.808 62.1717 558.893 62.6729 558.116 63.124C557.365 63.5752 556.751 64.0137 556.274 64.4398C555.798 64.8658 555.435 65.3546 555.184 65.9059C554.959 66.4322 554.846 67.0588 554.846 67.7856C554.846 68.9384 555.096 69.7655 555.598 70.2667C556.099 70.7429 556.688 70.981 557.365 70.981Z" fill="black"/>
<path d="M543.779 73.3118C542.425 73.3118 541.31 73.0486 540.433 72.5223C539.581 71.971 538.942 71.0687 538.516 69.8156C538.115 68.5625 537.914 66.8959 537.914 64.8157V59.3271C537.914 57.1718 538.127 55.4926 538.553 54.2896C538.979 53.0616 539.631 52.1969 540.508 51.6957C541.385 51.1694 542.488 50.9062 543.816 50.9062C545.345 50.9062 546.51 51.2321 547.312 51.8837C548.114 52.5353 548.666 53.5252 548.966 54.8535C549.292 56.1568 549.455 57.8359 549.455 59.891V61.8459H540.658V65.6428C540.658 67.0463 540.759 68.1615 540.959 68.9886C541.185 69.7906 541.523 70.367 541.974 70.7179C542.45 71.0687 543.052 71.2442 543.779 71.2442C544.33 71.2442 544.831 71.1439 545.282 70.9434C545.733 70.7179 546.084 70.3043 546.335 69.7028C546.611 69.0763 546.748 68.1991 546.748 67.0713V65.5676H549.418V66.7706C549.418 68.7505 549.004 70.3419 548.177 71.5449C547.375 72.7228 545.909 73.3118 543.779 73.3118ZM540.658 60.267H546.748V58.4625C546.748 57.3096 546.686 56.3322 546.56 55.5302C546.435 54.7032 546.16 54.0766 545.733 53.6506C545.332 53.1994 544.681 52.9739 543.779 52.9739C543.027 52.9739 542.413 53.1368 541.937 53.4626C541.485 53.7884 541.16 54.3774 540.959 55.2295C540.759 56.0565 540.658 57.247 540.658 58.8008V60.267Z" fill="black"/>
<path d="M524.68 72.9739V42.5234H527.537V70.8311H536.183V72.9739H524.68Z" fill="black"/>
<path d="M596.18 30.9578V9.22896H598.924V11.4846C599.626 10.7327 600.415 10.1187 601.292 9.64249C602.17 9.14125 603.122 8.89062 604.149 8.89062C604.876 8.89062 605.49 9.07859 605.992 9.45452C606.493 9.80539 606.869 10.3317 607.119 11.0334C607.37 11.7101 607.495 12.5372 607.495 13.5146V30.9578H604.751V14.1161C604.751 12.9883 604.575 12.1988 604.225 11.7477C603.899 11.2715 603.385 11.0334 602.683 11.0334C602.057 11.0334 601.418 11.2214 600.766 11.5973C600.114 11.9733 599.5 12.462 598.924 13.0635V30.9578H596.18Z" fill="black"/>
<path d="M585.444 38.1005C584.015 38.1005 582.762 37.9627 581.685 37.687C580.632 37.4113 579.818 36.9727 579.241 36.3712C578.69 35.7948 578.414 35.0555 578.414 34.1532C578.414 33.4014 578.615 32.6996 579.016 32.048C579.417 31.4215 579.918 30.8701 580.519 30.3939C581.121 29.9177 581.735 29.5418 582.361 29.2661L583.865 29.6045C583.489 29.8551 583.051 30.1684 582.549 30.5443C582.073 30.9202 581.66 31.3463 581.309 31.8225C580.983 32.2986 580.82 32.8375 580.82 33.439C580.82 34.2911 581.208 34.9051 581.985 35.281C582.762 35.682 583.953 35.8825 585.557 35.8825C587.035 35.8825 588.213 35.657 589.091 35.2059C589.993 34.7798 590.444 34.0781 590.444 33.1006C590.444 32.5994 590.331 32.1608 590.106 31.7849C589.905 31.434 589.517 31.1207 588.94 30.845C588.364 30.5694 587.499 30.3438 586.346 30.1684L582.587 29.5669C581.534 29.3664 580.757 29.0531 580.256 28.627C579.78 28.201 579.542 27.6622 579.542 27.0105C579.542 26.2086 579.805 25.4943 580.331 24.8677C580.883 24.2161 581.597 23.5144 582.474 22.7625L583.527 23.5144C583.151 23.9154 582.775 24.3665 582.399 24.8677C582.048 25.3439 581.873 25.795 581.873 26.2211C581.873 26.597 582.01 26.8852 582.286 27.0857C582.587 27.2612 583.051 27.399 583.677 27.4992L587.248 28.0256C589.003 28.2762 590.344 28.8025 591.271 29.6045C592.223 30.4065 592.699 31.5468 592.699 33.0254C592.699 34.1783 592.386 35.1307 591.76 35.8825C591.158 36.6595 590.306 37.2234 589.203 37.5742C588.126 37.9251 586.873 38.1005 585.444 38.1005ZM585.632 24.1159C584.178 24.1159 582.988 23.7775 582.061 23.1008C581.158 22.4242 580.494 21.5094 580.068 20.3565C579.642 19.2037 579.429 17.913 579.429 16.4844C579.429 15.081 579.642 13.8153 580.068 12.6875C580.519 11.5347 581.196 10.6199 582.098 9.94323C583 9.24149 584.153 8.89062 585.557 8.89062C586.935 8.89062 588.076 9.25403 588.978 9.98083C589.88 10.6826 590.544 11.6224 590.97 12.8003C591.421 13.9532 591.647 15.1937 591.647 16.522C591.647 17.9756 591.446 19.2789 591.045 20.4317C590.644 21.5846 590.005 22.4868 589.128 23.1384C588.251 23.7901 587.086 24.1159 585.632 24.1159ZM585.632 22.1234C586.409 22.1234 587.023 21.9605 587.474 21.6347C587.95 21.2838 588.301 20.8327 588.527 20.2814C588.777 19.73 588.94 19.1285 589.015 18.4769C589.091 17.8002 589.128 17.1361 589.128 16.4844C589.128 15.8328 589.078 15.1812 588.978 14.5296C588.903 13.878 588.74 13.2765 588.489 12.7251C588.238 12.1738 587.875 11.7352 587.399 11.4094C586.948 11.0585 586.346 10.8831 585.594 10.8831C584.842 10.8831 584.228 11.0585 583.752 11.4094C583.301 11.7602 582.938 12.2239 582.662 12.8003C582.386 13.3517 582.198 13.9532 582.098 14.6048C582.023 15.2313 581.985 15.8579 581.985 16.4844C581.985 17.0859 582.023 17.725 582.098 18.4017C582.198 19.0533 582.374 19.6673 582.625 20.2438C582.875 20.7951 583.239 21.2463 583.715 21.5971C584.191 21.948 584.83 22.1234 585.632 22.1234ZM590.82 12.9131L590.181 11.7477C590.431 11.2465 590.87 10.7327 591.496 10.2064C592.148 9.68008 592.9 9.25403 593.752 8.92822L594.504 10.8455C594.078 10.9457 593.602 11.1086 593.075 11.3342C592.574 11.5597 592.111 11.8104 591.684 12.086C591.258 12.3617 590.97 12.6374 590.82 12.9131Z" fill="black"/>
<path d="M572.508 30.958V9.22918H575.252V30.958H572.508ZM572.508 6.22172V2.5H575.252V6.22172H572.508Z" fill="black"/>
<path d="M563.519 31.2962C561.79 31.2962 560.412 30.7448 559.384 29.6421C558.357 28.5143 557.768 27.0105 557.617 25.1309L559.91 24.4166C560.061 26.0958 560.449 27.3238 561.076 28.1007C561.702 28.8526 562.579 29.2285 563.707 29.2285C564.66 29.2285 565.386 28.9654 565.888 28.4391C566.414 27.8877 566.677 27.1233 566.677 26.1459C566.677 25.4442 566.464 24.7424 566.038 24.0407C565.612 23.3139 564.948 22.562 564.046 21.7851L561.076 19.2288C560.098 18.4017 559.359 17.5746 558.858 16.7476C558.357 15.9205 558.106 14.9306 558.106 13.7777C558.106 12.7251 558.319 11.848 558.745 11.1462C559.196 10.4194 559.81 9.86805 560.587 9.49211C561.364 9.09112 562.266 8.89062 563.294 8.89062C564.973 8.89062 566.239 9.42946 567.091 10.5071C567.968 11.5597 568.444 12.9256 568.519 14.6048L566.564 15.2439C566.489 14.2664 566.326 13.4645 566.076 12.8379C565.825 12.1863 565.474 11.7101 565.023 11.4094C564.572 11.1086 564.033 10.9582 563.407 10.9582C562.579 10.9582 561.903 11.1963 561.377 11.6725C560.875 12.1236 560.625 12.7627 560.625 13.5898C560.625 14.2414 560.75 14.8178 561.001 15.3191C561.251 15.8203 561.715 16.3842 562.392 17.0108L565.474 19.7551C566.076 20.2814 566.652 20.8453 567.203 21.4467C567.755 22.0482 568.206 22.7249 568.557 23.4768C568.908 24.2036 569.083 25.0682 569.083 26.0707C569.083 27.1985 568.845 28.1509 568.369 28.9278C567.918 29.6797 567.279 30.2686 566.452 30.6947C565.625 31.0957 564.647 31.2962 563.519 31.2962Z" fill="black"/>
<path d="M549.169 31.2962C547.816 31.2962 546.701 31.033 545.823 30.5067C544.971 29.9553 544.332 29.0531 543.906 27.8C543.505 26.5469 543.305 24.8803 543.305 22.8001V17.3115C543.305 15.1562 543.518 13.477 543.944 12.274C544.37 11.046 545.021 10.1813 545.899 9.68008C546.776 9.15378 547.879 8.89062 549.207 8.89062C550.736 8.89062 551.901 9.21643 552.703 9.86805C553.505 10.5197 554.056 11.5096 554.357 12.8379C554.683 14.1411 554.846 15.8203 554.846 17.8754V19.8302H546.049V23.6272C546.049 25.0306 546.149 26.1459 546.35 26.9729C546.575 27.7749 546.914 28.3514 547.365 28.7022C547.841 29.0531 548.442 29.2285 549.169 29.2285C549.721 29.2285 550.222 29.1283 550.673 28.9278C551.124 28.7022 551.475 28.2887 551.726 27.6872C552.001 27.0607 552.139 26.1835 552.139 25.0557V23.552H554.808V24.7549C554.808 26.7349 554.395 28.3263 553.568 29.5293C552.766 30.7072 551.3 31.2962 549.169 31.2962ZM546.049 18.2513H552.139V16.4469C552.139 15.294 552.076 14.3166 551.951 13.5146C551.826 12.6875 551.55 12.061 551.124 11.6349C550.723 11.1838 550.071 10.9582 549.169 10.9582C548.417 10.9582 547.803 11.1212 547.327 11.447C546.876 11.7728 546.55 12.3617 546.35 13.2138C546.149 14.0409 546.049 15.2313 546.049 16.7852V18.2513Z" fill="black"/>
<path d="M524.68 30.9583V0.507812H531.296C533.426 0.507812 535.08 0.883745 536.258 1.63561C537.461 2.36241 538.313 3.40249 538.815 4.75584C539.316 6.1092 539.567 7.67558 539.567 9.45499V21.56C539.567 23.4397 539.316 25.0938 538.815 26.5223C538.313 27.9258 537.486 29.016 536.334 29.7929C535.181 30.5698 533.589 30.9583 531.559 30.9583H524.68ZM527.537 28.8155H531.371C532.975 28.8155 534.153 28.4897 534.905 27.8381C535.657 27.1614 536.133 26.2466 536.334 25.0938C536.534 23.9158 536.634 22.5875 536.634 21.1089V9.75574C536.634 8.22695 536.496 6.94878 536.221 5.92123C535.97 4.86862 535.456 4.07917 534.679 3.55286C533.928 3.00149 532.787 2.72581 531.258 2.72581H527.537V28.8155Z" fill="black"/>
<path d="M475.195 92.8906V107.191C475.195 108.914 474.862 110.381 474.197 111.59C473.532 112.789 472.575 113.706 471.325 114.341C470.086 114.976 468.599 115.294 466.866 115.294C464.235 115.294 462.215 114.583 460.804 113.162C459.393 111.731 458.688 109.721 458.688 107.131V92.8906H460.229V107.131C460.229 109.348 460.804 111.036 461.953 112.195C463.112 113.344 464.775 113.918 466.941 113.918C468.362 113.918 469.572 113.666 470.569 113.162C471.567 112.648 472.328 111.902 472.852 110.925C473.376 109.937 473.638 108.743 473.638 107.342V92.8906H475.195Z" fill="black"/>
<path d="M445.874 92.8906C447.628 92.8906 449.089 93.0821 450.258 93.4651C451.437 93.848 452.324 94.4779 452.919 95.3547C453.513 96.2314 453.811 97.4156 453.811 98.9071C453.811 100.026 453.604 100.988 453.191 101.794C452.788 102.591 452.228 103.246 451.513 103.76C450.797 104.274 449.971 104.667 449.034 104.939L455.095 114.991H453.251L447.552 105.377H442.065V114.991H440.508V92.8906H445.874ZM445.723 94.2662H442.065V104.001H446.464C448.268 104.001 449.674 103.568 450.681 102.701C451.699 101.835 452.208 100.59 452.208 98.9676C452.208 97.1838 451.674 95.9543 450.606 95.2791C449.538 94.6039 447.91 94.2662 445.723 94.2662Z" fill="black"/>
<path d="M434.507 92.8906V107.191C434.507 108.914 434.175 110.381 433.51 111.59C432.845 112.789 431.887 113.706 430.638 114.341C429.398 114.976 427.912 115.294 426.178 115.294C423.548 115.294 421.527 114.583 420.116 113.162C418.705 111.731 418 109.721 418 107.131V92.8906H419.542V107.131C419.542 109.348 420.116 111.036 421.265 112.195C422.424 113.344 424.087 113.918 426.254 113.918C427.675 113.918 428.884 113.666 429.882 113.162C430.879 112.648 431.64 111.902 432.164 110.925C432.688 109.937 432.95 108.743 432.95 107.342V92.8906H434.507Z" fill="black"/>
<path d="M402.352 114.991V92.8906H403.909V113.57H414.43V114.991H402.352Z" fill="black"/>
<path d="M397.586 114.993L394.578 107.177H385.297L382.228 114.993H380.641L389.333 92.8164H390.754L399.219 114.993H397.586ZM394.079 105.771L391.026 97.4875C390.945 97.2758 390.844 97.0037 390.723 96.6712C390.613 96.3386 390.492 95.9859 390.361 95.613C390.24 95.2401 390.119 94.8874 389.998 94.5548C389.897 94.9076 389.786 95.2603 389.665 95.613C389.544 95.9657 389.428 96.3084 389.318 96.6409C389.207 96.9634 389.101 97.2557 389 97.5177L385.826 105.771H394.079Z" fill="black"/>
<path d="M370.073 103.835H378.191V113.979C377.132 114.422 376.004 114.755 374.804 114.976C373.605 115.188 372.33 115.294 370.98 115.294C368.632 115.294 366.651 114.85 365.039 113.963C363.437 113.066 362.222 111.771 361.396 110.078C360.569 108.385 360.156 106.35 360.156 103.971C360.156 101.754 360.605 99.7839 361.502 98.0606C362.409 96.3373 363.704 94.9868 365.387 94.0093C367.07 93.0317 369.085 92.543 371.433 92.543C372.643 92.543 373.781 92.6538 374.85 92.8755C375.928 93.0972 376.951 93.4298 377.918 93.8732L377.299 95.264C376.341 94.8206 375.364 94.488 374.366 94.2663C373.378 94.0446 372.376 93.9337 371.358 93.9337C369.362 93.9337 367.644 94.362 366.203 95.2186C364.772 96.0652 363.673 97.2443 362.907 98.7559C362.152 100.258 361.774 101.991 361.774 103.956C361.774 106.183 362.142 108.033 362.877 109.504C363.613 110.975 364.686 112.079 366.097 112.815C367.518 113.55 369.241 113.918 371.267 113.918C372.376 113.918 373.368 113.837 374.245 113.676C375.132 113.515 375.933 113.303 376.649 113.041V105.256H370.073V103.835Z" fill="black"/>
<path d="M355.092 114.991H353.505L340.444 95.4454H340.368C340.388 95.9896 340.404 96.5438 340.414 97.1082C340.434 97.6625 340.449 98.2369 340.459 98.8315C340.479 99.416 340.489 100.021 340.489 100.646V114.991H339.008V92.8906H340.61L353.626 112.376H353.701C353.691 111.933 353.676 111.419 353.656 110.834C353.646 110.25 353.631 109.65 353.611 109.035C353.601 108.421 353.595 107.841 353.595 107.297V92.8906H355.092V114.991Z" fill="black"/>
<path d="M333.977 114.991H321.898V92.8906H333.977V94.2965H323.455V102.671H333.387V104.077H323.455V113.585H333.977V114.991Z" fill="black"/>
<path d="M302.492 92.8906H308.554C311.285 92.8906 313.281 93.3189 314.54 94.1755C315.81 95.0322 316.445 96.3977 316.445 98.2722C316.445 99.1187 316.279 99.8897 315.946 100.585C315.624 101.28 315.14 101.865 314.495 102.339C313.86 102.802 313.074 103.12 312.137 103.291V103.397C313.255 103.568 314.177 103.88 314.903 104.334C315.639 104.777 316.183 105.367 316.536 106.103C316.898 106.828 317.08 107.695 317.08 108.703C317.08 110.154 316.747 111.343 316.082 112.27C315.427 113.197 314.515 113.883 313.346 114.326C312.177 114.77 310.827 114.991 309.295 114.991H302.492V92.8906ZM304.049 102.717H308.947C311.023 102.717 312.525 102.354 313.452 101.628C314.379 100.902 314.843 99.8292 314.843 98.4082C314.843 96.9369 314.344 95.8787 313.346 95.2337C312.348 94.5887 310.751 94.2662 308.554 94.2662H304.049V102.717ZM304.049 104.077V113.616H309.249C311.295 113.616 312.837 113.202 313.875 112.376C314.913 111.54 315.432 110.295 315.432 108.642C315.432 107.554 315.19 106.677 314.707 106.012C314.223 105.337 313.497 104.848 312.53 104.546C311.572 104.233 310.378 104.077 308.947 104.077H304.049Z" fill="black"/>
<path d="M286.438 113.919C286.438 113.475 286.538 113.138 286.74 112.906C286.941 112.664 287.239 112.543 287.632 112.543C288.065 112.543 288.383 112.664 288.584 112.906C288.786 113.138 288.886 113.475 288.886 113.919C288.886 114.362 288.786 114.705 288.584 114.947C288.383 115.188 288.065 115.309 287.632 115.309C287.239 115.309 286.941 115.188 286.74 114.947C286.538 114.705 286.438 114.362 286.438 113.919Z" fill="black"/>
<path d="M266.349 92.8906C268.979 92.8906 270.949 93.3945 272.259 94.4023C273.57 95.4101 274.225 96.9772 274.225 99.1036C274.225 100.192 274.048 101.159 273.696 102.006C273.353 102.842 272.834 103.548 272.138 104.122C271.443 104.697 270.571 105.13 269.523 105.422C268.485 105.715 267.271 105.861 265.88 105.861H262.479V114.991H260.922V92.8906H266.349ZM266.183 94.2662H262.479V104.485H265.729C267.16 104.485 268.39 104.324 269.417 104.001C270.445 103.669 271.237 103.115 271.791 102.339C272.345 101.563 272.622 100.504 272.622 99.1641C272.622 97.4609 272.098 96.2213 271.05 95.4454C270.002 94.6593 268.379 94.2662 266.183 94.2662Z" fill="black"/>
<path d="M255.883 114.991H243.805V92.8906H255.883V94.2965H245.362V102.671H255.293V104.077H245.362V113.585H255.883V114.991Z" fill="black"/>
<path d="M239.074 109.293C239.074 110.614 238.741 111.722 238.076 112.619C237.411 113.506 236.509 114.176 235.37 114.63C234.231 115.073 232.941 115.295 231.5 115.295C230.603 115.295 229.787 115.249 229.051 115.159C228.326 115.078 227.666 114.967 227.071 114.826C226.487 114.685 225.952 114.524 225.469 114.342V112.785C226.255 113.088 227.162 113.355 228.19 113.586C229.228 113.808 230.356 113.919 231.576 113.919C232.725 113.919 233.743 113.753 234.629 113.42C235.526 113.088 236.232 112.584 236.746 111.909C237.26 111.233 237.517 110.382 237.517 109.354C237.517 108.447 237.3 107.706 236.867 107.132C236.444 106.547 235.804 106.048 234.947 105.635C234.09 105.212 233.012 104.784 231.712 104.35C230.805 104.038 229.979 103.71 229.233 103.368C228.497 103.015 227.867 102.612 227.343 102.158C226.819 101.695 226.416 101.14 226.134 100.495C225.862 99.8403 225.726 99.0694 225.726 98.1825C225.726 96.9631 226.033 95.9402 226.648 95.1138C227.273 94.2774 228.114 93.6475 229.172 93.2242C230.241 92.7909 231.44 92.5742 232.77 92.5742C233.828 92.5742 234.831 92.675 235.778 92.8766C236.736 93.068 237.658 93.3603 238.545 93.7533L238.001 95.0987C237.114 94.7158 236.227 94.4336 235.34 94.2522C234.453 94.0708 233.576 93.9801 232.71 93.9801C231.672 93.9801 230.744 94.1363 229.928 94.4487C229.122 94.751 228.482 95.2096 228.008 95.8243C227.535 96.4391 227.298 97.2151 227.298 98.1523C227.298 99.1198 227.515 99.9008 227.948 100.495C228.391 101.09 229.016 101.584 229.822 101.977C230.639 102.37 231.601 102.753 232.71 103.126C234.02 103.569 235.149 104.038 236.096 104.532C237.043 105.015 237.774 105.63 238.288 106.376C238.812 107.122 239.074 108.094 239.074 109.293Z" fill="black"/>
<path d="M200.016 105.574C200.016 103.921 200.142 102.414 200.394 101.054C200.656 99.6831 201.039 98.4738 201.542 97.4257C202.046 96.3675 202.681 95.4756 203.447 94.75C204.213 94.0244 205.11 93.4752 206.138 93.1023C207.166 92.7294 208.32 92.543 209.6 92.543C210.154 92.543 210.683 92.5732 211.187 92.6337C211.691 92.6941 212.134 92.7798 212.517 92.8907V94.2814C212.144 94.1504 211.711 94.0496 211.217 93.9791C210.723 93.8984 210.194 93.8581 209.63 93.8581C207.896 93.8581 206.44 94.2612 205.261 95.0675C204.082 95.8636 203.18 97.0578 202.555 98.6501C201.94 100.232 201.598 102.198 201.527 104.546H201.633C201.925 104.001 202.334 103.482 202.858 102.989C203.392 102.495 204.052 102.092 204.838 101.779C205.634 101.467 206.571 101.311 207.65 101.311C208.98 101.311 210.124 101.578 211.081 102.112C212.049 102.646 212.789 103.412 213.303 104.41C213.827 105.407 214.089 106.591 214.089 107.962C214.089 109.433 213.817 110.718 213.273 111.817C212.739 112.915 211.963 113.772 210.945 114.387C209.937 114.991 208.723 115.294 207.302 115.294C206.093 115.294 205.034 115.047 204.127 114.553C203.22 114.059 202.459 113.369 201.845 112.482C201.24 111.595 200.782 110.567 200.469 109.398C200.167 108.219 200.016 106.944 200.016 105.574ZM207.287 113.963C208.95 113.963 210.24 113.444 211.157 112.406C212.084 111.358 212.547 109.877 212.547 107.962C212.547 106.309 212.124 105.004 211.278 104.047C210.431 103.079 209.151 102.596 207.438 102.596C206.249 102.596 205.221 102.832 204.354 103.306C203.498 103.78 202.837 104.369 202.374 105.075C201.91 105.77 201.678 106.455 201.678 107.131C201.678 107.766 201.769 108.471 201.951 109.247C202.132 110.023 202.439 110.774 202.873 111.499C203.306 112.215 203.88 112.804 204.596 113.268C205.322 113.732 206.219 113.963 207.287 113.963Z" fill="black"/>
<path d="M195.918 114.992H182.086V113.692L188.586 106.92C189.624 105.842 190.496 104.869 191.201 104.002C191.917 103.126 192.456 102.249 192.819 101.372C193.192 100.495 193.378 99.5128 193.378 98.4244C193.378 97.0034 192.96 95.8999 192.123 95.1138C191.297 94.3278 190.173 93.9347 188.752 93.9347C187.795 93.9347 186.873 94.106 185.986 94.4487C185.109 94.7913 184.253 95.2952 183.416 95.9604L182.57 94.8871C183.184 94.3832 183.829 93.9599 184.505 93.6173C185.19 93.2746 185.89 93.0176 186.606 92.8463C187.321 92.6649 188.037 92.5742 188.752 92.5742C190.012 92.5742 191.101 92.8161 192.018 93.2998C192.945 93.7735 193.665 94.4437 194.179 95.3103C194.693 96.177 194.95 97.1949 194.95 98.3639C194.95 99.5733 194.739 100.672 194.315 101.659C193.902 102.637 193.313 103.594 192.547 104.532C191.781 105.469 190.874 106.477 189.826 107.555L184.066 113.511V113.571H195.918V114.992Z" fill="black"/>
<path d="M171.641 107.328V105.922H179.139V107.328H171.641Z" fill="black"/>
<path d="M168.254 114.992H154.422V113.692L160.922 106.92C161.96 105.842 162.832 104.869 163.537 104.002C164.253 103.126 164.792 102.249 165.155 101.372C165.528 100.495 165.714 99.5128 165.714 98.4244C165.714 97.0034 165.296 95.8999 164.459 95.1138C163.633 94.3278 162.509 93.9347 161.088 93.9347C160.131 93.9347 159.209 94.106 158.322 94.4487C157.445 94.7913 156.589 95.2952 155.752 95.9604L154.906 94.8871C155.52 94.3832 156.165 93.9599 156.841 93.6173C157.526 93.2746 158.226 93.0176 158.942 92.8463C159.657 92.6649 160.373 92.5742 161.088 92.5742C162.348 92.5742 163.436 92.8161 164.354 93.2998C165.281 93.7735 166.001 94.4437 166.515 95.3103C167.029 96.177 167.286 97.1949 167.286 98.3639C167.286 99.5733 167.075 100.672 166.651 101.659C166.238 102.637 165.649 103.594 164.883 104.532C164.117 105.469 163.21 106.477 162.162 107.555L156.402 113.511V113.571H168.254V114.992Z" fill="black"/>
<path d="M150.566 114.992H136.734V113.692L143.235 106.92C144.273 105.842 145.144 104.869 145.85 104.002C146.565 103.126 147.104 102.249 147.467 101.372C147.84 100.495 148.027 99.5128 148.027 98.4244C148.027 97.0034 147.608 95.8999 146.772 95.1138C145.946 94.3278 144.822 93.9347 143.401 93.9347C142.443 93.9347 141.521 94.106 140.634 94.4487C139.758 94.7913 138.901 95.2952 138.065 95.9604L137.218 94.8871C137.833 94.3832 138.478 93.9599 139.153 93.6173C139.838 93.2746 140.539 93.0176 141.254 92.8463C141.97 92.6649 142.685 92.5742 143.401 92.5742C144.661 92.5742 145.749 92.8161 146.666 93.2998C147.593 93.7735 148.314 94.4437 148.828 95.3103C149.342 96.177 149.599 97.1949 149.599 98.3639C149.599 99.5733 149.387 100.672 148.964 101.659C148.551 102.637 147.961 103.594 147.195 104.532C146.429 105.469 145.522 106.477 144.474 107.555L138.715 113.511V113.571H150.566V114.992Z" fill="black"/>
<path d="M39.8851 35.5967V0H0V37.2765L0.0105438 42.8119C0.0898658 48.7707 2.03561 54.5809 5.61282 59.5409C9.19004 64.5009 14.2458 68.3987 20.1696 70.7636L39.8851 35.5967Z" fill="#FA4848"/>
<path d="M61.9018 0.517618C60.6706 1.28108 59.7086 2.64824 59.7086 2.64824L39.8828 34.9982V70.7636C47.3176 69.3929 54.0093 65.7627 58.8449 60.4767C63.6806 55.1907 66.3687 48.5676 66.4624 41.7087H66.4728V0.0608851C66.4728 0.0608851 63.1336 -0.245845 61.9018 0.517618Z" fill="#FA4848"/>
<path d="M86.375 0V44.4217C86.375 47.9858 86.9213 51.3879 88.0138 54.628C89.1792 57.8033 90.9637 60.5897 93.3673 62.9874C95.8437 65.3851 98.9756 67.2967 102.763 68.7224C106.623 70.0832 111.249 70.7636 116.638 70.7636C122.101 70.7636 126.726 70.0832 130.514 68.7224C134.374 67.2967 137.506 65.3851 139.909 62.9874C142.386 60.5897 144.17 57.8033 145.263 54.628C146.428 51.3879 147.011 47.9858 147.011 44.4217V0H139.582V42.9636C139.582 46.9813 139.072 50.4158 138.052 53.2671C137.032 56.0536 135.539 58.3541 133.573 60.1685C131.606 61.9182 129.203 63.2142 126.362 64.0566C123.521 64.8343 120.28 65.2231 116.638 65.2231C113.069 65.2231 109.865 64.8343 107.024 64.0566C104.183 63.2142 101.78 61.9182 99.8132 60.1685C97.8467 58.3541 96.3535 56.0536 95.3338 53.2671C94.3141 50.4158 93.8043 46.9813 93.8043 42.9636V0H86.375Z" fill="#1E1E1E"/>
<path d="M153.301 0L179.74 33.6322L151.771 69.4028H160.075L184.11 38.7839L207.819 69.4028H216.777L188.59 33.8266L215.248 0H206.945L184.11 29.0636L162.041 0H153.301Z" fill="#1E1E1E"/>
<path d="M223.029 0V69.4028H230.458V0H223.029Z" fill="#1E1E1E"/>
<path d="M245.5 0V69.4028H252.929V10.6923H253.148L298.598 69.4028H306.901V0H299.472V58.7105H299.253L253.803 0H245.5Z" fill="#1E1E1E"/>
<path d="M321.443 0V69.4028H348.429C360.301 69.1436 369.223 66.1951 375.196 60.5573C381.241 54.8548 384.264 46.2361 384.264 34.7014C384.264 23.1667 381.241 14.5804 375.196 8.94266C369.223 3.24009 360.301 0.259208 348.429 0H321.443ZM328.872 63.765V5.63776H344.714C350.322 5.63776 355.129 6.18858 359.135 7.29021C363.214 8.32704 366.565 10.0119 369.187 12.3448C371.809 14.6776 373.739 17.6909 374.977 21.3846C376.215 25.0783 376.835 29.5173 376.835 34.7014C376.835 39.8855 376.215 44.3245 374.977 48.0182C373.739 51.7119 371.809 54.7252 369.187 57.058C366.565 59.3909 363.214 61.1081 359.135 62.2098C355.129 63.2466 350.322 63.765 344.714 63.765H328.872Z" fill="#1E1E1E"/>
<path d="M395.689 0V69.4028H403.118V0H395.689Z" fill="#1E1E1E"/>
<path d="M429.304 42.186L444.927 6.60979L460.004 42.186H429.304ZM441.103 0L409.747 69.4028H417.614L427.009 47.8238H462.517L472.022 69.4028H479.998L449.407 0H441.103Z" fill="#1E1E1E"/>
</svg>
