<svg width="673" height="116" viewBox="0 0 673 116" fill="none" xmlns="http://www.w3.org/2000/svg">
<line x1="502.5" y1="1" x2="502.5" y2="115" stroke="#8C8C8C"/>
<path d="M665.819 115.365C664.14 115.365 662.786 114.99 661.759 114.238C660.731 113.461 659.98 112.358 659.503 110.929C659.027 109.476 658.789 107.772 658.789 105.817V93.6742C658.789 91.7945 659.015 90.1529 659.466 88.7495C659.917 87.3209 660.656 86.2182 661.684 85.4413C662.711 84.6393 664.077 84.2383 665.781 84.2383C667.31 84.2383 668.576 84.5014 669.578 85.0277C670.581 85.554 671.333 86.3435 671.834 87.3961C672.36 88.4237 672.623 89.7144 672.623 91.2682C672.623 91.3183 672.623 91.4311 672.623 91.6065C672.648 91.7569 672.661 91.8572 672.661 91.9073H669.917C669.917 89.9524 669.603 88.5615 668.977 87.7344C668.375 86.9074 667.348 86.4939 665.894 86.4939C665.042 86.4939 664.29 86.7069 663.639 87.133C662.987 87.534 662.473 88.2106 662.097 89.163C661.721 90.1154 661.533 91.406 661.533 93.0351V98.7868C661.984 98.3608 662.636 97.9598 663.488 97.5839C664.365 97.2079 665.343 97.02 666.42 97.02C668.1 97.02 669.415 97.3332 670.368 97.9598C671.32 98.5863 671.997 99.5638 672.398 100.892C672.799 102.22 672.999 103.95 672.999 106.08C672.999 107.935 672.761 109.564 672.285 110.967C671.809 112.371 671.044 113.461 669.992 114.238C668.964 114.99 667.573 115.365 665.819 115.365ZM665.819 113.072C666.821 113.072 667.636 112.859 668.263 112.433C668.914 111.982 669.403 111.28 669.729 110.328C670.054 109.376 670.217 108.135 670.217 106.606C670.217 104.952 670.117 103.574 669.917 102.471C669.741 101.368 669.34 100.541 668.714 99.9898C668.112 99.4385 667.147 99.1628 665.819 99.1628C665.217 99.1628 664.641 99.263 664.09 99.4635C663.538 99.639 663.037 99.8645 662.586 100.14C662.135 100.391 661.784 100.641 661.533 100.892V106.155C661.533 107.784 661.684 109.112 661.984 110.14C662.285 111.142 662.749 111.882 663.375 112.358C664.027 112.834 664.842 113.072 665.819 113.072Z" fill="white"/>
<path d="M639.906 114.99V112.959L648.102 100.403C648.703 99.4761 649.267 98.5863 649.793 97.7342C650.32 96.8571 650.746 95.9423 651.071 94.9899C651.422 94.0376 651.598 92.9599 651.598 91.7569C651.598 90.1279 651.259 88.8497 650.583 87.9224C649.931 86.9951 648.916 86.5315 647.538 86.5315C646.31 86.5315 645.357 86.8072 644.681 87.3585C644.004 87.9099 643.528 88.6743 643.252 89.6517C643.001 90.6041 642.876 91.6817 642.876 92.8847V93.5614H640.132V92.8095C640.132 90.9299 640.382 89.3635 640.884 88.1104C641.385 86.8322 642.162 85.8673 643.214 85.2157C644.292 84.5641 645.696 84.2383 647.425 84.2383C649.731 84.2383 651.46 84.9275 652.613 86.3059C653.766 87.6593 654.342 89.5515 654.342 91.9825C654.342 93.2105 654.167 94.3383 653.816 95.3659C653.465 96.3934 653.014 97.3834 652.462 98.3357C651.911 99.263 651.335 100.203 650.733 101.155L643.139 112.659H653.703V114.99H639.906Z" fill="white"/>
<path d="M628.343 115.365C626.538 115.365 625.11 114.977 624.057 114.2C623.005 113.423 622.253 112.358 621.802 111.005C621.351 109.651 621.125 108.11 621.125 106.381V93.1479C621.125 91.3935 621.351 89.8522 621.802 88.5239C622.278 87.1705 623.042 86.1179 624.095 85.3661C625.173 84.6142 626.589 84.2383 628.343 84.2383C630.147 84.2383 631.576 84.6142 632.629 85.3661C633.706 86.1179 634.471 87.1705 634.922 88.5239C635.398 89.8522 635.636 91.3935 635.636 93.1479V106.381C635.636 108.135 635.398 109.689 634.922 111.042C634.471 112.396 633.719 113.461 632.666 114.238C631.613 114.99 630.172 115.365 628.343 115.365ZM628.343 113.185C629.521 113.185 630.423 112.884 631.05 112.283C631.701 111.681 632.152 110.892 632.403 109.914C632.679 108.912 632.816 107.809 632.816 106.606V92.9599C632.816 91.7319 632.679 90.6291 632.403 89.6517C632.152 88.6492 631.714 87.8598 631.087 87.2833C630.461 86.7069 629.546 86.4187 628.343 86.4187C627.19 86.4187 626.288 86.7069 625.636 87.2833C625.01 87.8598 624.559 88.6492 624.283 89.6517C624.032 90.6291 623.907 91.7319 623.907 92.9599V106.606C623.907 107.809 624.032 108.912 624.283 109.914C624.559 110.892 625.022 111.681 625.674 112.283C626.325 112.884 627.215 113.185 628.343 113.185Z" fill="white"/>
<path d="M602.238 114.99V112.959L610.434 100.403C611.035 99.4761 611.599 98.5863 612.125 97.7342C612.652 96.8571 613.078 95.9423 613.403 94.9899C613.754 94.0376 613.93 92.9599 613.93 91.7569C613.93 90.1279 613.591 88.8497 612.915 87.9224C612.263 86.9951 611.248 86.5315 609.87 86.5315C608.642 86.5315 607.689 86.8072 607.013 87.3585C606.336 87.9099 605.86 88.6743 605.584 89.6517C605.333 90.6041 605.208 91.6817 605.208 92.8847V93.5614H602.464V92.8095C602.464 90.9299 602.714 89.3635 603.216 88.1104C603.717 86.8322 604.494 85.8673 605.546 85.2157C606.624 84.5641 608.028 84.2383 609.757 84.2383C612.063 84.2383 613.792 84.9275 614.945 86.3059C616.098 87.6593 616.674 89.5515 616.674 91.9825C616.674 93.2105 616.499 94.3383 616.148 95.3659C615.797 96.3934 615.346 97.3834 614.794 98.3357C614.243 99.263 613.667 100.203 613.065 101.155L605.471 112.659H616.035V114.99H602.238Z" fill="white"/>
<path d="M579.816 114.99V84.5391H582.561V103.862L589.816 93.2607H592.711L587.222 101.644L592.485 114.99H589.703L585.117 103.185L582.561 106.757V114.99H579.816Z" fill="white"/>
<path d="M570.396 115.329C569.042 115.329 567.927 115.066 567.05 114.54C566.198 113.989 565.559 113.086 565.133 111.833C564.732 110.58 564.531 108.913 564.531 106.833V101.345C564.531 99.1894 564.744 97.5102 565.17 96.3072C565.596 95.0792 566.248 94.2145 567.125 93.7133C568.002 93.187 569.105 92.9238 570.433 92.9238C571.962 92.9238 573.128 93.2496 573.93 93.9012C574.732 94.5529 575.283 95.5428 575.584 96.8711C575.909 98.1743 576.072 99.8535 576.072 101.909V103.863H567.276V107.66C567.276 109.064 567.376 110.179 567.576 111.006C567.802 111.808 568.14 112.385 568.591 112.735C569.067 113.086 569.669 113.262 570.396 113.262C570.947 113.262 571.448 113.161 571.9 112.961C572.351 112.735 572.702 112.322 572.952 111.72C573.228 111.094 573.366 110.217 573.366 109.089V107.585H576.035V108.788C576.035 110.768 575.621 112.36 574.794 113.562C573.992 114.74 572.526 115.329 570.396 115.329ZM567.276 102.285H573.366V100.48C573.366 99.3272 573.303 98.3498 573.178 97.5478C573.052 96.7207 572.777 96.0942 572.351 95.6681C571.95 95.217 571.298 94.9915 570.396 94.9915C569.644 94.9915 569.03 95.1544 568.554 95.4802C568.103 95.806 567.777 96.3949 567.576 97.247C567.376 98.0741 567.276 99.2645 567.276 100.818V102.285Z" fill="white"/>
<path d="M555.564 115.329C554.21 115.329 553.095 115.066 552.218 114.54C551.366 113.989 550.727 113.086 550.301 111.833C549.9 110.58 549.699 108.913 549.699 106.833V101.345C549.699 99.1894 549.912 97.5102 550.338 96.3072C550.764 95.0792 551.416 94.2145 552.293 93.7133C553.17 93.187 554.273 92.9238 555.601 92.9238C557.13 92.9238 558.296 93.2496 559.098 93.9012C559.899 94.5529 560.451 95.5428 560.752 96.8711C561.077 98.1743 561.24 99.8535 561.24 101.909V103.863H552.444V107.66C552.444 109.064 552.544 110.179 552.744 111.006C552.97 111.808 553.308 112.385 553.759 112.735C554.235 113.086 554.837 113.262 555.564 113.262C556.115 113.262 556.616 113.161 557.067 112.961C557.519 112.735 557.869 112.322 558.12 111.72C558.396 111.094 558.534 110.217 558.534 109.089V107.585H561.203V108.788C561.203 110.768 560.789 112.36 559.962 113.562C559.16 114.74 557.694 115.329 555.564 115.329ZM552.444 102.285H558.534V100.48C558.534 99.3272 558.471 98.3498 558.346 97.5478C558.22 96.7207 557.945 96.0942 557.519 95.6681C557.118 95.217 556.466 94.9915 555.564 94.9915C554.812 94.9915 554.198 95.1544 553.722 95.4802C553.271 95.806 552.945 96.3949 552.744 97.247C552.544 98.0741 552.444 99.2645 552.444 100.818V102.285Z" fill="white"/>
<path d="M528.482 114.99L523.332 84.5391H525.776L529.798 109.275L534.384 84.9902H536.753L541.452 109.313L545.174 84.5391H547.58L542.655 114.99H540.437L535.587 89.8773L530.813 114.99H528.482Z" fill="white"/>
<path d="M646.004 80.1162V51.2446H648.748V53.0491C649.199 52.4977 649.763 52.009 650.44 51.5829C651.117 51.1318 651.944 50.9062 652.921 50.9062C653.974 50.9062 654.813 51.1569 655.44 51.6581C656.091 52.1343 656.593 52.7859 656.944 53.613C657.294 54.44 657.532 55.3673 657.658 56.3949C657.783 57.4224 657.846 58.475 657.846 59.5527V64.1391C657.846 65.9936 657.695 67.6101 657.395 68.9886C657.094 70.3419 656.555 71.4071 655.778 72.184C655.026 72.9359 653.974 73.3118 652.62 73.3118C651.743 73.3118 650.979 73.0862 650.327 72.6351C649.701 72.184 649.174 71.7203 648.748 71.2442V80.1162H646.004ZM652.207 71.1314C653.034 71.1314 653.648 70.8682 654.049 70.3419C654.475 69.8156 654.751 69.0387 654.876 68.0111C655.026 66.9585 655.101 65.6929 655.101 64.2142V59.5527C655.101 58.1492 655.026 56.9713 654.876 56.0189C654.751 55.0415 654.475 54.3022 654.049 53.8009C653.623 53.2997 652.984 53.0491 652.132 53.0491C651.43 53.0491 650.778 53.237 650.177 53.613C649.6 53.9889 649.124 54.3648 648.748 54.7408V69.5525C649.149 69.9785 649.638 70.3545 650.214 70.6803C650.816 70.981 651.48 71.1314 652.207 71.1314Z" fill="white"/>
<path d="M638.633 72.9737V51.2448H641.377V72.9737H638.633ZM638.633 48.2374V44.5156H641.377V48.2374H638.633Z" fill="white"/>
<path d="M622.879 72.9739V42.5234H625.623V53.5382C626.35 52.7613 627.152 52.1348 628.029 51.6586C628.906 51.1573 629.871 50.9067 630.924 50.9067C631.651 50.9067 632.252 51.0947 632.728 51.4706C633.23 51.8215 633.605 52.3478 633.856 53.0495C634.132 53.7262 634.27 54.5533 634.27 55.5307V72.9739H631.488V56.1322C631.488 55.0044 631.312 54.2149 630.961 53.7638C630.636 53.2876 630.122 53.0495 629.42 53.0495C628.794 53.0495 628.142 53.25 627.465 53.651C626.814 54.0269 626.2 54.5157 625.623 55.1172V72.9739H622.879Z" fill="white"/>
<path d="M614.144 73.3118C612.415 73.3118 611.037 72.7604 610.009 71.6577C608.982 70.5299 608.393 69.0262 608.242 67.1465L610.535 66.4322C610.686 68.1114 611.074 69.3394 611.701 70.1164C612.327 70.8682 613.204 71.2442 614.332 71.2442C615.285 71.2442 616.011 70.981 616.513 70.4547C617.039 69.9033 617.302 69.1389 617.302 68.1615C617.302 67.4598 617.089 66.758 616.663 66.0563C616.237 65.3295 615.573 64.5776 614.671 63.8007L611.701 61.2444C610.723 60.4173 609.984 59.5903 609.483 58.7632C608.982 57.9362 608.731 56.9462 608.731 55.7934C608.731 54.7408 608.944 53.8636 609.37 53.1618C609.821 52.435 610.435 51.8837 611.212 51.5077C611.989 51.1067 612.891 50.9062 613.919 50.9062C615.598 50.9062 616.864 51.4451 617.716 52.5228C618.593 53.5754 619.069 54.9413 619.144 56.6204L617.189 57.2595C617.114 56.2821 616.951 55.4801 616.701 54.8535C616.45 54.2019 616.099 53.7257 615.648 53.425C615.197 53.1242 614.658 52.9739 614.032 52.9739C613.204 52.9739 612.528 53.212 612.002 53.6881C611.5 54.1393 611.25 54.7783 611.25 55.6054C611.25 56.257 611.375 56.8334 611.626 57.3347C611.876 57.8359 612.34 58.3998 613.017 59.0264L616.099 61.7707C616.701 62.297 617.277 62.8609 617.828 63.4624C618.38 64.0639 618.831 64.7405 619.182 65.4924C619.533 66.2192 619.708 67.0839 619.708 68.0863C619.708 69.2141 619.47 70.1665 618.994 70.9434C618.543 71.6953 617.904 72.2842 617.077 72.7103C616.25 73.1113 615.272 73.3118 614.144 73.3118Z" fill="white"/>
<path d="M598.176 72.974V51.2451H600.958V54.215C601.659 53.0621 602.461 52.2476 603.364 51.7714C604.266 51.2702 605.131 51.0195 605.958 51.0195C606.033 51.0195 606.108 51.0195 606.183 51.0195C606.258 51.0195 606.346 51.0321 606.446 51.0571V53.9894C606.271 53.9142 606.058 53.8641 605.807 53.839C605.557 53.7889 605.318 53.7638 605.093 53.7638C604.241 53.7638 603.464 53.9643 602.762 54.3653C602.085 54.7663 601.484 55.4054 600.958 56.2826V72.974H598.176Z" fill="white"/>
<path d="M588.607 73.3118C587.253 73.3118 586.138 73.0486 585.261 72.5223C584.409 71.971 583.77 71.0687 583.344 69.8156C582.943 68.5625 582.742 66.8959 582.742 64.8157V59.3271C582.742 57.1718 582.955 55.4926 583.381 54.2896C583.807 53.0616 584.459 52.1969 585.336 51.6957C586.213 51.1694 587.316 50.9062 588.644 50.9062C590.173 50.9062 591.338 51.2321 592.14 51.8837C592.942 52.5353 593.494 53.5252 593.795 54.8535C594.12 56.1568 594.283 57.8359 594.283 59.891V61.8459H585.486V65.6428C585.486 67.0463 585.587 68.1615 585.787 68.9886C586.013 69.7906 586.351 70.367 586.802 70.7179C587.278 71.0687 587.88 71.2442 588.607 71.2442C589.158 71.2442 589.659 71.1439 590.11 70.9434C590.562 70.7179 590.912 70.3043 591.163 69.7028C591.439 69.0763 591.577 68.1991 591.577 67.0713V65.5676H594.246V66.7706C594.246 68.7505 593.832 70.3419 593.005 71.5449C592.203 72.7228 590.737 73.3118 588.607 73.3118ZM585.486 60.267H591.577V58.4625C591.577 57.3096 591.514 56.3322 591.389 55.5302C591.263 54.7032 590.988 54.0766 590.562 53.6506C590.161 53.1994 589.509 52.9739 588.607 52.9739C587.855 52.9739 587.241 53.1368 586.765 53.4626C586.314 53.7884 585.988 54.3774 585.787 55.2295C585.587 56.0565 585.486 57.247 585.486 58.8008V60.267Z" fill="white"/>
<path d="M572.436 73.3123C570.582 73.3123 569.241 72.6105 568.414 71.207C567.612 69.8036 567.211 67.4728 567.211 64.2147V60.1922C567.211 58.2875 567.349 56.6459 567.624 55.2675C567.9 53.8891 568.401 52.824 569.128 52.0721C569.88 51.2952 570.945 50.9067 572.324 50.9067C573.176 50.9067 573.915 51.1072 574.542 51.5082C575.193 51.8841 575.732 52.3102 576.158 52.7864V42.5234H578.902V72.9739H576.158V71.4326C575.732 71.9088 575.206 72.3474 574.579 72.7484C573.978 73.1243 573.263 73.3123 572.436 73.3123ZM573 71.1318C573.602 71.1318 574.166 70.994 574.692 70.7183C575.243 70.4426 575.732 70.1043 576.158 69.7033V54.5909C575.782 54.24 575.319 53.9016 574.767 53.5758C574.216 53.225 573.602 53.0495 572.925 53.0495C571.722 53.0495 570.92 53.5884 570.519 54.666C570.143 55.7186 569.955 57.26 569.955 59.29V64.4403C569.955 65.8939 570.03 67.1219 570.181 68.1244C570.356 69.1269 570.657 69.8787 571.083 70.38C571.534 70.8812 572.173 71.1318 573 71.1318Z" fill="white"/>
<path d="M556.47 73.3118C555.618 73.3118 554.866 73.0988 554.215 72.6727C553.563 72.2216 553.049 71.6326 552.673 70.9058C552.297 70.154 552.109 69.3394 552.109 68.4623C552.109 67.3595 552.272 66.4197 552.598 65.6428C552.924 64.8659 553.425 64.1766 554.102 63.5752C554.778 62.9486 555.681 62.3471 556.809 61.7707C557.936 61.1692 559.29 60.505 560.869 59.7782V58.2369C560.869 56.9086 560.793 55.8685 560.643 55.1167C560.493 54.3398 560.217 53.7884 559.816 53.4626C559.44 53.1368 558.889 52.9739 558.162 52.9739C557.611 52.9739 557.097 53.0867 556.621 53.3122C556.169 53.5378 555.806 53.9262 555.53 54.4776C555.28 55.0039 555.154 55.7432 555.154 56.6956V57.4475L552.448 57.4099C552.473 55.2044 552.936 53.5754 553.839 52.5228C554.766 51.4451 556.257 50.9062 558.312 50.9062C560.267 50.9062 561.633 51.4952 562.41 52.6731C563.212 53.826 563.613 55.6305 563.613 58.0865V68.6502C563.613 69.0262 563.625 69.5149 563.65 70.1164C563.676 70.6928 563.701 71.2442 563.726 71.7705C563.776 72.2968 563.813 72.6978 563.838 72.9734H561.395C561.32 72.4973 561.232 71.971 561.132 71.3945C561.057 70.793 561.006 70.3169 560.981 69.966C560.681 70.8432 560.142 71.6201 559.365 72.2968C558.588 72.9734 557.623 73.3118 556.47 73.3118ZM557.372 70.981C557.924 70.981 558.413 70.8432 558.839 70.5675C559.29 70.2918 559.691 69.966 560.042 69.5901C560.392 69.1891 560.668 68.7881 560.869 68.3871V61.6203C559.816 62.1717 558.901 62.6729 558.124 63.124C557.372 63.5752 556.758 64.0137 556.282 64.4398C555.806 64.8658 555.443 65.3546 555.192 65.9059C554.966 66.4322 554.854 67.0588 554.854 67.7856C554.854 68.9384 555.104 69.7655 555.606 70.2667C556.107 70.7429 556.696 70.981 557.372 70.981Z" fill="white"/>
<path d="M543.779 73.3118C542.425 73.3118 541.31 73.0486 540.433 72.5223C539.581 71.971 538.942 71.0687 538.516 69.8156C538.115 68.5625 537.914 66.8959 537.914 64.8157V59.3271C537.914 57.1718 538.127 55.4926 538.553 54.2896C538.979 53.0616 539.631 52.1969 540.508 51.6957C541.385 51.1694 542.488 50.9062 543.816 50.9062C545.345 50.9062 546.51 51.2321 547.312 51.8837C548.114 52.5353 548.666 53.5252 548.966 54.8535C549.292 56.1568 549.455 57.8359 549.455 59.891V61.8459H540.658V65.6428C540.658 67.0463 540.759 68.1615 540.959 68.9886C541.185 69.7906 541.523 70.367 541.974 70.7179C542.45 71.0687 543.052 71.2442 543.779 71.2442C544.33 71.2442 544.831 71.1439 545.282 70.9434C545.733 70.7179 546.084 70.3043 546.335 69.7028C546.611 69.0763 546.748 68.1991 546.748 67.0713V65.5676H549.418V66.7706C549.418 68.7505 549.004 70.3419 548.177 71.5449C547.375 72.7228 545.909 73.3118 543.779 73.3118ZM540.658 60.267H546.748V58.4625C546.748 57.3096 546.686 56.3322 546.56 55.5302C546.435 54.7032 546.16 54.0766 545.733 53.6506C545.332 53.1994 544.681 52.9739 543.779 52.9739C543.027 52.9739 542.413 53.1368 541.937 53.4626C541.485 53.7884 541.16 54.3774 540.959 55.2295C540.759 56.0565 540.658 57.247 540.658 58.8008V60.267Z" fill="white"/>
<path d="M524.684 72.9739V42.5234H527.541V70.8311H536.187V72.9739H524.684Z" fill="white"/>
<path d="M596.188 30.9578V9.22896H598.932V11.4846C599.634 10.7327 600.423 10.1187 601.3 9.64249C602.177 9.14125 603.13 8.89062 604.157 8.89062C604.884 8.89062 605.498 9.07859 605.999 9.45452C606.501 9.80539 606.876 10.3317 607.127 11.0334C607.378 11.7101 607.503 12.5372 607.503 13.5146V30.9578H604.759V14.1161C604.759 12.9883 604.583 12.1988 604.232 11.7477C603.907 11.2715 603.393 11.0334 602.691 11.0334C602.065 11.0334 601.425 11.2214 600.774 11.5973C600.122 11.9733 599.508 12.462 598.932 13.0635V30.9578H596.188Z" fill="white"/>
<path d="M585.452 38.1005C584.023 38.1005 582.77 37.9627 581.692 37.687C580.64 37.4113 579.825 36.9727 579.249 36.3712C578.698 35.7948 578.422 35.0555 578.422 34.1532C578.422 33.4014 578.622 32.6996 579.023 32.048C579.424 31.4215 579.926 30.8701 580.527 30.3939C581.129 29.9177 581.743 29.5418 582.369 29.2661L583.873 29.6045C583.497 29.8551 583.058 30.1684 582.557 30.5443C582.081 30.9202 581.667 31.3463 581.317 31.8225C580.991 32.2986 580.828 32.8375 580.828 33.439C580.828 34.2911 581.216 34.9051 581.993 35.281C582.77 35.682 583.961 35.8825 585.565 35.8825C587.043 35.8825 588.221 35.657 589.098 35.2059C590.001 34.7798 590.452 34.0781 590.452 33.1006C590.452 32.5994 590.339 32.1608 590.113 31.7849C589.913 31.434 589.524 31.1207 588.948 30.845C588.372 30.5694 587.507 30.3438 586.354 30.1684L582.595 29.5669C581.542 29.3664 580.765 29.0531 580.264 28.627C579.788 28.201 579.55 27.6622 579.55 27.0105C579.55 26.2086 579.813 25.4943 580.339 24.8677C580.89 24.2161 581.605 23.5144 582.482 22.7625L583.535 23.5144C583.159 23.9154 582.783 24.3665 582.407 24.8677C582.056 25.3439 581.88 25.795 581.88 26.2211C581.88 26.597 582.018 26.8852 582.294 27.0857C582.595 27.2612 583.058 27.399 583.685 27.4992L587.256 28.0256C589.011 28.2762 590.351 28.8025 591.279 29.6045C592.231 30.4065 592.707 31.5468 592.707 33.0254C592.707 34.1783 592.394 35.1307 591.767 35.8825C591.166 36.6595 590.314 37.2234 589.211 37.5742C588.133 37.9251 586.88 38.1005 585.452 38.1005ZM585.64 24.1159C584.186 24.1159 582.996 23.7775 582.068 23.1008C581.166 22.4242 580.502 21.5094 580.076 20.3565C579.65 19.2037 579.437 17.913 579.437 16.4844C579.437 15.081 579.65 13.8153 580.076 12.6875C580.527 11.5347 581.204 10.6199 582.106 9.94323C583.008 9.24149 584.161 8.89062 585.565 8.89062C586.943 8.89062 588.083 9.25403 588.986 9.98083C589.888 10.6826 590.552 11.6224 590.978 12.8003C591.429 13.9532 591.655 15.1937 591.655 16.522C591.655 17.9756 591.454 19.2789 591.053 20.4317C590.652 21.5846 590.013 22.4868 589.136 23.1384C588.259 23.7901 587.093 24.1159 585.64 24.1159ZM585.64 22.1234C586.417 22.1234 587.031 21.9605 587.482 21.6347C587.958 21.2838 588.309 20.8327 588.534 20.2814C588.785 19.73 588.948 19.1285 589.023 18.4769C589.098 17.8002 589.136 17.1361 589.136 16.4844C589.136 15.8328 589.086 15.1812 588.986 14.5296C588.91 13.878 588.747 13.2765 588.497 12.7251C588.246 12.1738 587.883 11.7352 587.407 11.4094C586.956 11.0585 586.354 10.8831 585.602 10.8831C584.85 10.8831 584.236 11.0585 583.76 11.4094C583.309 11.7602 582.946 12.2239 582.67 12.8003C582.394 13.3517 582.206 13.9532 582.106 14.6048C582.031 15.2313 581.993 15.8579 581.993 16.4844C581.993 17.0859 582.031 17.725 582.106 18.4017C582.206 19.0533 582.382 19.6673 582.632 20.2438C582.883 20.7951 583.246 21.2463 583.723 21.5971C584.199 21.948 584.838 22.1234 585.64 22.1234ZM590.828 12.9131L590.189 11.7477C590.439 11.2465 590.878 10.7327 591.504 10.2064C592.156 9.68008 592.908 9.25403 593.76 8.92822L594.512 10.8455C594.086 10.9457 593.61 11.1086 593.083 11.3342C592.582 11.5597 592.118 11.8104 591.692 12.086C591.266 12.3617 590.978 12.6374 590.828 12.9131Z" fill="white"/>
<path d="M572.516 30.958V9.22918H575.26V30.958H572.516ZM572.516 6.22172V2.5H575.26V6.22172H572.516Z" fill="white"/>
<path d="M563.519 31.2962C561.79 31.2962 560.412 30.7448 559.384 29.6421C558.357 28.5143 557.768 27.0105 557.617 25.1309L559.91 24.4166C560.061 26.0958 560.449 27.3238 561.076 28.1007C561.702 28.8526 562.579 29.2285 563.707 29.2285C564.66 29.2285 565.386 28.9654 565.888 28.4391C566.414 27.8877 566.677 27.1233 566.677 26.1459C566.677 25.4442 566.464 24.7424 566.038 24.0407C565.612 23.3139 564.948 22.562 564.046 21.7851L561.076 19.2288C560.098 18.4017 559.359 17.5746 558.858 16.7476C558.357 15.9205 558.106 14.9306 558.106 13.7777C558.106 12.7251 558.319 11.848 558.745 11.1462C559.196 10.4194 559.81 9.86805 560.587 9.49211C561.364 9.09112 562.266 8.89062 563.294 8.89062C564.973 8.89062 566.239 9.42946 567.091 10.5071C567.968 11.5597 568.444 12.9256 568.519 14.6048L566.564 15.2439C566.489 14.2664 566.326 13.4645 566.076 12.8379C565.825 12.1863 565.474 11.7101 565.023 11.4094C564.572 11.1086 564.033 10.9582 563.407 10.9582C562.579 10.9582 561.903 11.1963 561.377 11.6725C560.875 12.1236 560.625 12.7627 560.625 13.5898C560.625 14.2414 560.75 14.8178 561.001 15.3191C561.251 15.8203 561.715 16.3842 562.392 17.0108L565.474 19.7551C566.076 20.2814 566.652 20.8453 567.203 21.4467C567.755 22.0482 568.206 22.7249 568.557 23.4768C568.908 24.2036 569.083 25.0682 569.083 26.0707C569.083 27.1985 568.845 28.1509 568.369 28.9278C567.918 29.6797 567.279 30.2686 566.452 30.6947C565.625 31.0957 564.647 31.2962 563.519 31.2962Z" fill="white"/>
<path d="M549.177 31.2962C547.824 31.2962 546.708 31.033 545.831 30.5067C544.979 29.9553 544.34 29.0531 543.914 27.8C543.513 26.5469 543.312 24.8803 543.312 22.8001V17.3115C543.312 15.1562 543.526 13.477 543.952 12.274C544.378 11.046 545.029 10.1813 545.906 9.68008C546.784 9.15378 547.886 8.89062 549.215 8.89062C550.743 8.89062 551.909 9.21643 552.711 9.86805C553.513 10.5197 554.064 11.5096 554.365 12.8379C554.691 14.1411 554.854 15.8203 554.854 17.8754V19.8302H546.057V23.6272C546.057 25.0306 546.157 26.1459 546.358 26.9729C546.583 27.7749 546.921 28.3514 547.373 28.7022C547.849 29.0531 548.45 29.2285 549.177 29.2285C549.728 29.2285 550.23 29.1283 550.681 28.9278C551.132 28.7022 551.483 28.2887 551.733 27.6872C552.009 27.0607 552.147 26.1835 552.147 25.0557V23.552H554.816V24.7549C554.816 26.7349 554.402 28.3263 553.575 29.5293C552.773 30.7072 551.307 31.2962 549.177 31.2962ZM546.057 18.2513H552.147V16.4469C552.147 15.294 552.084 14.3166 551.959 13.5146C551.834 12.6875 551.558 12.061 551.132 11.6349C550.731 11.1838 550.079 10.9582 549.177 10.9582C548.425 10.9582 547.811 11.1212 547.335 11.447C546.884 11.7728 546.558 12.3617 546.358 13.2138C546.157 14.0409 546.057 15.2313 546.057 16.7852V18.2513Z" fill="white"/>
<path d="M524.684 30.9583V0.507812H531.3C533.43 0.507812 535.084 0.883745 536.262 1.63561C537.465 2.36241 538.317 3.40249 538.819 4.75584C539.32 6.1092 539.57 7.67558 539.57 9.45499V21.56C539.57 23.4397 539.32 25.0938 538.819 26.5223C538.317 27.9258 537.49 29.016 536.337 29.7929C535.185 30.5698 533.593 30.9583 531.563 30.9583H524.684ZM527.541 28.8155H531.375C532.979 28.8155 534.157 28.4897 534.909 27.8381C535.661 27.1614 536.137 26.2466 536.337 25.0938C536.538 23.9158 536.638 22.5875 536.638 21.1089V9.75574C536.638 8.22695 536.5 6.94878 536.225 5.92123C535.974 4.86862 535.46 4.07917 534.683 3.55286C533.932 3.00149 532.791 2.72581 531.262 2.72581H527.541V28.8155Z" fill="white"/>
<path d="M475.199 92.8887V107.189C475.199 108.912 474.866 110.379 474.201 111.588C473.536 112.787 472.579 113.704 471.329 114.339C470.089 114.974 468.603 115.292 466.87 115.292C464.239 115.292 462.219 114.581 460.808 113.16C459.397 111.729 458.691 109.719 458.691 107.129V92.8887H460.233V107.129C460.233 109.346 460.808 111.034 461.957 112.193C463.116 113.342 464.778 113.916 466.945 113.916C468.366 113.916 469.575 113.664 470.573 113.16C471.571 112.646 472.332 111.9 472.856 110.923C473.38 109.935 473.642 108.741 473.642 107.34V92.8887H475.199Z" fill="white"/>
<path d="M445.87 92.8887C447.624 92.8887 449.085 93.0802 450.254 93.4631C451.433 93.8461 452.32 94.4759 452.915 95.3527C453.509 96.2295 453.807 97.4136 453.807 98.9051C453.807 100.024 453.6 100.986 453.187 101.792C452.784 102.589 452.224 103.244 451.509 103.758C450.793 104.272 449.967 104.665 449.03 104.937L455.092 114.989H453.247L447.548 105.375H442.061V114.989H440.504V92.8887H445.87ZM445.719 94.2643H442.061V103.999H446.46C448.264 103.999 449.67 103.566 450.677 102.699C451.695 101.833 452.204 100.588 452.204 98.9656C452.204 97.1818 451.67 95.9523 450.602 95.2771C449.534 94.6019 447.906 94.2643 445.719 94.2643Z" fill="white"/>
<path d="M434.504 92.8887V107.189C434.504 108.912 434.171 110.379 433.506 111.588C432.841 112.787 431.883 113.704 430.634 114.339C429.394 114.974 427.908 115.292 426.174 115.292C423.544 115.292 421.523 114.581 420.112 113.16C418.702 111.729 417.996 109.719 417.996 107.129V92.8887H419.538V107.129C419.538 109.346 420.112 111.034 421.261 112.193C422.42 113.342 424.083 113.916 426.25 113.916C427.671 113.916 428.88 113.664 429.878 113.16C430.876 112.646 431.636 111.9 432.16 110.923C432.685 109.935 432.947 108.741 432.947 107.34V92.8887H434.504Z" fill="white"/>
<path d="M402.352 114.989V92.8887H403.909V113.568H414.43V114.989H402.352Z" fill="white"/>
<path d="M397.59 114.989L394.582 107.173H385.3L382.232 114.989H380.645L389.337 92.8125H390.758L399.223 114.989H397.59ZM394.083 105.768L391.03 97.4836C390.949 97.2719 390.848 96.9998 390.727 96.6673C390.617 96.3347 390.496 95.982 390.365 95.6091C390.244 95.2362 390.123 94.8835 390.002 94.5509C389.901 94.9036 389.79 95.2564 389.669 95.6091C389.548 95.9618 389.432 96.3045 389.322 96.637C389.211 96.9595 389.105 97.2518 389.004 97.5138L385.83 105.768H394.083Z" fill="white"/>
<path d="M370.077 103.833H378.194V113.977C377.136 114.42 376.008 114.753 374.808 114.974C373.609 115.186 372.334 115.292 370.984 115.292C368.636 115.292 366.655 114.848 365.043 113.961C363.44 113.065 362.226 111.77 361.4 110.076C360.573 108.383 360.16 106.348 360.16 103.969C360.16 101.752 360.609 99.7819 361.506 98.0586C362.413 96.3353 363.708 94.9849 365.391 94.0073C367.074 93.0298 369.089 92.541 371.437 92.541C372.647 92.541 373.785 92.6519 374.854 92.8736C375.932 93.0953 376.955 93.4279 377.922 93.8713L377.303 95.262C376.345 94.8186 375.368 94.486 374.37 94.2643C373.382 94.0426 372.38 93.9318 371.362 93.9318C369.366 93.9318 367.648 94.3601 366.207 95.2167C364.776 96.0632 363.677 97.2423 362.911 98.754C362.156 100.256 361.778 101.989 361.778 103.954C361.778 106.181 362.145 108.031 362.881 109.502C363.617 110.973 364.69 112.077 366.101 112.813C367.522 113.548 369.245 113.916 371.271 113.916C372.38 113.916 373.372 113.835 374.249 113.674C375.136 113.513 375.937 113.301 376.653 113.039V105.254H370.077V103.833Z" fill="white"/>
<path d="M355.096 114.989H353.509L340.448 95.4434H340.372C340.392 95.9876 340.407 96.5419 340.418 97.1062C340.438 97.6605 340.453 98.235 340.463 98.8296C340.483 99.4141 340.493 100.019 340.493 100.644V114.989H339.012V92.8887H340.614L353.63 112.374H353.705C353.695 111.931 353.68 111.417 353.66 110.832C353.65 110.248 353.635 109.648 353.614 109.033C353.604 108.419 353.599 107.839 353.599 107.295V92.8887H355.096V114.989Z" fill="white"/>
<path d="M333.977 114.989H321.898V92.8887H333.977V94.2945H323.455V102.669H333.387V104.075H323.455V113.583H333.977V114.989Z" fill="white"/>
<path d="M302.488 92.8887H308.55C311.281 92.8887 313.277 93.317 314.536 94.1736C315.806 95.0302 316.441 96.3958 316.441 98.2702C316.441 99.1168 316.275 99.8877 315.942 100.583C315.62 101.278 315.136 101.863 314.491 102.337C313.856 102.8 313.07 103.118 312.133 103.289V103.395C313.251 103.566 314.174 103.879 314.899 104.332C315.635 104.775 316.179 105.365 316.532 106.101C316.895 106.826 317.076 107.693 317.076 108.701C317.076 110.152 316.743 111.341 316.078 112.268C315.423 113.195 314.511 113.881 313.342 114.324C312.173 114.768 310.823 114.989 309.291 114.989H302.488V92.8887ZM304.045 102.715H308.943C311.019 102.715 312.521 102.352 313.448 101.626C314.375 100.901 314.839 99.8273 314.839 98.4063C314.839 96.9349 314.34 95.8767 313.342 95.2318C312.344 94.5868 310.747 94.2643 308.55 94.2643H304.045V102.715ZM304.045 104.075V113.614H309.245C311.291 113.614 312.833 113.201 313.871 112.374C314.909 111.538 315.428 110.293 315.428 108.64C315.428 107.552 315.186 106.675 314.703 106.01C314.219 105.335 313.493 104.846 312.526 104.544C311.568 104.231 310.374 104.075 308.943 104.075H304.045Z" fill="white"/>
<path d="M286.434 113.917C286.434 113.473 286.534 113.136 286.736 112.904C286.937 112.662 287.235 112.541 287.628 112.541C288.061 112.541 288.379 112.662 288.58 112.904C288.782 113.136 288.883 113.473 288.883 113.917C288.883 114.36 288.782 114.703 288.58 114.945C288.379 115.186 288.061 115.307 287.628 115.307C287.235 115.307 286.937 115.186 286.736 114.945C286.534 114.703 286.434 114.36 286.434 113.917Z" fill="white"/>
<path d="M266.345 92.8887C268.975 92.8887 270.945 93.3926 272.256 94.4003C273.566 95.4081 274.221 96.9752 274.221 99.1017C274.221 100.19 274.044 101.158 273.692 102.004C273.349 102.841 272.83 103.546 272.135 104.12C271.439 104.695 270.567 105.128 269.519 105.42C268.481 105.713 267.267 105.859 265.876 105.859H262.475V114.989H260.918V92.8887H266.345ZM266.179 94.2643H262.475V104.483H265.725C267.156 104.483 268.386 104.322 269.414 103.999C270.442 103.667 271.233 103.113 271.787 102.337C272.341 101.561 272.618 100.502 272.618 99.1621C272.618 97.459 272.094 96.2194 271.046 95.4434C269.998 94.6573 268.376 94.2643 266.179 94.2643Z" fill="white"/>
<path d="M255.883 114.989H243.805V92.8887H255.883V94.2945H245.362V102.669H255.293V104.075H245.362V113.583H255.883V114.989Z" fill="white"/>
<path d="M239.074 109.289C239.074 110.61 238.741 111.718 238.076 112.615C237.411 113.502 236.509 114.172 235.37 114.626C234.231 115.069 232.941 115.291 231.5 115.291C230.603 115.291 229.787 115.245 229.051 115.155C228.326 115.074 227.666 114.963 227.071 114.822C226.487 114.681 225.952 114.52 225.469 114.338V112.781C226.255 113.084 227.162 113.351 228.19 113.583C229.228 113.804 230.356 113.915 231.576 113.915C232.725 113.915 233.743 113.749 234.629 113.416C235.526 113.084 236.232 112.58 236.746 111.905C237.26 111.229 237.517 110.378 237.517 109.35C237.517 108.443 237.3 107.702 236.867 107.128C236.444 106.543 235.804 106.044 234.947 105.631C234.09 105.208 233.012 104.78 231.712 104.346C230.805 104.034 229.979 103.706 229.233 103.364C228.497 103.011 227.867 102.608 227.343 102.154C226.819 101.691 226.416 101.136 226.134 100.491C225.862 99.8364 225.726 99.0655 225.726 98.1786C225.726 96.9592 226.033 95.9363 226.648 95.1099C227.273 94.2735 228.114 93.6436 229.172 93.2203C230.241 92.787 231.44 92.5703 232.77 92.5703C233.828 92.5703 234.831 92.6711 235.778 92.8726C236.736 93.0641 237.658 93.3564 238.545 93.7494L238.001 95.0948C237.114 94.7119 236.227 94.4297 235.34 94.2483C234.453 94.0669 233.576 93.9762 232.71 93.9762C231.672 93.9762 230.744 94.1324 229.928 94.4448C229.122 94.7471 228.482 95.2057 228.008 95.8204C227.535 96.4352 227.298 97.2112 227.298 98.1484C227.298 99.1159 227.515 99.8969 227.948 100.491C228.391 101.086 229.016 101.58 229.822 101.973C230.639 102.366 231.601 102.749 232.71 103.122C234.02 103.565 235.149 104.034 236.096 104.528C237.043 105.011 237.774 105.626 238.288 106.372C238.812 107.118 239.074 108.09 239.074 109.289Z" fill="white"/>
<path d="M200.012 105.572C200.012 103.919 200.138 102.412 200.39 101.052C200.652 99.6812 201.035 98.4718 201.539 97.4237C202.042 96.3656 202.677 95.4737 203.443 94.7481C204.209 94.0225 205.106 93.4732 206.134 93.1003C207.162 92.7275 208.316 92.541 209.596 92.541C210.15 92.541 210.679 92.5712 211.183 92.6317C211.687 92.6922 212.13 92.7778 212.513 92.8887V94.2794C212.14 94.1484 211.707 94.0477 211.213 93.9771C210.719 93.8965 210.19 93.8562 209.626 93.8562C207.893 93.8562 206.436 94.2593 205.257 95.0655C204.078 95.8617 203.176 97.0559 202.551 98.6482C201.937 100.23 201.594 102.196 201.523 104.544H201.629C201.921 104 202.33 103.48 202.854 102.987C203.388 102.493 204.048 102.09 204.834 101.777C205.63 101.465 206.567 101.309 207.646 101.309C208.976 101.309 210.12 101.576 211.077 102.11C212.045 102.644 212.785 103.41 213.299 104.408C213.823 105.405 214.085 106.59 214.085 107.96C214.085 109.431 213.813 110.716 213.269 111.815C212.735 112.913 211.959 113.77 210.941 114.385C209.933 114.989 208.719 115.292 207.298 115.292C206.089 115.292 205.03 115.045 204.123 114.551C203.216 114.057 202.456 113.367 201.841 112.48C201.236 111.593 200.778 110.565 200.465 109.396C200.163 108.217 200.012 106.942 200.012 105.572ZM207.283 113.961C208.946 113.961 210.236 113.442 211.153 112.404C212.08 111.356 212.543 109.875 212.543 107.96C212.543 106.307 212.12 105.002 211.274 104.045C210.427 103.077 209.147 102.594 207.434 102.594C206.245 102.594 205.217 102.83 204.35 103.304C203.494 103.778 202.834 104.367 202.37 105.073C201.906 105.768 201.675 106.453 201.675 107.129C201.675 107.764 201.765 108.469 201.947 109.245C202.128 110.021 202.435 110.772 202.869 111.497C203.302 112.213 203.877 112.802 204.592 113.266C205.318 113.73 206.215 113.961 207.283 113.961Z" fill="white"/>
<path d="M195.918 114.988H182.086V113.688L188.586 106.916C189.624 105.838 190.496 104.865 191.201 103.999C191.917 103.122 192.456 102.245 192.819 101.368C193.192 100.491 193.378 99.5089 193.378 98.4205C193.378 96.9995 192.96 95.896 192.123 95.1099C191.297 94.3239 190.173 93.9308 188.752 93.9308C187.795 93.9308 186.873 94.1021 185.986 94.4448C185.109 94.7874 184.253 95.2913 183.416 95.9565L182.57 94.8832C183.184 94.3793 183.829 93.956 184.505 93.6134C185.19 93.2707 185.89 93.0137 186.606 92.8424C187.321 92.661 188.037 92.5703 188.752 92.5703C190.012 92.5703 191.101 92.8122 192.018 93.2959C192.945 93.7696 193.665 94.4397 194.179 95.3064C194.693 96.1731 194.95 97.191 194.95 98.36C194.95 99.5694 194.739 100.668 194.315 101.655C193.902 102.633 193.313 103.59 192.547 104.528C191.781 105.465 190.874 106.473 189.826 107.551L184.066 113.507V113.567H195.918V114.988Z" fill="white"/>
<path d="M171.641 107.326V105.92H179.139V107.326H171.641Z" fill="white"/>
<path d="M168.254 114.988H154.422V113.688L160.922 106.916C161.96 105.838 162.832 104.865 163.537 103.999C164.253 103.122 164.792 102.245 165.155 101.368C165.528 100.491 165.714 99.5089 165.714 98.4205C165.714 96.9995 165.296 95.896 164.459 95.1099C163.633 94.3239 162.509 93.9308 161.088 93.9308C160.131 93.9308 159.209 94.1021 158.322 94.4448C157.445 94.7874 156.589 95.2913 155.752 95.9565L154.906 94.8832C155.52 94.3793 156.165 93.956 156.841 93.6134C157.526 93.2707 158.226 93.0137 158.942 92.8424C159.657 92.661 160.373 92.5703 161.088 92.5703C162.348 92.5703 163.436 92.8122 164.354 93.2959C165.281 93.7696 166.001 94.4397 166.515 95.3064C167.029 96.1731 167.286 97.191 167.286 98.36C167.286 99.5694 167.075 100.668 166.651 101.655C166.238 102.633 165.649 103.59 164.883 104.528C164.117 105.465 163.21 106.473 162.162 107.551L156.402 113.507V113.567H168.254V114.988Z" fill="white"/>
<path d="M150.566 114.988H136.734V113.688L143.235 106.916C144.273 105.838 145.144 104.865 145.85 103.999C146.565 103.122 147.104 102.245 147.467 101.368C147.84 100.491 148.027 99.5089 148.027 98.4205C148.027 96.9995 147.608 95.896 146.772 95.1099C145.946 94.3239 144.822 93.9308 143.401 93.9308C142.443 93.9308 141.521 94.1021 140.634 94.4448C139.758 94.7874 138.901 95.2913 138.065 95.9565L137.218 94.8832C137.833 94.3793 138.478 93.956 139.153 93.6134C139.838 93.2707 140.539 93.0137 141.254 92.8424C141.97 92.661 142.685 92.5703 143.401 92.5703C144.661 92.5703 145.749 92.8122 146.666 93.2959C147.593 93.7696 148.314 94.4397 148.828 95.3064C149.342 96.1731 149.599 97.191 149.599 98.36C149.599 99.5694 149.387 100.668 148.964 101.655C148.551 102.633 147.961 103.59 147.195 104.528C146.429 105.465 145.522 106.473 144.474 107.551L138.715 113.507V113.567H150.566V114.988Z" fill="white"/>
<path d="M39.8851 35.5967V0H0V37.2765L0.0105438 42.8119C0.0898658 48.7707 2.03561 54.5809 5.61282 59.5409C9.19004 64.5009 14.2458 68.3987 20.1696 70.7636L39.8851 35.5967Z" fill="#FA4848"/>
<path d="M61.9057 0.517618C60.6745 1.28108 59.7125 2.64824 59.7125 2.64824L39.8867 34.9982V70.7636C47.3215 69.3929 54.0132 65.7627 58.8488 60.4767C63.6845 55.1907 66.3726 48.5676 66.4663 41.7087H66.4768V0.0608851C66.4768 0.0608851 63.1375 -0.245845 61.9057 0.517618Z" fill="#FA4848"/>
<path d="M86.3789 0V44.4217C86.3789 47.9858 86.9252 51.3879 88.0177 54.628C89.1831 57.8033 90.9676 60.5897 93.3712 62.9874C95.8476 65.3851 98.9795 67.2967 102.767 68.7224C106.627 70.0832 111.252 70.7636 116.642 70.7636C122.105 70.7636 126.73 70.0832 130.518 68.7224C134.378 67.2967 137.51 65.3851 139.913 62.9874C142.39 60.5897 144.174 57.8033 145.267 54.628C146.432 51.3879 147.015 47.9858 147.015 44.4217V0H139.586V42.9636C139.586 46.9814 139.076 50.4158 138.056 53.2671C137.036 56.0536 135.543 58.3541 133.577 60.1685C131.61 61.9182 129.206 63.2142 126.366 64.0566C123.525 64.8343 120.284 65.2231 116.642 65.2231C113.073 65.2231 109.869 64.8343 107.028 64.0566C104.187 63.2142 101.784 61.9182 99.8172 60.1685C97.8506 58.3541 96.3574 56.0536 95.3377 53.2671C94.318 50.4158 93.8082 46.9814 93.8082 42.9636V0H86.3789Z" fill="white"/>
<path d="M153.305 0L179.744 33.6322L151.775 69.4028H160.078L184.114 38.7839L207.822 69.4028H216.781L188.594 33.8266L215.252 0H206.948L184.114 29.0636L162.045 0H153.305Z" fill="white"/>
<path d="M223.033 0V69.4028H230.462V0H223.033Z" fill="white"/>
<path d="M245.504 0V69.4028H252.933V10.6923H253.152L298.601 69.4028H306.905V0H299.476V58.7105H299.257L253.807 0H245.504Z" fill="white"/>
<path d="M321.447 0V69.4028H348.432C360.305 69.1436 369.227 66.1951 375.2 60.5573C381.245 54.8548 384.268 46.2361 384.268 34.7014C384.268 23.1667 381.245 14.5804 375.2 8.94266C369.227 3.24009 360.305 0.259208 348.432 0H321.447ZM328.876 63.765V5.63776H344.718C350.326 5.63776 355.133 6.18858 359.139 7.29021C363.218 8.32704 366.569 10.0119 369.191 12.3448C371.813 14.6776 373.743 17.6909 374.981 21.3846C376.219 25.0783 376.838 29.5173 376.838 34.7014C376.838 39.8855 376.219 44.3245 374.981 48.0182C373.743 51.7119 371.813 54.7252 369.191 57.058C366.569 59.3909 363.218 61.1081 359.139 62.2098C355.133 63.2466 350.326 63.765 344.718 63.765H328.876Z" fill="white"/>
<path d="M395.692 0V69.4028H403.122V0H395.692Z" fill="white"/>
<path d="M429.308 42.186L444.931 6.60979L460.008 42.186H429.308ZM441.107 0L409.751 69.4028H417.618L427.013 47.8238H462.521L472.026 69.4028H480.002L449.41 0H441.107Z" fill="white"/>
</svg>
