<svg width="512" height="512" viewBox="0 0 512 512" fill="none" xmlns="http://www.w3.org/2000/svg">
<g clip-path="url(#clip0_3_3)">
<path d="M391.812 0H408.145C411.422 0.871387 415.855 1.15394 419.13 1.70442C467.533 9.83745 506.183 50.739 511.2 99.6253C511.37 101.286 511.57 103.452 512 105.072V115.864C511.202 118.144 511.19 121.319 510.74 123.748C508.255 137.169 502.93 151.001 496.802 163.151C490.21 176.268 482.85 188.986 474.763 201.238C459.063 224.81 441.965 247.419 423.56 268.945C420.322 272.765 413.042 281.757 409.802 284.465C408.217 285.77 406.392 286.76 404.432 287.375C391.215 291.392 384.427 277.482 376.802 269.495C376.055 268.715 375.322 267.757 374.615 266.925C363.09 253.417 352.128 239.437 341.76 225.023C322.455 198.596 303.775 169.96 293.047 138.844C292.567 137.449 292.08 136.034 291.698 134.609C284.803 108.38 288.67 80.4843 302.443 57.1213C319.878 27.2138 347.29 7.38845 381.58 1.55651C384.7 1.02559 388.9 0.841575 391.812 0ZM400.085 247.457C400.852 246.472 401.845 245.117 402.682 244.238C426.842 214.326 450.522 183.606 467.957 149.173C475.505 134.268 481.267 120.967 479.465 103.855C477.285 82.7685 466.825 63.409 450.385 50.0267C435.148 37.765 414.75 30.6395 395.145 32.3483C372.477 34.3593 353.49 43.1237 338.695 60.711C326.515 75.1935 318.572 96.336 320.247 115.395C322.865 145.195 361.71 198.851 380.575 223.365C386.84 231.507 393.18 239.849 400.085 247.457Z" fill="currentColor"/>
<path d="M399.135 64.1561C425.545 63.6954 447.332 84.7209 447.812 111.131C448.292 137.54 427.282 159.344 400.872 159.843C374.437 160.343 352.605 139.307 352.125 112.87C351.645 86.4331 372.698 64.6174 399.135 64.1561ZM402.127 127.744C410.795 126.552 416.87 118.581 415.72 109.907C414.572 101.234 406.633 95.1194 397.953 96.2244C389.213 97.3376 383.045 105.347 384.2 114.082C385.358 122.817 393.397 128.945 402.127 127.744Z" fill="currentColor"/>
</g>
<defs>
<clipPath id="clip0_3_3">
<rect width="512" height="512" fill="white"/>
</clipPath>
</defs>
</svg>
